# Wavefront OBJ file
# Exported by Misfit Model 3D 1.2.4
# Sun Dec 27 15:25:16 2015

mtllib ChocolateCraked.mtl

# 178 Vertices
v -0.008893 15.421137 -0.0041
v -0.008593 15.422137 -0.0041
v -0.008093 15.422037 -0.005
v -0.008393 15.421037 -0.005
v -0.003593 15.414837 -0.0067
v -0.000593 15.424337 -0.0067
v -0.007893 15.416137 0.0022
v -0.004893 15.425737 0.0022
v 0.000007 15.418937 0.0
v -76.559494 39.349736 -41.161598
v -76.559494 39.348737 -41.161598
v -76.559494 39.348737 -41.162601
v -76.559494 39.349736 -41.162601
v -76.564492 39.354237 -41.167099
v -76.564492 39.344237 -41.167099
v -76.564492 39.354237 -41.157101
v -76.564492 39.344237 -41.157101
v -76.569497 39.349236 -41.162102
v 38.823406 31.540137 -85.373802
v 38.823406 31.539136 -85.373802
v 38.823406 31.539136 -85.374802
v 38.823406 31.540137 -85.374802
v 38.818408 31.544637 -85.379303
v 38.818408 31.534636 -85.379303
v 38.818408 31.544637 -85.369301
v 38.818408 31.534636 -85.369301
v 38.813407 31.539637 -85.374298
v 113.227409 43.054337 64.515999
v 113.227409 43.053536 64.515999
v 113.227409 43.053536 64.515198
v 113.227409 43.054337 64.515198
v 113.223304 43.058036 64.511497
v 113.223304 43.049836 64.511497
v 113.223304 43.058036 64.519699
v 113.223304 43.049836 64.519699
v 113.219207 43.053937 64.515602
v 45.293506 27.998136 52.654301
v 45.293506 27.997137 52.654301
v 45.293506 27.997137 52.653301
v 45.293506 27.998136 52.653301
v 45.288509 28.002637 52.6488
v 45.288509 27.992637 52.6488
v 45.288509 28.002637 52.658798
v 45.288509 27.992637 52.658798
v 45.283508 27.997637 52.653801
v -54.996594 48.771338 89.309502
v -54.996594 48.770335 89.309502
v -54.997391 48.770335 89.308998
v -54.997391 48.771338 89.308998
v -55.003994 48.775836 89.3106
v -55.003994 48.765838 89.3106
v -54.995694 48.775836 89.3162
v -54.995694 48.765838 89.3162
v -55.002594 48.770835 89.317497
v 22.648307 81.901236 -28.2215
v 22.648307 81.900237 -28.2215
v 22.648307 81.900237 -28.2225
v 22.648307 81.901236 -28.2225
v 22.643306 81.905738 -28.226999
v 22.643306 81.895736 -28.226999
v 22.643306 81.905738 -28.216999
v 22.643306 81.895736 -28.216999
v 22.638307 81.900733 -28.222
v -146.754998 37.296037 41.3978
v -71.368691 3.444237 40.491798
v -16.299593 43.851937 46.541801
v -48.055691 98.376937 43.966301
v -19.023293 98.370536 47.904099
v -95.144494 98.24134 41.3451
v -151.749398 4.991937 45.198799
v -2.693792 7.141737 39.579601
v -67.805893 1.082637 -152.107895
v -148.312691 -4.725663 -148.880905
v -145.329689 42.632337 -139.812607
v -75.25599 41.170337 -144.845993
v -91.029595 98.312835 -93.344902
v -63.621094 68.554236 -90.028702
v -50.497792 98.277434 -47.048698
v -34.357792 6.285137 -65.6754
v -22.963393 98.366736 21.291
v -8.110593 5.976637 -10.6901
v -86.049592 1.008037 -8.8582
v -150.492394 0.180337 -6.0902
v 71.475311 65.978537 -8.2644
v 73.294006 54.278235 23.179399
v -25.688393 58.688437 -36.435501
v 81.734306 60.263938 -48.408501
v 1.938607 53.141135 40.4594
v 63.249607 49.949336 72.188599
v 25.330707 60.225238 114.983597
v -56.429093 64.590335 -110.132797
v -52.892292 67.710437 -69.388603
v 50.472206 49.998538 119.037003
v 47.613506 97.904136 46.2458
v 52.977806 97.844336 12.1435
v 44.387706 79.529334 105.274399
v 85.498306 63.201636 -105.014603
v 65.56781 97.863036 -88.182404
v 60.554409 97.908538 -30.366899
v -63.669491 92.283133 -92.273201
v -8.833992 97.859038 73.785599
v -20.124894 97.890136 10.4327
v -38.706593 97.908637 -55.192299
v 35.915306 53.395335 -15.6391
v 27.289007 7.407237 45.757099
v 85.701309 32.831637 18.5504
v -10.587293 52.021937 -13.6105
v 90.87741 2.419137 54.5546
v 78.565506 55.417437 -18.490999
v 129.549308 -0.959464 -149.548599
v -68.952897 22.012737 -145.949997
v 113.728904 35.590136 -140.294693
v -62.072793 43.996537 -130.6754
v -53.820694 -0.839763 -146.787506
v 86.832809 56.759238 -111.488998
v 33.209007 58.789538 -108.221199
v -62.546391 60.416835 -108.313103
v 92.350204 49.580737 -65.327003
v 117.822509 -0.166663 -99.606697
v 101.959205 3.714637 2.932
v -33.191193 53.006438 -42.4049
v 18.314407 3.542837 7.6807
v 68.952606 92.28144 -42.566799
v 96.852409 3.399437 -5.8645
v 62.321105 92.275733 15.0635
v 55.282909 92.277839 58.5079
v 67.026611 46.286336 122.841599
v 56.470108 73.433936 105.781502
v 109.40171 54.429336 -81.148903
v 121.564506 2.069036 -74.849503
v 148.794105 -0.802163 -151.196701
v 121.84011 33.239236 -145.733902
v 88.328109 1.028336 109.918999
v 91.703308 92.278739 -58.922401
v 78.540405 23.556637 142.009293
v 89.723609 -0.010364 151.829498
v 61.468505 39.140138 133.617004
v 140.961906 47.206437 127.019798
v 95.545707 92.275535 58.2575
v 152.576606 37.608437 -142.025604
v 149.533607 -0.330464 149.2061
v 25.567907 5.931537 67.244102
v 82.279106 26.385337 32.0895
v 55.010208 2.407137 56.8606
v 12.212207 54.076537 -8.2863
v -20.570393 47.473136 -8.7147
v 88.63871 5.522036 59.890202
v 59.467609 52.867038 -3.7015
v 76.109107 49.490035 21.7038
v 64.827804 50.832438 69.504501
v 80.753204 30.964737 62.116798
v 31.554307 46.501437 109.457199
v -9.953793 54.323535 23.0987
v 86.266906 2.240737 116.718002
v 64.096809 45.514636 119.692703
v 50.573509 1.407237 113.291
v 70.924507 8.741737 148.338394
v 53.420608 37.474236 144.968399
v -120.00869 55.261538 52.1931
v -91.995995 91.337539 57.709
v -19.552393 51.001338 49.512001
v -88.010293 5.741736 43.830399
v 1.793908 3.111736 43.418098
v 6.258908 26.687837 43.917099
v -18.652894 95.114737 59.715199
v -154.633996 -0.486464 49.7365
v -149.950188 33.469636 51.2631
v 41.514907 -0.151663 101.560501
v -18.667193 -0.226163 108.997398
v -1.473092 81.90544 101.271004
v 3.187607 43.753436 138.172607
v 32.122707 52.659736 120.196899
v -23.148694 0.173636 150.793304
v 53.689609 1.628636 151.667206
v -151.49749 0.570237 150.8078
v -128.004891 53.106135 129.096695
v -91.391594 89.677436 92.997704
v 8.551609 27.460036 73.465401

# 912 Texture Coordinates
vt 0.0 1.0
vt 0.0 0.0
vt 1.0 0.0
vt 0.0 1.0
vt 0.0 0.0
vt 1.0 0.0
vt 0.0 1.0
vt 0.0 0.0
vt 1.0 0.0
vt 0.0 1.0
vt 0.0 0.0
vt 1.0 0.0
vt 0.0 1.0
vt 0.0 0.0
vt 1.0 0.0
vt 0.0 1.0
vt 0.0 0.0
vt 1.0 0.0
vt 0.0 1.0
vt 0.0 0.0
vt 1.0 0.0
vt 0.0 1.0
vt 0.0 0.0
vt 1.0 0.0
vt 0.0 1.0
vt 0.0 0.0
vt 1.0 0.0
vt 0.0 1.0
vt 0.0 0.0
vt 1.0 0.0
vt 0.0 1.0
vt 0.0 0.0
vt 1.0 0.0
vt 0.0 1.0
vt 0.0 0.0
vt 1.0 0.0
vt 0.0 1.0
vt 0.0 0.0
vt 1.0 0.0
vt 0.0 1.0
vt 0.0 0.0
vt 1.0 0.0
vt 0.0 1.0
vt 0.0 0.0
vt 1.0 0.0
vt 0.0 1.0
vt 0.0 0.0
vt 1.0 0.0
vt 0.0 1.0
vt 0.0 0.0
vt 1.0 0.0
vt 0.0 1.0
vt 0.0 0.0
vt 1.0 0.0
vt 0.0 1.0
vt 0.0 0.0
vt 1.0 0.0
vt 0.0 1.0
vt 0.0 0.0
vt 1.0 0.0
vt 0.0 1.0
vt 0.0 0.0
vt 1.0 0.0
vt 0.0 1.0
vt 0.0 0.0
vt 1.0 0.0
vt 0.0 1.0
vt 0.0 0.0
vt 1.0 0.0
vt 0.0 1.0
vt 0.0 0.0
vt 1.0 0.0
vt 0.0 1.0
vt 0.0 0.0
vt 1.0 0.0
vt 0.0 1.0
vt 0.0 0.0
vt 1.0 0.0
vt 0.0 1.0
vt 0.0 0.0
vt 1.0 0.0
vt 0.0 1.0
vt 0.0 0.0
vt 1.0 0.0
vt 0.0 1.0
vt 0.0 0.0
vt 1.0 0.0
vt 0.0 1.0
vt 0.0 0.0
vt 1.0 0.0
vt 0.0 1.0
vt 0.0 0.0
vt 1.0 0.0
vt 0.0 1.0
vt 0.0 0.0
vt 1.0 0.0
vt 0.0 1.0
vt 0.0 0.0
vt 1.0 0.0
vt 0.0 1.0
vt 0.0 0.0
vt 1.0 0.0
vt 0.0 1.0
vt 0.0 0.0
vt 1.0 0.0
vt 0.0 1.0
vt 0.0 0.0
vt 1.0 0.0
vt 0.0 1.0
vt 0.0 0.0
vt 1.0 0.0
vt 0.0 1.0
vt 0.0 0.0
vt 1.0 0.0
vt 0.0 1.0
vt 0.0 0.0
vt 1.0 0.0
vt 0.0 1.0
vt 0.0 0.0
vt 1.0 0.0
vt 0.0 1.0
vt 0.0 0.0
vt 1.0 0.0
vt 0.0 1.0
vt 0.0 0.0
vt 1.0 0.0
vt 0.0 1.0
vt 0.0 0.0
vt 1.0 0.0
vt 0.0 1.0
vt 0.0 0.0
vt 1.0 0.0
vt 0.0 1.0
vt 0.0 0.0
vt 1.0 0.0
vt 0.0 1.0
vt 0.0 0.0
vt 1.0 0.0
vt 0.0 1.0
vt 0.0 0.0
vt 1.0 0.0
vt 0.0 1.0
vt 0.0 0.0
vt 1.0 0.0
vt 0.0 1.0
vt 0.0 0.0
vt 1.0 0.0
vt 0.0 1.0
vt 0.0 0.0
vt 1.0 0.0
vt 0.0 1.0
vt 0.0 0.0
vt 1.0 0.0
vt 0.0 1.0
vt 0.0 0.0
vt 1.0 0.0
vt 0.0 1.0
vt 0.0 0.0
vt 1.0 0.0
vt 0.0 1.0
vt 0.0 0.0
vt 1.0 0.0
vt 0.0 1.0
vt 0.0 0.0
vt 1.0 0.0
vt 0.0 1.0
vt 0.0 0.0
vt 1.0 0.0
vt 0.0 1.0
vt 0.0 0.0
vt 1.0 0.0
vt 0.0 1.0
vt 0.0 0.0
vt 1.0 0.0
vt 0.0 1.0
vt 0.0 0.0
vt 1.0 0.0
vt 0.0 1.0
vt 0.0 0.0
vt 1.0 0.0
vt 0.0 1.0
vt 0.0 0.0
vt 1.0 0.0
vt 0.0 1.0
vt 0.0 0.0
vt 1.0 0.0
vt 0.0 1.0
vt 0.0 0.0
vt 1.0 0.0
vt 0.0 1.0
vt 0.0 0.0
vt 1.0 0.0
vt 0.0 1.0
vt 0.0 0.0
vt 1.0 0.0
vt 0.0 1.0
vt 0.0 0.0
vt 1.0 0.0
vt 0.0 1.0
vt 0.0 0.0
vt 1.0 0.0
vt 0.0 1.0
vt 0.0 0.0
vt 1.0 0.0
vt 0.0 1.0
vt 0.0 0.0
vt 1.0 0.0
vt 0.0 1.0
vt 0.0 0.0
vt 1.0 0.0
vt 0.0 1.0
vt 0.0 0.0
vt 1.0 0.0
vt 0.0 1.0
vt 0.0 0.0
vt 1.0 0.0
vt 0.0 1.0
vt 0.0 0.0
vt 1.0 0.0
vt 0.0 1.0
vt 0.0 0.0
vt 1.0 0.0
vt 0.0 1.0
vt 0.0 0.0
vt 1.0 0.0
vt 0.0 1.0
vt 0.0 0.0
vt 1.0 0.0
vt 0.0 1.0
vt 0.0 0.0
vt 1.0 0.0
vt 0.0 1.0
vt 0.0 0.0
vt 1.0 0.0
vt 0.0 1.0
vt 0.0 0.0
vt 1.0 0.0
vt 0.0 1.0
vt 0.0 0.0
vt 1.0 0.0
vt 0.0 1.0
vt 0.0 0.0
vt 1.0 0.0
vt 0.0 1.0
vt 0.0 0.0
vt 1.0 0.0
vt 0.0 1.0
vt 0.0 0.0
vt 1.0 0.0
vt 0.0 1.0
vt 0.0 0.0
vt 1.0 0.0
vt 0.0 1.0
vt 0.0 0.0
vt 1.0 0.0
vt 0.0 1.0
vt 0.0 0.0
vt 1.0 0.0
vt 0.0 1.0
vt 0.0 0.0
vt 1.0 0.0
vt 0.0 1.0
vt 0.0 0.0
vt 1.0 0.0
vt 0.0 1.0
vt 0.0 0.0
vt 1.0 0.0
vt 0.0 1.0
vt 0.0 0.0
vt 1.0 0.0
vt 0.0 1.0
vt 0.0 0.0
vt 1.0 0.0
vt 0.0 1.0
vt 0.0 0.0
vt 1.0 0.0
vt 0.0 1.0
vt 0.0 0.0
vt 1.0 0.0
vt 0.0 1.0
vt 0.0 0.0
vt 1.0 0.0
vt 0.0 1.0
vt 0.0 0.0
vt 1.0 0.0
vt 0.0 1.0
vt 0.0 0.0
vt 1.0 0.0
vt 0.0 1.0
vt 0.0 0.0
vt 1.0 0.0
vt 0.0 1.0
vt 0.0 0.0
vt 1.0 0.0
vt 0.8598 0.4993
vt 0.8883 0.439
vt 0.9379 0.4311
vt 0.9579 0.4743
vt 0.9379 0.4311
vt 0.9752 0.4478
vt 0.9288 0.5048
vt 0.8598 0.4993
vt 0.9379 0.4311
vt 0.8598 0.4993
vt 0.834 0.479
vt 0.8883 0.439
vt 0.9379 0.4311
vt 0.8883 0.439
vt 0.9226 0.4206
vt 0.1634 0.9938
vt 0.0131 0.9878
vt 0.0187 0.9709
vt 0.1634 0.9938
vt 0.0187 0.9709
vt 0.1495 0.9803
vt 0.12 0.8842
vt 0.1712 0.878
vt 0.0187 0.9709
vt 0.1712 0.878
vt 0.1495 0.9803
vt 0.0187 0.9709
vt 0.9898 0.296
vt 0.9833 0.3516
vt 0.956 0.3109
vt 0.9041 0.3557
vt 0.8559 0.2582
vt 0.9073 0.2515
vt 0.956 0.3109
vt 0.9041 0.3557
vt 0.9073 0.2515
vt 0.9836 0.4187
vt 0.956 0.3109
vt 0.9833 0.3516
vt 0.9148 0.3977
vt 0.9041 0.3557
vt 0.956 0.3109
vt 0.0187 0.9709
vt 0.0161 0.6328
vt 0.12 0.8842
vt 0.9836 0.4187
vt 0.9148 0.3977
vt 0.956 0.3109
vt 0.12 0.8842
vt 0.0161 0.6328
vt 0.1123 0.6329
vt 0.1956 0.7978
vt 0.12 0.8842
vt 0.1123 0.6329
vt 0.9041 0.3557
vt 0.9148 0.3977
vt 0.8643 0.4112
vt 0.8643 0.4112
vt 0.8559 0.2582
vt 0.9041 0.3557
vt 0.7711 0.2821
vt 0.8559 0.2582
vt 0.8643 0.4112
vt 0.9379 0.4311
vt 0.9148 0.3977
vt 0.9836 0.4187
vt 0.7711 0.2821
vt 0.8643 0.4112
vt 0.8066 0.4326
vt 0.0091 0.7214
vt 0.0187 0.9709
vt 0.0131 0.9878
vt 0.1956 0.7978
vt 0.2002 0.628
vt 0.247 0.6703
vt 0.9379 0.4311
vt 0.9226 0.4206
vt 0.9148 0.3977
vt 0.0161 0.6328
vt 0.0187 0.9709
vt 0.0091 0.7214
vt 0.2002 0.628
vt 0.1956 0.7978
vt 0.1123 0.6329
vt 0.9379 0.4311
vt 0.9836 0.4187
vt 0.9752 0.4478
vt 0.9148 0.3977
vt 0.9226 0.4206
vt 0.8643 0.4112
vt 0.9226 0.4206
vt 0.8883 0.439
vt 0.8643 0.4112
vt 0.834 0.479
vt 0.8643 0.4112
vt 0.8883 0.439
vt 0.8643 0.4112
vt 0.834 0.479
vt 0.8066 0.4326
vt 0.0091 0.7214
vt 0.0067 0.6257
vt 0.0161 0.6328
vt 0.247 0.6703
vt 0.2002 0.628
vt 0.2544 0.6206
vt 0.9288 0.5048
vt 0.9379 0.4311
vt 0.9579 0.4743
vt 0.8187 0.8013
vt 0.858 0.8188
vt 0.7443 0.9174
vt 0.7639 0.7774
vt 0.8187 0.8013
vt 0.7443 0.9174
vt 0.858 0.8188
vt 0.8519 0.9104
vt 0.7443 0.9174
vt 0.858 0.8188
vt 0.9116 0.8468
vt 0.8519 0.9104
vt 0.9116 0.8468
vt 0.9533 0.9085
vt 0.8519 0.9104
vt 0.7639 0.7774
vt 0.7443 0.9174
vt 0.6407 0.9281
vt 0.7443 0.9174
vt 0.6919 0.9383
vt 0.6407 0.9281
vt 0.9533 0.9085
vt 0.9116 0.8468
vt 0.9672 0.8742
vt 0.858 0.8188
vt 0.9092 0.7749
vt 0.9116 0.8468
vt 0.858 0.8188
vt 0.8187 0.8013
vt 0.8656 0.7608
vt 0.9116 0.8468
vt 0.9704 0.8293
vt 0.9672 0.8742
vt 0.858 0.8188
vt 0.8656 0.7608
vt 0.9092 0.7749
vt 0.696 0.7517
vt 0.7381 0.7097
vt 0.7639 0.7774
vt 0.9092 0.7749
vt 0.9704 0.8293
vt 0.9116 0.8468
vt 0.8187 0.8013
vt 0.8106 0.741
vt 0.8656 0.7608
vt 0.8106 0.741
vt 0.8187 0.8013
vt 0.7639 0.7774
vt 0.8106 0.741
vt 0.7639 0.7774
vt 0.7381 0.7097
vt 0.1711 0.8822
vt 0.4494 0.9059
vt 0.1846 0.9155
vt 0.2734 0.5724
vt 0.3371 0.4955
vt 0.3727 0.5136
vt 0.2734 0.5724
vt 0.3727 0.5136
vt 0.3787 0.6237
vt 0.4028 0.7667
vt 0.2523 0.6906
vt 0.3887 0.6874
vt 0.2176 0.813
vt 0.2523 0.6906
vt 0.4028 0.7667
vt 0.4122 0.8745
vt 0.2176 0.813
vt 0.4028 0.7667
vt 0.1711 0.8822
vt 0.2176 0.813
vt 0.4122 0.8745
vt 0.384 0.4879
vt 0.3727 0.5136
vt 0.3371 0.4955
vt 0.3787 0.6237
vt 0.2523 0.6906
vt 0.2734 0.5724
vt 0.3887 0.6874
vt 0.2523 0.6906
vt 0.3787 0.6237
vt 0.6607 0.9685
vt 0.6919 0.9383
vt 0.718 0.9721
vt 0.6407 0.9281
vt 0.6919 0.9383
vt 0.6607 0.9685
vt 0.8519 0.9104
vt 0.8935 0.9711
vt 0.8076 0.9718
vt 0.8519 0.9104
vt 0.8076 0.9718
vt 0.718 0.9721
vt 0.7443 0.9174
vt 0.718 0.9721
vt 0.6919 0.9383
vt 0.8519 0.9104
vt 0.9533 0.9085
vt 0.8935 0.9711
vt 0.7443 0.9174
vt 0.8519 0.9104
vt 0.718 0.9721
vt 0.1711 0.8822
vt 0.4122 0.8745
vt 0.4494 0.9059
vt 0.7639 0.7774
vt 0.6407 0.9281
vt 0.696 0.7517
vt 0.8698 0.65
vt 0.9146 0.6243
vt 0.9145 0.6725
vt 0.8698 0.65
vt 0.8598 0.6062
vt 0.9146 0.6243
vt 0.9145 0.6725
vt 0.9146 0.6243
vt 0.957 0.6469
vt 0.877 0.681
vt 0.8698 0.65
vt 0.9145 0.6725
vt 0.5316 0.996
vt 0.1612 0.9823
vt 0.502 0.9718
vt 0.1741 0.9538
vt 0.502 0.9718
vt 0.1612 0.9823
vt 0.1612 0.9823
vt 0.5316 0.996
vt 0.1894 0.9909
vt 0.502 0.9718
vt 0.1741 0.9538
vt 0.4519 0.918
vt 0.4519 0.918
vt 0.1741 0.9538
vt 0.3518 0.9119
vt 0.781 0.5468
vt 0.7793 0.5193
vt 0.789 0.4937
vt 0.839 0.7079
vt 0.7757 0.7661
vt 0.7886 0.7171
vt 0.8366 0.7791
vt 0.7875 0.8115
vt 0.7757 0.7661
vt 0.1732 0.9121
vt 0.3518 0.9119
vt 0.1741 0.9538
vt 0.8366 0.7791
vt 0.7757 0.7661
vt 0.839 0.7079
vt 0.9756 0.4529
vt 0.9726 0.4988
vt 0.8138 0.4823
vt 0.8138 0.4823
vt 0.781 0.5468
vt 0.789 0.4937
vt 0.839 0.7079
vt 0.7886 0.7171
vt 0.7777 0.6553
vt 0.9736 0.5919
vt 0.8138 0.4823
vt 0.9726 0.4988
vt 0.8332 0.5824
vt 0.7777 0.6553
vt 0.781 0.5468
vt 0.877 0.681
vt 0.839 0.7079
vt 0.7777 0.6553
vt 0.9293 0.7081
vt 0.8366 0.7791
vt 0.839 0.7079
vt 0.9042 0.6006
vt 0.8138 0.4823
vt 0.9736 0.5919
vt 0.8698 0.65
vt 0.7777 0.6553
vt 0.8332 0.5824
vt 0.9293 0.7081
vt 0.839 0.7079
vt 0.877 0.681
vt 0.8138 0.4823
vt 0.8332 0.5824
vt 0.781 0.5468
vt 0.9736 0.5919
vt 0.957 0.6469
vt 0.9146 0.6243
vt 0.877 0.681
vt 0.7777 0.6553
vt 0.8698 0.65
vt 0.9293 0.7081
vt 0.9145 0.6725
vt 0.957 0.6469
vt 0.9736 0.5919
vt 0.9146 0.6243
vt 0.9042 0.6006
vt 0.8598 0.6062
vt 0.8698 0.65
vt 0.8332 0.5824
vt 0.9145 0.6725
vt 0.9293 0.7081
vt 0.877 0.681
vt 0.8138 0.4823
vt 0.9042 0.6006
vt 0.8332 0.5824
vt 0.9146 0.6243
vt 0.8598 0.6062
vt 0.9042 0.6006
vt 0.8332 0.5824
vt 0.9042 0.6006
vt 0.8598 0.6062
vt 0.6015 0.5738
vt 0.7007 0.6335
vt 0.5949 0.6413
vt 0.5949 0.6413
vt 0.7007 0.6335
vt 0.5827 0.6907
vt 0.7007 0.6335
vt 0.6261 0.7709
vt 0.5954 0.7473
vt 0.5827 0.6907
vt 0.7007 0.6335
vt 0.5954 0.7473
vt 0.6717 0.5347
vt 0.73 0.5564
vt 0.6015 0.5738
vt 0.7641 0.4711
vt 0.73 0.5564
vt 0.7149 0.4696
vt 0.73 0.5564
vt 0.7007 0.6335
vt 0.6015 0.5738
vt 0.7007 0.6335
vt 0.6848 0.7631
vt 0.6261 0.7709
vt 0.6717 0.5347
vt 0.6015 0.5738
vt 0.6179 0.5457
vt 0.7149 0.4696
vt 0.73 0.5564
vt 0.6717 0.5347
vt 0.6538 0.809
vt 0.6848 0.7631
vt 0.6841 0.8115
vt 0.6848 0.7631
vt 0.6538 0.809
vt 0.6281 0.7981
vt 0.6261 0.7709
vt 0.6848 0.7631
vt 0.6281 0.7981
vt 0.553 0.4714
vt 0.4934 0.8643
vt 0.4673 0.6012
vt 0.5626 0.9812
vt 0.4934 0.8643
vt 0.553 0.4714
vt 0.5692 0.4295
vt 0.5626 0.9812
vt 0.553 0.4714
vt 0.46 0.8223
vt 0.4673 0.6012
vt 0.4934 0.8643
vt 0.575 0.9965
vt 0.5626 0.9812
vt 0.5692 0.4295
vt 0.46 0.8223
vt 0.4171 0.7915
vt 0.4673 0.6012
vt 0.4171 0.7915
vt 0.4046 0.6827
vt 0.4673 0.6012
vt 0.3913 0.6007
vt 0.3936 0.5115
vt 0.4673 0.6012
vt 0.553 0.4714
vt 0.4673 0.6012
vt 0.3936 0.5115
vt 0.5692 0.4295
vt 0.553 0.4714
vt 0.4563 0.4246
vt 0.6848 0.7631
vt 0.7007 0.6335
vt 0.7529 0.8106
vt 0.3913 0.6007
vt 0.4673 0.6012
vt 0.4046 0.6827
vt 0.4135 0.4793
vt 0.553 0.4714
vt 0.3936 0.5115
vt 0.4352 0.4256
vt 0.553 0.4714
vt 0.4135 0.4793
vt 0.4563 0.4246
vt 0.553 0.4714
vt 0.4352 0.4256
vt 0.7529 0.8106
vt 0.6841 0.8115
vt 0.6848 0.7631
vt 0.7007 0.6335
vt 0.73 0.5564
vt 0.7529 0.8106
vt 0.7641 0.4711
vt 0.7529 0.8106
vt 0.73 0.5564
vt 0.5169 0.9862
vt 0.5626 0.9812
vt 0.575 0.9965
vt 0.5169 0.9862
vt 0.4934 0.8643
vt 0.5626 0.9812
vt 0.4135 0.4793
vt 0.403 0.4383
vt 0.4352 0.4256
vt 0.8029 0.1325
vt 0.7235 0.15
vt 0.7683 0.1234
vt 0.8029 0.1325
vt 0.7859 0.2346
vt 0.7235 0.15
vt 0.826 0.2417
vt 0.7859 0.2346
vt 0.8029 0.1325
vt 0.7683 0.1234
vt 0.7235 0.15
vt 0.7327 0.1006
vt 0.9272 0.2162
vt 0.9355 0.1814
vt 0.9605 0.1635
vt 0.7859 0.2346
vt 0.7326 0.2109
vt 0.7235 0.15
vt 0.9605 0.1635
vt 0.9099 0.1314
vt 0.942 0.1302
vt 0.9605 0.1635
vt 0.9355 0.1814
vt 0.9099 0.1314
vt 0.8029 0.1325
vt 0.8609 0.0986
vt 0.8415 0.2057
vt 0.9426 0.0498
vt 0.9099 0.1314
vt 0.8892 0.0757
vt 0.9721 0.1165
vt 0.942 0.1302
vt 0.9099 0.1314
vt 0.9721 0.1165
vt 0.9605 0.1635
vt 0.942 0.1302
vt 0.8029 0.1325
vt 0.8415 0.2057
vt 0.826 0.2417
vt 0.8118 0.0673
vt 0.8609 0.0986
vt 0.8029 0.1325
vt 0.8118 0.0673
vt 0.831 0.02
vt 0.8609 0.0986
vt 0.9426 0.0498
vt 0.9721 0.1165
vt 0.9099 0.1314
vt 0.8609 0.0986
vt 0.831 0.02
vt 0.8682 0.0464
vt 0.8892 0.0757
vt 0.8682 0.0464
vt 0.9426 0.0498
vt 0.8609 0.0986
vt 0.8682 0.0464
vt 0.8892 0.0757
vt 0.7683 0.1234
vt 0.8118 0.0673
vt 0.8029 0.1325
vt 0.7327 0.1006
vt 0.7798 0.0354
vt 0.8118 0.0673
vt 0.7683 0.1234
vt 0.7327 0.1006
vt 0.8118 0.0673
vt 0.831 0.02
vt 0.8118 0.0673
vt 0.7798 0.0354
vt 0.8682 0.0464
vt 0.905 0.0204
vt 0.9426 0.0498
vt 0.826 0.2417
vt 0.8415 0.2057
vt 0.8728 0.2367
vt 0.8892 0.0757
vt 0.9099 0.1314
vt 0.8609 0.0986
vt 0.8415 0.2057
vt 0.9355 0.1814
vt 0.8728 0.2367
vt 0.9099 0.1314
vt 0.9355 0.1814
vt 0.8415 0.2057
vt 0.8609 0.0986
vt 0.9099 0.1314
vt 0.8415 0.2057
vt 0.9355 0.1814
vt 0.9272 0.2162
vt 0.8728 0.2367
vt 0.7767 0.3113
vt 0.8026 0.383
vt 0.6722 0.4516
vt 0.6788 0.3127
vt 0.6722 0.4516
vt 0.6221 0.4235
vt 0.6221 0.4235
vt 0.6722 0.4516
vt 0.6341 0.4583
vt 0.7149 0.4778
vt 0.6722 0.4516
vt 0.8026 0.383
vt 0.6788 0.3127
vt 0.7204 0.2285
vt 0.7733 0.2499
vt 0.6221 0.4235
vt 0.5499 0.4119
vt 0.5758 0.3476
vt 0.2871 0.5211
vt 0.2958 0.4522
vt 0.3498 0.4858
vt 0.2958 0.4522
vt 0.2467 0.4287
vt 0.39 0.427
vt 0.5499 0.4119
vt 0.493 0.3964
vt 0.5758 0.3476
vt 0.5758 0.3476
vt 0.6788 0.3127
vt 0.6221 0.4235
vt 0.2958 0.4522
vt 0.0072 0.4286
vt 0.2467 0.4287
vt 0.5365 0.3199
vt 0.5758 0.3476
vt 0.493 0.3964
vt 0.051 0.4692
vt 0.2958 0.4522
vt 0.2871 0.5211
vt 0.5365 0.3199
vt 0.6076 0.1914
vt 0.5758 0.3476
vt 0.2871 0.5211
vt 0.2551 0.5986
vt 0.1193 0.5365
vt 0.0072 0.4286
vt 0.2958 0.4522
vt 0.051 0.4692
vt 0.5758 0.3476
vt 0.7204 0.2285
vt 0.6788 0.3127
vt 0.6076 0.1914
vt 0.7204 0.2285
vt 0.5758 0.3476
vt 0.2551 0.5986
vt 0.1182 0.6023
vt 0.1193 0.5365
vt 0.0101 0.6144
vt 0.0014 0.6172
vt 0.0072 0.4286
vt 0.066 0.6126
vt 0.051 0.4692
vt 0.1182 0.6023
vt 0.0072 0.4286
vt 0.051 0.4692
vt 0.0101 0.6144
vt 0.6221 0.4235
vt 0.6341 0.4583
vt 0.6216 0.4898
vt 0.39 0.427
vt 0.3498 0.4858
vt 0.2958 0.4522
vt 0.6749 0.4906
vt 0.6722 0.4516
vt 0.7149 0.4778
vt 0.6749 0.4906
vt 0.6513 0.5041
vt 0.6722 0.4516
vt 0.6216 0.4898
vt 0.6341 0.4583
vt 0.6489 0.4692
vt 0.6341 0.4583
vt 0.6722 0.4516
vt 0.6489 0.4692
vt 0.6513 0.5041
vt 0.618 0.5189
vt 0.6216 0.4898
vt 0.6216 0.4898
vt 0.6489 0.4692
vt 0.6513 0.5041
vt 0.6722 0.4516
vt 0.6513 0.5041
vt 0.6489 0.4692
vt 0.051 0.4692
vt 0.066 0.6126
vt 0.0101 0.6144
vt 0.6788 0.3127
vt 0.7767 0.3113
vt 0.6722 0.4516
vt 0.6788 0.3127
vt 0.7733 0.2499
vt 0.7767 0.3113
vt 0.051 0.4692
vt 0.1193 0.5365
vt 0.1182 0.6023
vt 0.051 0.4692
vt 0.2871 0.5211
vt 0.1193 0.5365

# 912 Vertex Normals
vn -0.984129 0.109199 -0.13988
vn -0.706886 0.675442 -0.209975
vn -0.574604 0.35574 -0.737075
vn -0.984129 0.109199 -0.13988
vn -0.574604 0.35574 -0.737075
vn -0.757468 -0.228259 -0.61167
vn 0.007064 -0.564461 -0.82543
vn -0.757468 -0.228259 -0.61167
vn -0.574604 0.35574 -0.737075
vn 0.007064 -0.564461 -0.82543
vn -0.574604 0.35574 -0.737075
vn 0.294445 0.762446 -0.576175
vn -0.646324 -0.669398 0.366294
vn -0.984129 0.109199 -0.13988
vn -0.757468 -0.228259 -0.61167
vn -0.646324 -0.669398 0.366294
vn -0.757468 -0.228259 -0.61167
vn 0.007064 -0.564461 -0.82543
vn -0.706886 0.675442 -0.209975
vn -0.376049 0.679084 0.630423
vn 0.294445 0.762446 -0.576175
vn -0.706886 0.675442 -0.209975
vn 0.294445 0.762446 -0.576175
vn -0.574604 0.35574 -0.737075
vn -0.984129 0.109199 -0.13988
vn -0.646324 -0.669398 0.366294
vn -0.376049 0.679084 0.630423
vn -0.984129 0.109199 -0.13988
vn -0.376049 0.679084 0.630423
vn -0.706886 0.675442 -0.209975
vn 0.852277 -0.267594 0.449465
vn -0.646324 -0.669398 0.366294
vn 0.007064 -0.564461 -0.82543
vn 0.852277 -0.267594 0.449465
vn 0.007064 -0.564461 -0.82543
vn 0.294445 0.762446 -0.576175
vn 0.852277 -0.267594 0.449465
vn 0.294445 0.762446 -0.576175
vn -0.376049 0.679084 0.630423
vn 0.852277 -0.267594 0.449465
vn -0.376049 0.679084 0.630423
vn -0.646324 -0.669398 0.366294
vn 0.923467 0.17119 0.343371
vn 0.87528 -0.432421 0.216557
vn 0.923691 -0.171351 -0.342686
vn 0.923467 0.17119 0.343371
vn 0.923691 -0.171351 -0.342686
vn 0.875389 0.432379 -0.2162
vn 0.219594 0.53775 -0.814005
vn 0.875389 0.432379 -0.2162
vn 0.923691 -0.171351 -0.342686
vn 0.219594 0.53775 -0.814005
vn 0.923691 -0.171351 -0.342686
vn 0.220264 -0.813375 -0.538429
vn 0.220755 0.813317 0.538314
vn 0.923467 0.17119 0.343371
vn 0.875389 0.432379 -0.2162
vn 0.220755 0.813317 0.538314
vn 0.875389 0.432379 -0.2162
vn 0.219594 0.53775 -0.814005
vn 0.87528 -0.432421 0.216557
vn 0.220185 -0.537767 0.813834
vn 0.220264 -0.813375 -0.538429
vn 0.87528 -0.432421 0.216557
vn 0.220264 -0.813375 -0.538429
vn 0.923691 -0.171351 -0.342686
vn 0.923467 0.17119 0.343371
vn 0.220755 0.813317 0.538314
vn 0.220185 -0.537767 0.813834
vn 0.923467 0.17119 0.343371
vn 0.220185 -0.537767 0.813834
vn 0.87528 -0.432421 0.216557
vn -1.0 -0.000203 -0.000026
vn 0.220755 0.813317 0.538314
vn 0.219594 0.53775 -0.814005
vn -1.0 -0.000203 -0.000026
vn 0.219594 0.53775 -0.814005
vn 0.220264 -0.813375 -0.538429
vn -1.0 -0.000203 -0.000026
vn 0.220264 -0.813375 -0.538429
vn 0.220185 -0.537767 0.813834
vn -1.0 -0.000203 -0.000026
vn 0.220185 -0.537767 0.813834
vn 0.220755 0.813317 0.538314
vn 0.923853 0.171362 0.342244
vn 0.875097 -0.432995 0.21615
vn 0.923445 -0.171664 -0.343193
vn 0.923853 0.171362 0.342244
vn 0.923445 -0.171664 -0.343193
vn 0.875147 0.432586 -0.216765
vn 0.219954 0.537759 -0.813902
vn 0.875147 0.432586 -0.216765
vn 0.923445 -0.171664 -0.343193
vn 0.219954 0.537759 -0.813902
vn 0.923445 -0.171664 -0.343193
vn 0.219755 -0.813992 -0.537703
vn 0.219794 0.813762 0.538035
vn 0.923853 0.171362 0.342244
vn 0.875147 0.432586 -0.216765
vn 0.219794 0.813762 0.538035
vn 0.875147 0.432586 -0.216765
vn 0.219954 0.537759 -0.813902
vn 0.875097 -0.432995 0.21615
vn 0.219718 -0.538212 0.813666
vn 0.219755 -0.813992 -0.537703
vn 0.875097 -0.432995 0.21615
vn 0.219755 -0.813992 -0.537703
vn 0.923445 -0.171664 -0.343193
vn 0.923853 0.171362 0.342244
vn 0.219794 0.813762 0.538035
vn 0.219718 -0.538212 0.813666
vn 0.923853 0.171362 0.342244
vn 0.219718 -0.538212 0.813666
vn 0.875097 -0.432995 0.21615
vn -1.0 0.000041 0.000153
vn 0.219794 0.813762 0.538035
vn 0.219954 0.537759 -0.813902
vn -1.0 0.000041 0.000153
vn 0.219954 0.537759 -0.813902
vn 0.219755 -0.813992 -0.537703
vn -1.0 0.000041 0.000153
vn 0.219755 -0.813992 -0.537703
vn 0.219718 -0.538212 0.813666
vn -1.0 0.000041 0.000153
vn 0.219718 -0.538212 0.813666
vn 0.219794 0.813762 0.538035
vn 0.923808 0.171503 0.342295
vn 0.876272 -0.430686 0.216
vn 0.924282 -0.170906 -0.341312
vn 0.923808 0.171503 0.342295
vn 0.924282 -0.170906 -0.341312
vn 0.876144 0.431365 -0.215167
vn 0.221039 0.538022 -0.813433
vn 0.876144 0.431365 -0.215167
vn 0.924282 -0.170906 -0.341312
vn 0.221039 0.538022 -0.813433
vn 0.924282 -0.170906 -0.341312
vn 0.221077 -0.813375 -0.538094
vn 0.221004 0.813099 0.538542
vn 0.923808 0.171503 0.342295
vn 0.876144 0.431365 -0.215167
vn 0.221004 0.813099 0.538542
vn 0.876144 0.431365 -0.215167
vn 0.221039 0.538022 -0.813433
vn 0.876272 -0.430686 0.216
vn 0.221321 -0.537201 0.813899
vn 0.221077 -0.813375 -0.538094
vn 0.876272 -0.430686 0.216
vn 0.221077 -0.813375 -0.538094
vn 0.924282 -0.170906 -0.341312
vn 0.923808 0.171503 0.342295
vn 0.221004 0.813099 0.538542
vn 0.221321 -0.537201 0.813899
vn 0.923808 0.171503 0.342295
vn 0.221321 -0.537201 0.813899
vn 0.876272 -0.430686 0.216
vn -1.0 0.000043 0.000261
vn 0.221004 0.813099 0.538542
vn 0.221039 0.538022 -0.813433
vn -1.0 0.000043 0.000261
vn 0.221039 0.538022 -0.813433
vn 0.221077 -0.813375 -0.538094
vn -1.0 0.000043 0.000261
vn 0.221077 -0.813375 -0.538094
vn 0.221321 -0.537201 0.813899
vn -1.0 0.000043 0.000261
vn 0.221321 -0.537201 0.813899
vn 0.221004 0.813099 0.538542
vn 0.923535 0.171439 0.343062
vn 0.875403 -0.432006 0.216886
vn 0.924133 -0.170694 -0.341822
vn 0.923535 0.171439 0.343062
vn 0.924133 -0.170694 -0.341822
vn 0.875122 0.433055 -0.215927
vn 0.22009 0.538666 -0.813265
vn 0.875122 0.433055 -0.215927
vn 0.924133 -0.170694 -0.341822
vn 0.22009 0.538666 -0.813265
vn 0.924133 -0.170694 -0.341822
vn 0.220603 -0.813703 -0.537794
vn 0.220075 0.813753 0.537934
vn 0.923535 0.171439 0.343062
vn 0.875122 0.433055 -0.215927
vn 0.220075 0.813753 0.537934
vn 0.875122 0.433055 -0.215927
vn 0.22009 0.538666 -0.813265
vn 0.875403 -0.432006 0.216886
vn 0.220193 -0.537599 0.813943
vn 0.220603 -0.813703 -0.537794
vn 0.875403 -0.432006 0.216886
vn 0.220603 -0.813703 -0.537794
vn 0.924133 -0.170694 -0.341822
vn 0.923535 0.171439 0.343062
vn 0.220075 0.813753 0.537934
vn 0.220193 -0.537599 0.813943
vn 0.923535 0.171439 0.343062
vn 0.220193 -0.537599 0.813943
vn 0.875403 -0.432006 0.216886
vn -1.0 0.00015 0.000088
vn 0.220075 0.813753 0.537934
vn 0.22009 0.538666 -0.813265
vn -1.0 0.00015 0.000088
vn 0.22009 0.538666 -0.813265
vn 0.220603 -0.813703 -0.537794
vn -1.0 0.00015 0.000088
vn 0.220603 -0.813703 -0.537794
vn 0.220193 -0.537599 0.813943
vn -1.0 0.00015 0.000088
vn 0.220193 -0.537599 0.813943
vn 0.220075 0.813753 0.537934
vn 0.79212 0.176274 -0.584357
vn 0.660171 -0.432213 -0.614301
vn 0.219326 -0.16712 -0.961232
vn 0.79212 0.176274 -0.584357
vn 0.219326 -0.16712 -0.961232
vn 0.297188 0.436168 -0.849374
vn -0.550764 0.539647 -0.636741
vn 0.297188 0.436168 -0.849374
vn 0.219326 -0.16712 -0.961232
vn -0.550764 0.539647 -0.636741
vn 0.219326 -0.16712 -0.961232
vn -0.326368 -0.810749 -0.485973
vn 0.55936 0.819623 0.123831
vn 0.79212 0.176274 -0.584357
vn 0.297188 0.436168 -0.849374
vn 0.55936 0.819623 0.123831
vn 0.297188 0.436168 -0.849374
vn -0.550764 0.539647 -0.636741
vn 0.660171 -0.432213 -0.614301
vn 0.794921 -0.538153 0.280165
vn -0.326368 -0.810749 -0.485973
vn 0.660171 -0.432213 -0.614301
vn -0.326368 -0.810749 -0.485973
vn 0.219326 -0.16712 -0.961232
vn 0.79212 0.176274 -0.584357
vn 0.55936 0.819623 0.123831
vn 0.794921 -0.538153 0.280165
vn 0.79212 0.176274 -0.584357
vn 0.794921 -0.538153 0.280165
vn 0.660171 -0.432213 -0.614301
vn -0.558669 -0.000295 0.829391
vn 0.55936 0.819623 0.123831
vn -0.550764 0.539647 -0.636741
vn -0.558669 -0.000295 0.829391
vn -0.550764 0.539647 -0.636741
vn -0.326368 -0.810749 -0.485973
vn -0.558669 -0.000295 0.829391
vn -0.326368 -0.810749 -0.485973
vn 0.794921 -0.538153 0.280165
vn -0.558669 -0.000295 0.829391
vn 0.794921 -0.538153 0.280165
vn 0.55936 0.819623 0.123831
vn 0.923671 0.1713 0.342764
vn 0.875509 -0.432128 0.216215
vn 0.923796 -0.171208 -0.342473
vn 0.923671 0.1713 0.342764
vn 0.923796 -0.171208 -0.342473
vn 0.87527 0.43252 -0.216399
vn 0.219687 0.537551 -0.814111
vn 0.87527 0.43252 -0.216399
vn 0.923796 -0.171208 -0.342473
vn 0.219687 0.537551 -0.814111
vn 0.923796 -0.171208 -0.342473
vn 0.220525 -0.813374 -0.538323
vn 0.219788 0.81383 0.537935
vn 0.923671 0.1713 0.342764
vn 0.87527 0.43252 -0.216399
vn 0.219788 0.81383 0.537935
vn 0.87527 0.43252 -0.216399
vn 0.219687 0.537551 -0.814111
vn 0.875509 -0.432128 0.216215
vn 0.22006 -0.538244 0.813552
vn 0.220525 -0.813374 -0.538323
vn 0.875509 -0.432128 0.216215
vn 0.220525 -0.813374 -0.538323
vn 0.923796 -0.171208 -0.342473
vn 0.923671 0.1713 0.342764
vn 0.219788 0.81383 0.537935
vn 0.22006 -0.538244 0.813552
vn 0.923671 0.1713 0.342764
vn 0.22006 -0.538244 0.813552
vn 0.875509 -0.432128 0.216215
vn -1.0 -0.00015 -0.000092
vn 0.219788 0.81383 0.537935
vn 0.219687 0.537551 -0.814111
vn -1.0 -0.00015 -0.000092
vn 0.219687 0.537551 -0.814111
vn 0.220525 -0.813374 -0.538323
vn -1.0 -0.00015 -0.000092
vn 0.220525 -0.813374 -0.538323
vn 0.22006 -0.538244 0.813552
vn -1.0 -0.00015 -0.000092
vn 0.22006 -0.538244 0.813552
vn 0.219788 0.81383 0.537935
vn -0.719875 0.337569 0.606488
vn 0.023174 -0.578539 0.815325
vn 0.487162 0.054505 0.871609
vn -0.053799 0.831149 0.553441
vn 0.487162 0.054505 0.871609
vn 0.5416 0.648063 0.535429
vn -0.249867 0.781386 0.571841
vn -0.719875 0.337569 0.606488
vn 0.487162 0.054505 0.871609
vn -0.719875 0.337569 0.606488
vn -0.410784 -0.769984 0.488242
vn 0.023174 -0.578539 0.815325
vn 0.487162 0.054505 0.871609
vn 0.023174 -0.578539 0.815325
vn 0.464408 -0.788656 0.402923
vn 0.338922 -0.488588 -0.803998
vn -0.437055 -0.788534 -0.432663
vn -0.511753 0.510188 -0.691243
vn 0.338922 -0.488588 -0.803998
vn -0.511753 0.510188 -0.691243
vn 0.543622 0.501539 -0.673004
vn -0.119898 0.905468 -0.407127
vn 0.731918 0.422337 -0.534723
vn -0.511753 0.510188 -0.691243
vn 0.731918 0.422337 -0.534723
vn 0.543622 0.501539 -0.673004
vn -0.511753 0.510188 -0.691243
vn -0.119898 0.905468 -0.407127
vn 0.381237 0.895845 -0.228298
vn 0.731918 0.422337 -0.534723
vn 0.8636 -0.368832 -0.343739
vn 0.338922 -0.488588 -0.803998
vn 0.543622 0.501539 -0.673004
vn 0.731918 0.422337 -0.534723
vn 0.8636 -0.368832 -0.343739
vn 0.543622 0.501539 -0.673004
vn 0.808751 0.558113 -0.185556
vn 0.731918 0.422337 -0.534723
vn 0.381237 0.895845 -0.228298
vn 0.945009 -0.240132 -0.222026
vn 0.8636 -0.368832 -0.343739
vn 0.731918 0.422337 -0.534723
vn -0.511753 0.510188 -0.691243
vn -0.719875 0.337569 0.606488
vn -0.119898 0.905468 -0.407127
vn 0.808751 0.558113 -0.185556
vn 0.945009 -0.240132 -0.222026
vn 0.731918 0.422337 -0.534723
vn -0.119898 0.905468 -0.407127
vn -0.719875 0.337569 0.606488
vn -0.249867 0.781386 0.571841
vn 0.381237 0.895845 -0.228298
vn -0.119898 0.905468 -0.407127
vn -0.249867 0.781386 0.571841
vn 0.8636 -0.368832 -0.343739
vn 0.945009 -0.240132 -0.222026
vn 0.048254 -0.998458 0.027456
vn 0.048254 -0.998458 0.027456
vn 0.338922 -0.488588 -0.803998
vn 0.8636 -0.368832 -0.343739
vn -0.437055 -0.788534 -0.432663
vn 0.338922 -0.488588 -0.803998
vn 0.048254 -0.998458 0.027456
vn 0.487162 0.054505 0.871609
vn 0.945009 -0.240132 -0.222026
vn 0.808751 0.558113 -0.185556
vn -0.437055 -0.788534 -0.432663
vn 0.048254 -0.998458 0.027456
vn -0.869469 -0.49358 0.020054
vn -0.869469 -0.49358 0.020054
vn -0.511753 0.510188 -0.691243
vn -0.437055 -0.788534 -0.432663
vn 0.381237 0.895845 -0.228298
vn -0.053799 0.831149 0.553441
vn 0.808751 0.558113 -0.185556
vn 0.487162 0.054505 0.871609
vn 0.464408 -0.788656 0.402923
vn 0.945009 -0.240132 -0.222026
vn -0.719875 0.337569 0.606488
vn -0.511753 0.510188 -0.691243
vn -0.869469 -0.49358 0.020054
vn -0.053799 0.831149 0.553441
vn 0.381237 0.895845 -0.228298
vn -0.249867 0.781386 0.571841
vn 0.487162 0.054505 0.871609
vn 0.808751 0.558113 -0.185556
vn 0.5416 0.648063 0.535429
vn 0.945009 -0.240132 -0.222026
vn 0.464408 -0.788656 0.402923
vn 0.048254 -0.998458 0.027456
vn 0.464408 -0.788656 0.402923
vn 0.023174 -0.578539 0.815325
vn 0.048254 -0.998458 0.027456
vn -0.410784 -0.769984 0.488242
vn 0.048254 -0.998458 0.027456
vn 0.023174 -0.578539 0.815325
vn 0.048254 -0.998458 0.027456
vn -0.410784 -0.769984 0.488242
vn -0.869469 -0.49358 0.020054
vn -0.869469 -0.49358 0.020054
vn -0.410784 -0.769984 0.488242
vn -0.719875 0.337569 0.606488
vn 0.808751 0.558113 -0.185556
vn -0.053799 0.831149 0.553441
vn 0.5416 0.648063 0.535429
vn -0.249867 0.781386 0.571841
vn 0.487162 0.054505 0.871609
vn -0.053799 0.831149 0.553441
vn 0.973887 -0.212281 0.080511
vn 0.867859 -0.496631 -0.013316
vn -0.36073 -0.922836 0.135085
vn 0.849062 -0.517163 0.107873
vn 0.973887 -0.212281 0.080511
vn -0.36073 -0.922836 0.135085
vn 0.867859 -0.496631 -0.013316
vn -0.656427 -0.732684 0.17966
vn -0.36073 -0.922836 0.135085
vn 0.867859 -0.496631 -0.013316
vn 0.760781 -0.617736 0.199035
vn -0.656427 -0.732684 0.17966
vn 0.760781 -0.617736 0.199035
vn -0.54095 -0.459841 0.704215
vn -0.656427 -0.732684 0.17966
vn 0.849062 -0.517163 0.107873
vn -0.36073 -0.922836 0.135085
vn -0.434936 -0.865975 -0.246816
vn -0.36073 -0.922836 0.135085
vn -0.863725 -0.297636 0.406684
vn -0.434936 -0.865975 -0.246816
vn -0.54095 -0.459841 0.704215
vn 0.760781 -0.617736 0.199035
vn 0.478351 -0.158933 0.863667
vn 0.867859 -0.496631 -0.013316
vn 0.552006 0.818037 0.161568
vn 0.760781 -0.617736 0.199035
vn 0.867859 -0.496631 -0.013316
vn 0.973887 -0.212281 0.080511
vn 0.625056 0.774598 0.096458
vn 0.760781 -0.617736 0.199035
vn 0.441781 0.670198 0.596376
vn 0.478351 -0.158933 0.863667
vn 0.867859 -0.496631 -0.013316
vn 0.625056 0.774598 0.096458
vn 0.552006 0.818037 0.161568
vn 0.461775 0.229947 -0.856673
vn 0.44745 0.866171 -0.222569
vn 0.849062 -0.517163 0.107873
vn 0.552006 0.818037 0.161568
vn 0.441781 0.670198 0.596376
vn 0.760781 -0.617736 0.199035
vn 0.973887 -0.212281 0.080511
vn 0.526074 0.846682 0.079849
vn 0.625056 0.774598 0.096458
vn 0.526074 0.846682 0.079849
vn 0.973887 -0.212281 0.080511
vn 0.849062 -0.517163 0.107873
vn 0.526074 0.846682 0.079849
vn 0.849062 -0.517163 0.107873
vn 0.44745 0.866171 -0.222569
vn -0.631234 0.643608 -0.432796
vn 0.461775 0.229947 -0.856673
vn -0.434936 -0.865975 -0.246816
vn -0.621998 0.593558 0.510693
vn -0.54095 -0.459841 0.704215
vn 0.441781 0.670198 0.596376
vn -0.621998 0.593558 0.510693
vn 0.441781 0.670198 0.596376
vn 0.552006 0.818037 0.161568
vn 0.526074 0.846682 0.079849
vn -0.477174 0.871863 0.110269
vn 0.625056 0.774598 0.096458
vn -0.736668 0.580368 0.347121
vn -0.477174 0.871863 0.110269
vn 0.526074 0.846682 0.079849
vn 0.44745 0.866171 -0.222569
vn -0.736668 0.580368 0.347121
vn 0.526074 0.846682 0.079849
vn -0.631234 0.643608 -0.432796
vn -0.736668 0.580368 0.347121
vn 0.44745 0.866171 -0.222569
vn 0.478351 -0.158933 0.863667
vn 0.441781 0.670198 0.596376
vn -0.54095 -0.459841 0.704215
vn 0.552006 0.818037 0.161568
vn -0.477174 0.871863 0.110269
vn -0.621998 0.593558 0.510693
vn 0.625056 0.774598 0.096458
vn -0.477174 0.871863 0.110269
vn 0.552006 0.818037 0.161568
vn -0.631234 0.643608 -0.432796
vn -0.863725 -0.297636 0.406684
vn -0.736668 0.580368 0.347121
vn -0.434936 -0.865975 -0.246816
vn -0.863725 -0.297636 0.406684
vn -0.631234 0.643608 -0.432796
vn -0.656427 -0.732684 0.17966
vn -0.621998 0.593558 0.510693
vn -0.477174 0.871863 0.110269
vn -0.656427 -0.732684 0.17966
vn -0.477174 0.871863 0.110269
vn -0.736668 0.580368 0.347121
vn -0.36073 -0.922836 0.135085
vn -0.736668 0.580368 0.347121
vn -0.863725 -0.297636 0.406684
vn -0.656427 -0.732684 0.17966
vn -0.54095 -0.459841 0.704215
vn -0.621998 0.593558 0.510693
vn -0.36073 -0.922836 0.135085
vn -0.656427 -0.732684 0.17966
vn -0.736668 0.580368 0.347121
vn -0.631234 0.643608 -0.432796
vn 0.44745 0.866171 -0.222569
vn 0.461775 0.229947 -0.856673
vn 0.849062 -0.517163 0.107873
vn -0.434936 -0.865975 -0.246816
vn 0.461775 0.229947 -0.856673
vn -0.030526 0.944574 0.326877
vn -0.437004 -0.016752 0.899304
vn 0.399348 0.774465 0.490638
vn -0.030526 0.944574 0.326877
vn -0.658015 0.466494 0.5911
vn -0.437004 -0.016752 0.899304
vn 0.399348 0.774465 0.490638
vn -0.437004 -0.016752 0.899304
vn 0.694025 0.137373 0.706724
vn 0.44457 0.87542 0.189729
vn -0.030526 0.944574 0.326877
vn 0.399348 0.774465 0.490638
vn 0.455126 -0.189683 -0.869989
vn -0.467557 0.289869 -0.835085
vn 0.564999 0.699372 -0.437784
vn -0.163666 0.759223 -0.629916
vn 0.564999 0.699372 -0.437784
vn -0.467557 0.289869 -0.835085
vn -0.467557 0.289869 -0.835085
vn 0.455126 -0.189683 -0.869989
vn -0.486386 -0.869779 0.083149
vn 0.564999 0.699372 -0.437784
vn -0.163666 0.759223 -0.629916
vn 0.193752 0.945226 -0.262692
vn 0.193752 0.945226 -0.262692
vn -0.163666 0.759223 -0.629916
vn 0.030438 0.991724 -0.124725
vn -0.833273 0.552483 0.020438
vn -0.163666 0.759223 -0.629916
vn -0.467557 0.289869 -0.835085
vn 0.670716 0.731736 0.121254
vn 0.564999 0.699372 -0.437784
vn 0.193752 0.945226 -0.262692
vn 0.927024 -0.317755 0.199143
vn 0.455126 -0.189683 -0.869989
vn 0.564999 0.699372 -0.437784
vn -0.833273 0.552483 0.020438
vn 0.030438 0.991724 -0.124725
vn -0.163666 0.759223 -0.629916
vn 0.927024 -0.317755 0.199143
vn 0.564999 0.699372 -0.437784
vn 0.670716 0.731736 0.121254
vn 0.455126 -0.189683 -0.869989
vn 0.927024 -0.317755 0.199143
vn -0.486386 -0.869779 0.083149
vn -0.486386 -0.869779 0.083149
vn -0.833273 0.552483 0.020438
vn -0.467557 0.289869 -0.835085
vn 0.670716 0.731736 0.121254
vn 0.193752 0.945226 -0.262692
vn 0.030438 0.991724 -0.124725
vn 0.822228 -0.541468 0.175367
vn -0.486386 -0.869779 0.083149
vn 0.927024 -0.317755 0.199143
vn -0.700417 0.563359 0.438228
vn 0.030438 0.991724 -0.124725
vn -0.833273 0.552483 0.020438
vn 0.44457 0.87542 0.189729
vn 0.670716 0.731736 0.121254
vn 0.030438 0.991724 -0.124725
vn 0.822228 -0.541468 0.175367
vn 0.927024 -0.317755 0.199143
vn 0.670716 0.731736 0.121254
vn -0.590496 -0.736713 0.329497
vn -0.486386 -0.869779 0.083149
vn 0.822228 -0.541468 0.175367
vn -0.030526 0.944574 0.326877
vn 0.030438 0.991724 -0.124725
vn -0.700417 0.563359 0.438228
vn 0.822228 -0.541468 0.175367
vn 0.670716 0.731736 0.121254
vn 0.44457 0.87542 0.189729
vn -0.486386 -0.869779 0.083149
vn -0.700417 0.563359 0.438228
vn -0.833273 0.552483 0.020438
vn 0.822228 -0.541468 0.175367
vn 0.694025 0.137373 0.706724
vn -0.437004 -0.016752 0.899304
vn 0.44457 0.87542 0.189729
vn 0.030438 0.991724 -0.124725
vn -0.030526 0.944574 0.326877
vn 0.822228 -0.541468 0.175367
vn 0.399348 0.774465 0.490638
vn 0.694025 0.137373 0.706724
vn 0.822228 -0.541468 0.175367
vn -0.437004 -0.016752 0.899304
vn -0.590496 -0.736713 0.329497
vn -0.658015 0.466494 0.5911
vn -0.030526 0.944574 0.326877
vn -0.700417 0.563359 0.438228
vn 0.399348 0.774465 0.490638
vn 0.822228 -0.541468 0.175367
vn 0.44457 0.87542 0.189729
vn -0.486386 -0.869779 0.083149
vn -0.590496 -0.736713 0.329497
vn -0.700417 0.563359 0.438228
vn -0.437004 -0.016752 0.899304
vn -0.658015 0.466494 0.5911
vn -0.590496 -0.736713 0.329497
vn -0.700417 0.563359 0.438228
vn -0.590496 -0.736713 0.329497
vn -0.658015 0.466494 0.5911
vn -0.825809 0.31803 -0.46572
vn -0.790469 -0.600326 -0.121525
vn -0.808426 0.577852 -0.11196
vn -0.808426 0.577852 -0.11196
vn -0.790469 -0.600326 -0.121525
vn -0.828751 0.557742 0.045778
vn -0.790469 -0.600326 -0.121525
vn -0.80718 0.274611 0.522542
vn -0.626669 0.561673 0.540194
vn -0.828751 0.557742 0.045778
vn -0.790469 -0.600326 -0.121525
vn -0.626669 0.561673 0.540194
vn -0.121567 0.801218 -0.585893
vn -0.695606 -0.676099 -0.242946
vn -0.825809 0.31803 -0.46572
vn 0.106682 -0.757572 -0.643975
vn -0.695606 -0.676099 -0.242946
vn -0.717976 0.144269 -0.680953
vn -0.695606 -0.676099 -0.242946
vn -0.790469 -0.600326 -0.121525
vn -0.825809 0.31803 -0.46572
vn -0.790469 -0.600326 -0.121525
vn -0.668657 -0.73888 -0.083395
vn -0.80718 0.274611 0.522542
vn -0.121567 0.801218 -0.585893
vn -0.825809 0.31803 -0.46572
vn 0.175539 0.879164 -0.443009
vn -0.717976 0.144269 -0.680953
vn -0.695606 -0.676099 -0.242946
vn -0.121567 0.801218 -0.585893
vn -0.433839 0.223721 0.872773
vn -0.668657 -0.73888 -0.083395
vn -0.391216 -0.282673 0.875812
vn -0.668657 -0.73888 -0.083395
vn -0.433839 0.223721 0.872773
vn -0.956896 -0.138399 0.255334
vn -0.80718 0.274611 0.522542
vn -0.668657 -0.73888 -0.083395
vn -0.956896 -0.138399 0.255334
vn 0.349778 0.720639 0.598611
vn -0.121567 0.801218 -0.585893
vn 0.294709 0.948556 0.115708
vn 0.671253 0.64025 -0.373496
vn -0.121567 0.801218 -0.585893
vn 0.349778 0.720639 0.598611
vn 0.457269 -0.861486 0.220788
vn 0.671253 0.64025 -0.373496
vn 0.349778 0.720639 0.598611
vn 0.175539 0.879164 -0.443009
vn 0.294709 0.948556 0.115708
vn -0.121567 0.801218 -0.585893
vn 0.106682 -0.757572 -0.643975
vn 0.671253 0.64025 -0.373496
vn 0.457269 -0.861486 0.220788
vn 0.175539 0.879164 -0.443009
vn -0.825809 0.31803 -0.46572
vn 0.294709 0.948556 0.115708
vn -0.825809 0.31803 -0.46572
vn -0.808426 0.577852 -0.11196
vn 0.294709 0.948556 0.115708
vn -0.828751 0.557742 0.045778
vn -0.626669 0.561673 0.540194
vn 0.294709 0.948556 0.115708
vn 0.349778 0.720639 0.598611
vn 0.294709 0.948556 0.115708
vn -0.626669 0.561673 0.540194
vn 0.457269 -0.861486 0.220788
vn 0.349778 0.720639 0.598611
vn -0.391216 -0.282673 0.875812
vn -0.668657 -0.73888 -0.083395
vn -0.790469 -0.600326 -0.121525
vn 0.457269 -0.861486 0.220788
vn -0.828751 0.557742 0.045778
vn 0.294709 0.948556 0.115708
vn -0.808426 0.577852 -0.11196
vn -0.80718 0.274611 0.522542
vn 0.349778 0.720639 0.598611
vn -0.626669 0.561673 0.540194
vn -0.433839 0.223721 0.872773
vn 0.349778 0.720639 0.598611
vn -0.80718 0.274611 0.522542
vn -0.391216 -0.282673 0.875812
vn 0.349778 0.720639 0.598611
vn -0.433839 0.223721 0.872773
vn 0.457269 -0.861486 0.220788
vn -0.391216 -0.282673 0.875812
vn -0.668657 -0.73888 -0.083395
vn -0.790469 -0.600326 -0.121525
vn -0.695606 -0.676099 -0.242946
vn 0.457269 -0.861486 0.220788
vn 0.106682 -0.757572 -0.643975
vn 0.457269 -0.861486 0.220788
vn -0.695606 -0.676099 -0.242946
vn -0.717976 0.144269 -0.680953
vn 0.671253 0.64025 -0.373496
vn 0.106682 -0.757572 -0.643975
vn -0.717976 0.144269 -0.680953
vn -0.121567 0.801218 -0.585893
vn 0.671253 0.64025 -0.373496
vn -0.80718 0.274611 0.522542
vn -0.956896 -0.138399 0.255334
vn -0.433839 0.223721 0.872773
vn -0.581102 -0.800072 -0.149014
vn 0.694429 -0.344765 -0.631589
vn -0.070903 -0.907267 -0.414535
vn -0.581102 -0.800072 -0.149014
vn 0.034569 0.288365 -0.956896
vn 0.694429 -0.344765 -0.631589
vn -0.924319 -0.165899 -0.343675
vn 0.034569 0.288365 -0.956896
vn -0.581102 -0.800072 -0.149014
vn -0.070903 -0.907267 -0.414535
vn 0.694429 -0.344765 -0.631589
vn 0.7977 -0.598164 0.076646
vn 0.644624 0.128418 -0.753637
vn 0.493748 0.867974 -0.053243
vn 0.694429 -0.344765 -0.631589
vn 0.034569 0.288365 -0.956896
vn 0.644624 0.128418 -0.753637
vn 0.694429 -0.344765 -0.631589
vn 0.694429 -0.344765 -0.631589
vn 0.615824 0.761143 0.203522
vn 0.863964 0.393532 0.314162
vn 0.694429 -0.344765 -0.631589
vn 0.493748 0.867974 -0.053243
vn 0.615824 0.761143 0.203522
vn -0.581102 -0.800072 -0.149014
vn -0.779424 0.367989 0.507032
vn -0.47281 0.861391 0.185624
vn 0.95769 -0.047357 0.283878
vn 0.615824 0.761143 0.203522
vn 0.486621 0.830742 0.270311
vn 0.7977 -0.598164 0.076646
vn 0.863964 0.393532 0.314162
vn 0.615824 0.761143 0.203522
vn 0.7977 -0.598164 0.076646
vn 0.694429 -0.344765 -0.631589
vn 0.863964 0.393532 0.314162
vn -0.581102 -0.800072 -0.149014
vn -0.47281 0.861391 0.185624
vn -0.924319 -0.165899 -0.343675
vn -0.330945 -0.919254 0.213186
vn -0.779424 0.367989 0.507032
vn -0.581102 -0.800072 -0.149014
vn -0.330945 -0.919254 0.213186
vn -0.399088 -0.596819 0.696086
vn -0.779424 0.367989 0.507032
vn 0.95769 -0.047357 0.283878
vn 0.7977 -0.598164 0.076646
vn 0.615824 0.761143 0.203522
vn -0.779424 0.367989 0.507032
vn -0.399088 -0.596819 0.696086
vn 0.347912 0.664699 0.66116
vn 0.486621 0.830742 0.270311
vn 0.347912 0.664699 0.66116
vn 0.95769 -0.047357 0.283878
vn -0.779424 0.367989 0.507032
vn 0.347912 0.664699 0.66116
vn 0.486621 0.830742 0.270311
vn -0.070903 -0.907267 -0.414535
vn -0.330945 -0.919254 0.213186
vn -0.581102 -0.800072 -0.149014
vn 0.7977 -0.598164 0.076646
vn 0.95769 -0.047357 0.283878
vn -0.330945 -0.919254 0.213186
vn -0.070903 -0.907267 -0.414535
vn 0.7977 -0.598164 0.076646
vn -0.330945 -0.919254 0.213186
vn -0.399088 -0.596819 0.696086
vn -0.330945 -0.919254 0.213186
vn 0.95769 -0.047357 0.283878
vn 0.347912 0.664699 0.66116
vn -0.399088 -0.596819 0.696086
vn 0.95769 -0.047357 0.283878
vn -0.924319 -0.165899 -0.343675
vn -0.47281 0.861391 0.185624
vn 0.034569 0.288365 -0.956896
vn 0.486621 0.830742 0.270311
vn 0.615824 0.761143 0.203522
vn -0.779424 0.367989 0.507032
vn -0.47281 0.861391 0.185624
vn 0.493748 0.867974 -0.053243
vn 0.034569 0.288365 -0.956896
vn 0.615824 0.761143 0.203522
vn 0.493748 0.867974 -0.053243
vn -0.47281 0.861391 0.185624
vn -0.779424 0.367989 0.507032
vn 0.615824 0.761143 0.203522
vn -0.47281 0.861391 0.185624
vn 0.493748 0.867974 -0.053243
vn 0.644624 0.128418 -0.753637
vn 0.034569 0.288365 -0.956896
vn -0.378988 0.4825 -0.789659
vn -0.414115 0.743671 -0.524845
vn 0.387292 0.312646 -0.867328
vn -0.02889 -0.339571 -0.940137
vn 0.387292 0.312646 -0.867328
vn 0.182811 -0.584284 -0.790691
vn 0.182811 -0.584284 -0.790691
vn 0.387292 0.312646 -0.867328
vn 0.675806 0.465325 -0.571629
vn 0.359566 0.851161 -0.38241
vn 0.387292 0.312646 -0.867328
vn -0.414115 0.743671 -0.524845
vn -0.02889 -0.339571 -0.940137
vn -0.431091 -0.763756 -0.480455
vn -0.731454 0.441615 -0.519568
vn 0.182811 -0.584284 -0.790691
vn 0.885767 -0.228829 -0.4038
vn 0.008647 -0.999473 -0.031283
vn 0.439563 0.828095 0.347912
vn 0.077793 0.504802 0.859723
vn 0.804616 0.58575 -0.097415
vn 0.077793 0.504802 0.859723
vn 0.000143 -0.594797 0.803876
vn 0.57552 -0.406995 0.709318
vn 0.885767 -0.228829 -0.4038
vn 0.57552 -0.406995 0.709318
vn 0.008647 -0.999473 -0.031283
vn 0.008647 -0.999473 -0.031283
vn -0.02889 -0.339571 -0.940137
vn 0.182811 -0.584284 -0.790691
vn 0.077793 0.504802 0.859723
vn -0.657522 -0.254807 0.70904
vn 0.000143 -0.594797 0.803876
vn 0.000143 -0.594797 0.803876
vn 0.008647 -0.999473 -0.031283
vn 0.57552 -0.406995 0.709318
vn -0.509566 0.753624 0.415204
vn 0.077793 0.504802 0.859723
vn 0.439563 0.828095 0.347912
vn 0.000143 -0.594797 0.803876
vn -0.657522 -0.254807 0.70904
vn 0.008647 -0.999473 -0.031283
vn 0.439563 0.828095 0.347912
vn 0.359566 0.851161 -0.38241
vn -0.188491 0.935374 0.299244
vn -0.657522 -0.254807 0.70904
vn 0.077793 0.504802 0.859723
vn -0.509566 0.753624 0.415204
vn 0.008647 -0.999473 -0.031283
vn -0.431091 -0.763756 -0.480455
vn -0.02889 -0.339571 -0.940137
vn -0.657522 -0.254807 0.70904
vn -0.431091 -0.763756 -0.480455
vn 0.008647 -0.999473 -0.031283
vn 0.359566 0.851161 -0.38241
vn -0.414115 0.743671 -0.524845
vn -0.188491 0.935374 0.299244
vn -0.731454 0.441615 -0.519568
vn -0.431091 -0.763756 -0.480455
vn -0.657522 -0.254807 0.70904
vn -0.378988 0.4825 -0.789659
vn -0.509566 0.753624 0.415204
vn -0.414115 0.743671 -0.524845
vn -0.657522 -0.254807 0.70904
vn -0.509566 0.753624 0.415204
vn -0.731454 0.441615 -0.519568
vn 0.182811 -0.584284 -0.790691
vn 0.675806 0.465325 -0.571629
vn 0.885767 -0.228829 -0.4038
vn 0.57552 -0.406995 0.709318
vn 0.804616 0.58575 -0.097415
vn 0.077793 0.504802 0.859723
vn 0.439563 0.828095 0.347912
vn 0.387292 0.312646 -0.867328
vn 0.359566 0.851161 -0.38241
vn 0.439563 0.828095 0.347912
vn 0.804616 0.58575 -0.097415
vn 0.387292 0.312646 -0.867328
vn 0.885767 -0.228829 -0.4038
vn 0.675806 0.465325 -0.571629
vn 0.756116 0.56275 -0.334066
vn 0.675806 0.465325 -0.571629
vn 0.387292 0.312646 -0.867328
vn 0.756116 0.56275 -0.334066
vn 0.804616 0.58575 -0.097415
vn 0.57552 -0.406995 0.709318
vn 0.885767 -0.228829 -0.4038
vn 0.885767 -0.228829 -0.4038
vn 0.756116 0.56275 -0.334066
vn 0.804616 0.58575 -0.097415
vn 0.387292 0.312646 -0.867328
vn 0.804616 0.58575 -0.097415
vn 0.756116 0.56275 -0.334066
vn -0.509566 0.753624 0.415204
vn -0.378988 0.4825 -0.789659
vn -0.731454 0.441615 -0.519568
vn -0.02889 -0.339571 -0.940137
vn -0.378988 0.4825 -0.789659
vn 0.387292 0.312646 -0.867328
vn -0.02889 -0.339571 -0.940137
vn -0.731454 0.441615 -0.519568
vn -0.378988 0.4825 -0.789659
vn -0.509566 0.753624 0.415204
vn -0.188491 0.935374 0.299244
vn -0.414115 0.743671 -0.524845
vn -0.509566 0.753624 0.415204
vn 0.439563 0.828095 0.347912
vn -0.188491 0.935374 0.299244

# Bone1, 14 grouped triangles

o Bone1
g Bone1

f 1/1/1 2/2/2 3/3/3
f 1/4/4 3/5/5 4/6/6
f 5/7/7 4/8/8 3/9/9
f 5/10/10 3/11/11 6/12/12
f 7/13/13 1/14/14 4/15/15
f 7/16/16 4/17/17 5/18/18
f 2/19/19 8/20/20 6/21/21
f 2/22/22 6/23/23 3/24/24
f 1/25/25 7/26/26 8/27/27
f 1/28/28 8/29/29 2/30/30
f 9/31/31 7/32/32 5/33/33
f 9/34/34 5/35/35 6/36/36
f 9/37/37 6/38/38 8/39/39
f 9/40/40 8/41/41 7/42/42
# Bone2, 14 grouped triangles

o Bone2
g Bone2

f 10/43/43 11/44/44 12/45/45
f 10/46/46 12/47/47 13/48/48
f 14/49/49 13/50/50 12/51/51
f 14/52/52 12/53/53 15/54/54
f 16/55/55 10/56/56 13/57/57
f 16/58/58 13/59/59 14/60/60
f 11/61/61 17/62/62 15/63/63
f 11/64/64 15/65/65 12/66/66
f 10/67/67 16/68/68 17/69/69
f 10/70/70 17/71/71 11/72/72
f 18/73/73 16/74/74 14/75/75
f 18/76/76 14/77/77 15/78/78
f 18/79/79 15/80/80 17/81/81
f 18/82/82 17/83/83 16/84/84
# Bone3, 14 grouped triangles

o Bone3
g Bone3

f 19/85/85 20/86/86 21/87/87
f 19/88/88 21/89/89 22/90/90
f 23/91/91 22/92/92 21/93/93
f 23/94/94 21/95/95 24/96/96
f 25/97/97 19/98/98 22/99/99
f 25/100/100 22/101/101 23/102/102
f 20/103/103 26/104/104 24/105/105
f 20/106/106 24/107/107 21/108/108
f 19/109/109 25/110/110 26/111/111
f 19/112/112 26/113/113 20/114/114
f 27/115/115 25/116/116 23/117/117
f 27/118/118 23/119/119 24/120/120
f 27/121/121 24/122/122 26/123/123
f 27/124/124 26/125/125 25/126/126
# Bone4, 14 grouped triangles

o Bone4
g Bone4

f 28/127/127 29/128/128 30/129/129
f 28/130/130 30/131/131 31/132/132
f 32/133/133 31/134/134 30/135/135
f 32/136/136 30/137/137 33/138/138
f 34/139/139 28/140/140 31/141/141
f 34/142/142 31/143/143 32/144/144
f 29/145/145 35/146/146 33/147/147
f 29/148/148 33/149/149 30/150/150
f 28/151/151 34/152/152 35/153/153
f 28/154/154 35/155/155 29/156/156
f 36/157/157 34/158/158 32/159/159
f 36/160/160 32/161/161 33/162/162
f 36/163/163 33/164/164 35/165/165
f 36/166/166 35/167/167 34/168/168
# Bone5, 14 grouped triangles

o Bone5
g Bone5

f 37/169/169 38/170/170 39/171/171
f 37/172/172 39/173/173 40/174/174
f 41/175/175 40/176/176 39/177/177
f 41/178/178 39/179/179 42/180/180
f 43/181/181 37/182/182 40/183/183
f 43/184/184 40/185/185 41/186/186
f 38/187/187 44/188/188 42/189/189
f 38/190/190 42/191/191 39/192/192
f 37/193/193 43/194/194 44/195/195
f 37/196/196 44/197/197 38/198/198
f 45/199/199 43/200/200 41/201/201
f 45/202/202 41/203/203 42/204/204
f 45/205/205 42/206/206 44/207/207
f 45/208/208 44/209/209 43/210/210
# Bone6, 14 grouped triangles

o Bone6
g Bone6

f 46/211/211 47/212/212 48/213/213
f 46/214/214 48/215/215 49/216/216
f 50/217/217 49/218/218 48/219/219
f 50/220/220 48/221/221 51/222/222
f 52/223/223 46/224/224 49/225/225
f 52/226/226 49/227/227 50/228/228
f 47/229/229 53/230/230 51/231/231
f 47/232/232 51/233/233 48/234/234
f 46/235/235 52/236/236 53/237/237
f 46/238/238 53/239/239 47/240/240
f 54/241/241 52/242/242 50/243/243
f 54/244/244 50/245/245 51/246/246
f 54/247/247 51/248/248 53/249/249
f 54/250/250 53/251/251 52/252/252
# Bone7, 14 grouped triangles

o Bone7
g Bone7

f 55/253/253 56/254/254 57/255/255
f 55/256/256 57/257/257 58/258/258
f 59/259/259 58/260/260 57/261/261
f 59/262/262 57/263/263 60/264/264
f 61/265/265 55/266/266 58/267/267
f 61/268/268 58/269/269 59/270/270
f 56/271/271 62/272/272 60/273/273
f 56/274/274 60/275/275 57/276/276
f 55/277/277 61/278/278 62/279/279
f 55/280/280 62/281/281 56/282/282
f 63/283/283 61/284/284 59/285/285
f 63/286/286 59/287/287 60/288/288
f 63/289/289 60/290/290 62/291/291
f 63/292/292 62/293/293 61/294/294
# Object0012, 206 grouped triangles

usemtl choko_cracked_tex
o Object0012
g Object0012

f 64/295/295 65/296/296 66/297/297
f 67/298/298 66/299/299 68/300/300
f 69/301/301 64/302/302 66/303/303
f 64/304/304 70/305/305 65/306/306
f 66/307/307 65/308/308 71/309/309
f 72/310/310 73/311/311 74/312/312
f 72/313/313 74/314/314 75/315/315
f 76/316/316 77/317/317 74/318/318
f 77/319/319 75/320/320 74/321/321
f 76/322/322 78/323/323 77/324/324
f 79/325/325 72/326/326 75/327/327
f 77/328/328 79/329/329 75/330/330
f 80/331/331 77/332/332 78/333/333
f 81/334/334 79/335/335 77/336/336
f 74/337/337 64/338/338 76/339/339
f 80/340/340 81/341/341 77/342/342
f 76/343/343 64/344/344 69/345/345
f 78/346/346 76/347/347 69/348/348
f 79/349/349 81/350/350 82/351/351
f 82/352/352 72/353/353 79/354/354
f 73/355/355 72/356/356 82/357/357
f 66/358/358 81/359/359 80/360/360
f 73/361/361 82/362/362 83/363/363
f 83/364/364 74/365/365 73/366/366
f 78/367/367 67/368/368 80/369/369
f 66/370/370 71/371/371 81/372/372
f 64/373/373 74/374/374 83/375/375
f 67/376/376 78/377/377 69/378/378
f 66/379/379 80/380/380 68/381/381
f 81/382/382 71/383/383 82/384/384
f 71/385/385 65/386/386 82/387/387
f 70/388/388 82/389/389 65/390/390
f 82/391/391 70/392/392 83/393/393
f 83/394/394 70/395/395 64/396/396
f 80/397/397 67/398/398 68/399/399
f 69/400/400 66/401/401 67/402/402
f 84/403/403 85/404/404 86/405/405
f 87/406/406 84/407/407 86/408/408
f 85/409/409 88/410/410 86/411/411
f 85/412/412 89/413/413 88/414/414
f 89/415/415 90/416/416 88/417/417
f 87/418/418 86/419/419 91/420/420
f 86/421/421 92/422/422 91/423/423
f 90/424/424 89/425/425 93/426/426
f 85/427/427 94/428/428 89/429/429
f 85/430/430 84/431/431 95/432/432
f 89/433/433 96/434/434 93/435/435
f 85/436/436 95/437/437 94/438/438
f 97/439/439 98/440/440 87/441/441
f 94/442/442 96/443/443 89/444/444
f 84/445/445 99/446/446 95/447/447
f 99/448/448 84/449/449 87/450/450
f 99/451/451 87/452/452 98/453/453
f 100/454/454 97/455/455 91/456/456
f 101/457/457 90/458/458 96/459/459
f 101/460/460 96/461/461 94/462/462
f 99/463/463 102/464/464 95/465/465
f 103/466/466 102/467/467 99/468/468
f 98/469/469 103/470/470 99/471/471
f 100/472/472 103/473/473 98/474/474
f 93/475/475 96/476/476 90/477/477
f 94/478/478 102/479/479 101/480/480
f 95/481/481 102/482/482 94/483/483
f 100/484/484 92/485/485 103/486/486
f 91/487/487 92/488/488 100/489/489
f 88/490/490 101/491/491 102/492/492
f 88/493/493 102/494/494 103/495/495
f 86/496/496 103/497/497 92/498/498
f 88/499/499 90/500/500 101/501/501
f 86/502/502 88/503/503 103/504/504
f 100/505/505 98/506/506 97/507/507
f 87/508/508 91/509/509 97/510/510
f 104/511/511 105/512/512 106/513/513
f 104/514/514 107/515/515 105/516/516
f 106/517/517 105/518/518 108/519/519
f 109/520/520 104/521/521 106/522/522
f 110/523/523 111/524/524 112/525/525
f 113/526/526 112/527/527 111/528/528
f 111/529/529 110/530/530 114/531/531
f 112/532/532 113/533/533 115/534/534
f 115/535/535 113/536/536 116/537/537
f 117/538/538 113/539/539 111/540/540
f 118/541/541 112/542/542 115/543/543
f 119/544/544 110/545/545 112/546/546
f 117/547/547 116/548/548 113/549/549
f 119/550/550 112/551/551 118/552/552
f 110/553/553 119/554/554 114/555/555
f 114/556/556 117/557/557 111/558/558
f 118/559/559 115/560/560 116/561/561
f 120/562/562 114/563/563 119/564/564
f 121/565/565 116/566/566 117/567/567
f 109/568/568 118/569/569 116/570/570
f 120/571/571 119/572/572 118/573/573
f 122/574/574 114/575/575 120/576/576
f 104/577/577 116/578/578 121/579/579
f 120/580/580 118/581/581 109/582/582
f 114/583/583 121/584/584 117/585/585
f 120/586/586 108/587/587 105/588/588
f 109/589/589 116/590/590 104/591/591
f 120/592/592 106/593/593 108/594/594
f 120/595/595 105/596/596 122/597/597
f 107/598/598 104/599/599 121/600/600
f 106/601/601 120/602/602 109/603/603
f 114/604/604 122/605/605 121/606/606
f 105/607/607 107/608/608 122/609/609
f 121/610/610 122/611/611 107/612/612
f 123/613/613 124/614/614 125/615/615
f 125/616/616 124/617/617 126/618/618
f 124/619/619 127/620/620 128/621/621
f 126/622/622 124/623/623 128/624/624
f 129/625/625 130/626/626 123/627/627
f 131/628/628 130/629/629 132/630/630
f 130/631/631 124/632/632 123/633/633
f 124/634/634 133/635/635 127/636/636
f 129/637/637 123/638/638 134/639/639
f 132/640/640 130/641/641 129/642/642
f 135/643/643 133/644/644 136/645/645
f 133/646/646 135/647/647 137/648/648
f 127/649/649 133/650/650 137/651/651
f 138/652/652 129/653/653 139/654/654
f 140/655/655 129/656/656 138/657/657
f 141/658/658 140/659/659 138/660/660
f 134/661/661 139/662/662 129/663/663
f 131/664/664 140/665/665 141/666/666
f 134/667/667 123/668/668 139/669/669
f 123/670/670 125/671/671 139/672/672
f 126/673/673 128/674/674 139/675/675
f 138/676/676 139/677/677 128/678/678
f 141/679/679 138/680/680 136/681/681
f 133/682/682 124/683/683 141/684/684
f 126/685/685 139/686/686 125/687/687
f 127/688/688 138/689/689 128/690/690
f 135/691/691 138/692/692 127/693/693
f 136/694/694 138/695/695 135/696/696
f 141/697/697 136/698/698 133/699/699
f 124/700/700 130/701/701 141/702/702
f 131/703/703 141/704/704 130/705/705
f 132/706/706 140/707/707 131/708/708
f 132/709/709 129/710/710 140/711/711
f 127/712/712 137/713/713 135/714/714
f 142/715/715 143/716/716 144/717/717
f 142/718/718 145/719/719 143/720/720
f 146/721/721 145/722/722 142/723/723
f 144/724/724 143/725/725 147/726/726
f 148/727/727 149/728/728 143/729/729
f 145/730/730 148/731/731 143/732/732
f 143/733/733 150/734/734 151/735/735
f 143/736/736 149/737/737 150/738/738
f 142/739/739 152/740/740 153/741/741
f 154/742/742 150/743/743 155/744/744
f 147/745/745 151/746/746 150/747/747
f 147/748/748 143/749/749 151/750/750
f 142/751/751 153/752/752 146/753/753
f 156/754/754 152/755/755 142/756/756
f 156/757/757 157/758/758 152/759/759
f 154/760/760 147/761/761 150/762/762
f 152/763/763 157/764/764 158/765/765
f 155/766/766 158/767/767 154/768/768
f 152/769/769 158/770/770 155/771/771
f 144/772/772 156/773/773 142/774/774
f 147/775/775 154/776/776 156/777/777
f 144/778/778 147/779/779 156/780/780
f 157/781/781 156/782/782 154/783/783
f 158/784/784 157/785/785 154/786/786
f 146/787/787 153/788/788 145/789/789
f 155/790/790 150/791/791 152/792/792
f 153/793/793 149/794/794 145/795/795
f 150/796/796 149/797/797 153/798/798
f 152/799/799 150/800/800 153/801/801
f 149/802/802 148/803/803 145/804/804
f 159/805/805 160/806/806 161/807/807
f 162/808/808 161/809/809 163/810/810
f 163/811/811 161/812/812 164/813/813
f 165/814/814 161/815/815 160/816/816
f 162/817/817 166/818/818 167/819/819
f 163/820/820 168/821/821 169/822/822
f 170/823/823 171/824/824 172/825/825
f 171/826/826 173/827/827 174/828/828
f 168/829/829 174/830/830 169/831/831
f 169/832/832 162/833/833 163/834/834
f 171/835/835 175/836/836 173/837/837
f 173/838/838 169/839/839 174/840/840
f 176/841/841 171/842/842 170/843/843
f 173/844/844 175/845/845 169/846/846
f 170/847/847 165/848/848 177/849/849
f 175/850/850 171/851/851 176/852/852
f 169/853/853 166/854/854 162/855/855
f 175/856/856 166/857/857 169/858/858
f 165/859/859 160/860/860 177/861/861
f 167/862/862 166/863/863 175/864/864
f 159/865/865 176/866/866 160/867/867
f 175/868/868 176/869/869 167/870/870
f 163/871/871 164/872/872 168/873/873
f 174/874/874 172/875/875 171/876/876
f 170/877/877 161/878/878 165/879/879
f 170/880/880 172/881/881 161/882/882
f 168/883/883 164/884/884 178/885/885
f 164/886/886 161/887/887 178/888/888
f 172/889/889 174/890/890 168/891/891
f 168/892/892 178/893/893 172/894/894
f 161/895/895 172/896/896 178/897/897
f 176/898/898 159/899/899 167/900/900
f 162/901/901 159/902/902 161/903/903
f 162/904/904 167/905/905 159/906/906
f 176/907/907 177/908/908 160/909/909
f 176/910/910 170/911/911 177/912/912
