# Blender v2.93.11 OBJ File: ''
# www.blender.org
mtllib ChickenLeg.mtl
o ChickenLeg_ChickenLeg.001
v -0.003147 0.000673 0.000000
v -0.007575 0.000470 0.000626
v -0.007557 0.000660 0.000000
v -0.003151 0.000435 0.000626
v -0.007595 0.000000 0.000914
v -0.008462 0.000000 0.000799
v -0.008372 0.000793 0.000604
v -0.003155 0.000000 0.000914
v -0.007575 -0.000470 0.000626
v -0.008372 -0.000793 0.000604
v -0.010035 0.000000 0.000868
v -0.010035 -0.000868 0.000780
v -0.011353 -0.000783 0.000565
v -0.010584 0.000000 0.000805
v -0.011353 0.000783 0.000565
v -0.010035 0.000868 0.000780
v -0.010035 0.002587 0.000450
v -0.008759 0.001586 0.000403
v -0.011579 0.001820 0.000364
v -0.012090 0.002105 0.000000
v -0.010035 0.003489 0.000000
v -0.012021 0.000372 0.000000
v -0.010035 -0.002587 0.000450
v -0.008759 -0.001586 0.000403
v -0.011579 -0.001820 0.000364
v -0.012090 -0.002105 0.000000
v -0.010035 -0.003489 0.000000
v -0.012021 -0.000372 0.000000
v -0.008070 0.001814 0.000000
v -0.007700 0.000817 0.000000
v -0.008070 -0.001814 0.000000
v -0.007700 -0.000817 0.000000
v -0.007557 -0.000660 0.000000
v -0.003147 -0.000673 0.000000
v -0.003151 -0.000435 0.000626
v -0.010035 -0.002587 -0.000450
v -0.011579 -0.001820 -0.000363
v -0.011356 -0.000783 -0.000552
v -0.010035 -0.000868 -0.000776
v -0.008372 -0.000793 -0.000603
v -0.008759 -0.001586 -0.000403
v -0.010596 0.000000 -0.000753
v -0.008070 -0.001814 0.000000
v -0.007700 -0.000817 0.000000
v -0.007557 -0.000660 0.000000
v -0.007575 -0.000470 -0.000626
v -0.003147 -0.000673 0.000000
v -0.003151 -0.000435 -0.000626
v -0.008462 0.000000 -0.000797
v -0.007595 0.000000 -0.000914
v -0.007575 0.000470 -0.000626
v -0.008372 0.000793 -0.000603
v -0.010035 0.000000 -0.000856
v -0.010035 0.000868 -0.000776
v -0.010035 0.002587 -0.000450
v -0.008759 0.001586 -0.000403
v -0.011356 0.000783 -0.000552
v -0.011579 0.001820 -0.000363
v -0.012090 0.002105 0.000000
v -0.010035 0.003489 0.000000
v -0.003151 0.000435 -0.000626
v -0.003147 0.000673 0.000000
v -0.007557 0.000660 0.000000
v -0.003155 0.000000 -0.000914
v -0.007700 0.000817 0.000000
v -0.008070 0.001814 0.000000
v -0.010591 0.000000 -0.000075
v -0.010591 0.000000 -0.000075
v 0.011593 0.000000 0.000000
v 0.010630 0.002451 0.002212
v 0.010630 0.003466 0.000000
v 0.010630 0.000000 0.003128
v 0.010630 -0.002451 0.002212
v 0.010630 -0.003466 0.000000
v 0.010630 -0.002451 -0.002212
v 0.010630 0.000000 -0.003128
v 0.010630 0.002451 -0.002212
v 0.008878 0.003261 0.002943
v 0.008878 0.004611 0.000000
v 0.004289 0.003548 0.003463
v 0.004289 0.005017 0.000000
v 0.004289 0.000000 0.004897
v 0.008878 0.000000 0.004162
v 0.004289 -0.003548 0.003463
v 0.008878 -0.003261 0.002943
v 0.004289 -0.005017 0.000000
v 0.008878 -0.004611 0.000000
v 0.004289 -0.003548 -0.003463
v 0.008878 -0.003261 -0.002943
v 0.004289 0.000000 -0.004897
v 0.008878 0.000000 -0.004162
v 0.004289 0.003548 -0.003463
v 0.008878 0.003261 -0.002943
v -0.001740 0.002308 0.002308
v -0.001740 0.003263 0.000000
v -0.001740 0.000000 0.003263
v -0.001740 -0.002308 0.002308
v -0.001740 -0.003263 0.000000
v -0.001740 -0.002308 -0.002308
v -0.001740 0.000000 -0.003263
v -0.001740 0.002308 -0.002308
v -0.004338 0.000000 0.000000
vt 0.556889 0.077380
vt 0.558807 0.060118
vt 0.152184 0.078339
vt 0.152184 0.057241
vt 0.560725 0.016962
vt 0.640324 0.016962
vt 0.631693 0.089848
vt 0.152184 0.016962
vt 0.558807 0.061077
vt 0.631693 0.090807
vt 0.785135 0.016962
vt 0.785135 0.097520
vt 0.905972 0.089848
vt 0.835004 0.016962
vt 0.905972 0.088889
vt 0.785135 0.096561
vt 0.785135 0.254799
vt 0.667176 0.162733
vt 0.926111 0.183831
vt 0.973103 0.210684
vt 0.785135 0.337274
vt 0.967349 0.051487
vt 0.785135 0.255758
vt 0.667176 0.163692
vt 0.926111 0.185749
vt 0.973103 0.211643
vt 0.785135 0.339192
vt 0.967349 0.052446
vt 0.603881 0.183831
vt 0.570315 0.091766
vt 0.603881 0.184790
vt 0.570315 0.093684
vt 0.556889 0.079298
vt 0.152184 0.080257
vt 0.152184 0.058200
vt 0.785135 0.255758
vt 0.927070 0.185749
vt 0.905972 0.090807
vt 0.785135 0.098479
vt 0.633611 0.091766
vt 0.669094 0.163692
vt 0.836922 0.016003
vt 0.605799 0.184790
vt 0.572233 0.093684
vt 0.558807 0.079298
vt 0.560725 0.062036
vt 0.155061 0.080257
vt 0.156020 0.059159
vt 0.641283 0.016003
vt 0.562643 0.016003
vt 0.560725 0.059159
vt 0.633611 0.088889
vt 0.785135 0.016003
vt 0.785135 0.095602
vt 0.785135 0.252881
vt 0.669094 0.160815
vt 0.905972 0.087929
vt 0.927070 0.182872
vt 0.973103 0.208766
vt 0.785135 0.335356
vt 0.156020 0.056282
vt 0.155061 0.077380
vt 0.558807 0.076421
vt 0.156020 0.016003
vt 0.572233 0.090807
vt 0.605799 0.181913
vt 0.835963 0.018880
vt 0.835963 0.017921
vt 0.074503 0.841717
vt 0.150266 0.747734
vt 0.009290 0.619225
vt 0.171364 0.619225
vt 0.150266 0.491676
vt 0.074503 0.397692
vt 0.150266 0.491676
vt 0.171364 0.619225
vt 0.150266 0.747734
vt 0.243290 0.789931
vt 0.194380 0.944332
vt 0.475373 0.805275
vt 0.489758 0.990365
vt 0.471537 0.619225
vt 0.257676 0.619225
vt 0.475373 0.434135
vt 0.243290 0.448520
vt 0.489758 0.249044
vt 0.194380 0.295077
vt 0.475373 0.434135
vt 0.243290 0.448520
vt 0.471537 0.619225
vt 0.257676 0.619225
vt 0.475373 0.805275
vt 0.243290 0.789931
vt 0.788971 0.736226
vt 0.843635 0.844595
vt 0.773627 0.619225
vt 0.788971 0.502225
vt 0.843635 0.394815
vt 0.788971 0.502225
vt 0.773627 0.619225
vt 0.788971 0.736226
vt 0.979816 0.619225
vn 0.2856 0.9584 -0.0000
vn 0.0745 0.7333 0.6758
vn 0.0039 1.0000 -0.0003
vn 0.0040 0.7803 0.6255
vn -0.0666 0.0039 0.9978
vn 0.0196 0.0039 0.9998
vn 0.2863 0.3883 0.8759
vn -0.0039 0.0039 1.0000
vn 0.0745 -0.7333 0.6758
vn 0.2863 -0.3882 0.8760
vn -0.0275 0.0039 0.9996
vn -0.0274 -0.1451 0.9890
vn -0.4196 0.0118 0.9076
vn -0.2863 0.0039 0.9581
vn -0.4118 -0.0196 0.9111
vn -0.0274 0.1451 0.9890
vn 0.0275 0.3647 0.9307
vn 0.3883 0.3724 0.8429
vn -0.3647 0.2392 0.8999
vn -0.8745 0.4823 -0.0508
vn 0.0431 0.9991 -0.0000
vn -0.8667 -0.4902 -0.0928
vn 0.0275 -0.3648 0.9307
vn 0.3881 -0.3728 0.8429
vn -0.3804 -0.2235 0.8974
vn -0.8808 -0.4735 0.0000
vn 0.0435 -0.9991 0.0001
vn -0.8745 0.4823 -0.0509
vn 0.8353 0.5451 0.0719
vn 0.7804 0.6235 0.0471
vn 0.8353 -0.5451 0.0719
vn 0.7804 -0.6235 0.0471
vn 0.2856 -0.9584 -0.0000
vn 0.0039 -1.0000 -0.0000
vn 0.0039 -0.7804 0.6252
vn 0.0275 -0.3648 -0.9307
vn -0.3804 -0.2235 -0.8974
vn -0.4196 0.0274 -0.9073
vn -0.0353 -0.1372 -0.9899
vn 0.2863 -0.3882 -0.8760
vn 0.3880 -0.3727 -0.8429
vn -0.3412 0.0039 -0.9400
vn 0.0745 -0.7333 -0.6758
vn 0.0040 -0.7802 -0.6255
vn 0.0196 -0.0039 -0.9998
vn -0.0666 0.0039 -0.9978
vn 0.0745 0.7333 -0.6758
vn 0.2863 0.3883 -0.8759
vn -0.0431 0.0039 -0.9991
vn -0.0353 0.1373 -0.9899
vn 0.0275 0.3647 -0.9307
vn 0.3883 0.3725 -0.8429
vn -0.4118 -0.0275 -0.9109
vn -0.3647 0.2314 -0.9019
vn 0.0040 0.7803 -0.6254
vn 0.0039 0.0039 -1.0000
vn -1.0000 0.0039 -0.0003
vn 0.7634 0.6459 0.0000
vn 0.7569 0.4431 0.4804
vn 1.0000 0.0039 0.0000
vn 0.7490 0.0039 0.6626
vn 0.7569 -0.4431 0.4804
vn 0.7634 -0.6459 0.0000
vn 0.7569 -0.4431 -0.4804
vn 0.7490 -0.0039 -0.6625
vn 0.7569 0.4431 -0.4804
vn 0.3176 0.6549 0.6857
vn 0.3092 0.9510 -0.0000
vn -0.0745 0.6941 0.7160
vn -0.0902 0.9922 -0.0866
vn -0.0510 -0.0039 0.9987
vn 0.3255 -0.0039 0.9455
vn -0.0667 -0.6941 0.7168
vn 0.3177 -0.6549 0.6857
vn -0.0902 -0.9921 0.0867
vn 0.3092 -0.9510 -0.0000
vn -0.0745 -0.6941 -0.7160
vn 0.3176 -0.6549 -0.6857
vn -0.0510 0.0039 -0.9987
vn 0.3255 0.0039 -0.9455
vn -0.0667 0.6941 -0.7168
vn 0.3176 0.6549 -0.6857
vn -0.5216 0.6000 0.6066
vn -0.5216 0.8510 -0.0617
vn -0.5137 -0.0039 0.8580
vn -0.5216 -0.6000 0.6066
vn -0.5216 -0.8510 0.0617
vn -0.5216 -0.6000 -0.6066
vn -0.5137 0.0039 -0.8580
vn -0.5215 0.6000 -0.6066
usemtl ChickenLeg.001
s 1
f 3/1/1 2/2/2 1/3/3
f 4/4/4 1/3/3 2/2/2
f 2/2/2 5/5/5 4/4/4
f 5/5/5 2/2/2 6/6/6
f 7/7/7 6/6/6 2/2/2
f 2/2/2 3/1/1 7/7/7
f 8/8/8 4/4/4 5/5/5
f 5/5/5 6/6/6 9/9/9
f 10/10/10 9/9/9 6/6/6
f 6/6/6 11/11/11 10/10/10
f 6/6/6 7/7/7 11/11/11
f 12/12/12 10/10/10 11/11/11
f 12/12/12 11/11/11 13/13/13
f 14/14/14 13/13/13 11/11/11
f 14/14/14 11/11/11 15/15/15
f 16/16/16 15/15/15 11/11/11
f 16/16/16 11/11/11 7/7/7
f 16/16/16 7/7/7 17/17/17
f 16/16/16 17/17/17 15/15/15
f 18/18/18 17/17/17 7/7/7
f 19/19/19 15/15/15 17/17/17
f 19/19/19 17/17/17 20/20/20
f 19/19/19 20/20/20 15/15/15
f 21/21/21 20/20/20 17/17/17
f 22/22/22 15/15/15 20/20/20
f 22/22/22 14/14/14 15/15/15
f 12/12/12 23/23/23 10/10/10
f 12/12/12 13/13/13 23/23/23
f 24/24/24 10/10/10 23/23/23
f 25/25/25 23/23/23 13/13/13
f 25/25/25 26/26/26 23/23/23
f 27/27/27 23/23/23 26/26/26
f 26/26/26 25/25/25 28/28/28
f 13/13/13 28/28/28 25/25/25
f 28/28/28 13/13/13 14/14/14
f 18/18/18 29/29/29 17/17/17
f 21/21/21 17/17/17 29/29/29
f 29/29/29 18/18/18 30/30/30
f 7/7/7 30/30/30 18/18/18
f 30/30/30 7/7/7 3/1/1
f 24/24/24 23/23/23 31/31/31
f 27/27/27 31/31/31 23/23/23
f 31/31/31 32/32/32 24/24/24
f 10/10/10 24/24/24 32/32/32
f 32/32/32 33/33/33 10/10/10
f 9/9/9 10/10/10 33/33/33
f 33/33/33 34/34/34 9/9/9
f 35/35/35 9/9/9 34/34/34
f 9/9/9 35/35/35 5/5/5
f 8/8/8 5/5/5 35/35/35
f 27/27/27 26/26/26 36/36/36
f 37/37/37 36/36/36 26/26/26
f 37/37/37 38/38/38 36/36/36
f 39/39/39 36/36/36 38/38/38
f 39/39/39 40/40/40 36/36/36
f 41/41/41 36/36/36 40/40/40
f 26/26/26 28/28/28 37/37/37
f 38/38/38 37/37/37 28/28/28
f 42/42/42 38/38/38 28/28/28
f 27/27/27 36/36/36 43/43/31
f 41/41/41 43/43/31 36/36/36
f 43/43/31 41/41/41 44/44/32
f 40/40/40 44/44/32 41/41/41
f 44/44/32 40/40/40 45/45/33
f 46/46/43 45/45/33 40/40/40
f 45/45/33 46/46/43 47/47/34
f 48/48/44 47/47/34 46/46/43
f 40/40/40 49/49/45 46/46/43
f 50/50/46 46/46/43 49/49/45
f 46/46/43 50/50/46 48/48/44
f 50/50/46 49/49/45 51/51/47
f 52/52/48 51/51/47 49/49/45
f 49/49/45 53/53/49 52/52/48
f 39/39/39 53/53/49 40/40/40
f 49/49/45 40/40/40 53/53/49
f 54/54/50 52/52/48 53/53/49
f 54/54/50 55/55/51 52/52/48
f 56/56/52 52/52/48 55/55/51
f 54/54/50 57/57/53 55/55/51
f 42/42/42 57/57/53 53/53/49
f 54/54/50 53/53/49 57/57/53
f 57/57/53 42/42/42 22/22/22
f 58/58/54 55/55/51 57/57/53
f 58/58/54 59/59/28 55/55/51
f 22/22/22 59/59/28 57/57/53
f 58/58/54 57/57/53 59/59/28
f 60/60/21 55/55/51 59/59/28
f 51/51/47 61/61/55 50/50/46
f 61/61/55 51/51/47 62/62/3
f 63/63/1 62/62/3 51/51/47
f 51/51/47 52/52/48 63/63/1
f 64/64/56 50/50/46 61/61/55
f 65/65/30 63/63/1 52/52/48
f 52/52/48 56/56/52 65/65/30
f 60/60/21 66/66/29 55/55/51
f 56/56/52 55/55/51 66/66/29
f 66/66/29 65/65/30 56/56/52
f 42/42/42 53/53/49 38/38/38
f 39/39/39 38/38/38 53/53/49
f 42/42/42 67/67/57 22/22/22
f 42/42/42 28/28/28 67/67/57
f 22/22/22 68/68/57 14/14/14
f 68/68/57 28/28/28 14/14/14
f 64/64/56 48/48/44 50/50/46
f 71/69/58 70/70/59 69/71/60
f 70/70/59 72/72/61 69/71/60
f 72/72/61 73/73/62 69/71/60
f 73/73/62 74/74/63 69/71/60
f 74/74/63 75/75/64 69/71/60
f 75/75/64 76/76/65 69/71/60
f 76/76/65 77/77/66 69/71/60
f 77/77/66 71/69/58 69/71/60
f 70/70/59 71/69/58 78/78/67
f 79/79/68 78/78/67 71/69/58
f 78/78/67 79/79/68 80/80/69
f 81/81/70 80/80/69 79/79/68
f 80/80/69 82/82/71 78/78/67
f 83/83/72 78/78/67 82/82/71
f 72/72/61 70/70/59 83/83/72
f 78/78/67 83/83/72 70/70/59
f 82/82/71 84/84/73 83/83/72
f 85/85/74 83/83/72 84/84/73
f 73/73/62 72/72/61 85/85/74
f 83/83/72 85/85/74 72/72/61
f 84/84/73 86/86/75 85/85/74
f 87/87/76 85/85/74 86/86/75
f 74/74/63 73/73/62 87/87/76
f 85/85/74 87/87/76 73/73/62
f 86/86/75 88/88/77 87/87/76
f 89/89/78 87/87/76 88/88/77
f 75/75/64 74/74/63 89/89/78
f 87/87/76 89/89/78 74/74/63
f 88/88/77 90/90/79 89/89/78
f 91/91/80 89/89/78 90/90/79
f 90/90/79 92/92/81 91/91/80
f 93/93/82 91/91/80 92/92/81
f 79/79/68 93/93/82 81/81/70
f 92/92/81 81/81/70 93/93/82
f 80/80/69 81/81/70 94/94/83
f 95/95/84 94/94/83 81/81/70
f 81/81/70 92/92/81 95/95/84
f 82/82/71 80/80/69 96/96/85
f 94/94/83 96/96/85 80/80/69
f 84/84/73 82/82/71 97/97/86
f 96/96/85 97/97/86 82/82/71
f 86/86/75 84/84/73 98/98/87
f 97/97/86 98/98/87 84/84/73
f 88/88/77 86/86/75 99/99/88
f 98/98/87 99/99/88 86/86/75
f 90/90/79 88/88/77 100/100/89
f 99/99/88 100/100/89 88/88/77
f 92/92/81 90/90/79 101/101/90
f 100/100/89 101/101/90 90/90/79
f 101/101/90 95/95/84 92/92/81
f 94/94/83 95/95/84 102/102/57
f 96/96/85 94/94/83 102/102/57
f 97/97/86 96/96/85 102/102/57
f 98/98/87 97/97/86 102/102/57
f 99/99/88 98/98/87 102/102/57
f 100/100/89 99/99/88 102/102/57
f 101/101/90 100/100/89 102/102/57
f 95/95/84 101/101/90 102/102/57
f 77/77/66 76/76/65 93/93/82
f 76/76/65 75/75/64 91/91/80
f 89/89/78 91/91/80 75/75/64
f 91/91/80 93/93/82 76/76/65
f 77/77/66 93/93/82 71/69/58
f 79/79/68 71/69/58 93/93/82
