<?xml version="1.0" encoding="utf-8"?>
<COLLADA xmlns="http://www.collada.org/2005/11/COLLADASchema" version="1.4.1">
  <asset>
    <created>2017-05-08T12:08:08Z</created>
    <modified>2017-05-08T12:08:08Z</modified>
  </asset>
  <library_images>
    <image id="Image">
      <init_from>ninjin_s3tc.png</init_from>
    </image>
    <image id="Image1">
      <init_from>ninjin_s3tc.png</init_from>
    </image>
    <image id="Image2">
      <init_from>ninjin_s3tc.png</init_from>
    </image>
  </library_images>
  <library_materials>
    <material id="VisualMaterial" name="body_mat">
      <instance_effect url="#Effect"/>
      <extra>
        <technique profile="FCOLLADA">
          <user_properties>body_mat</user_properties>
        </technique>
      </extra>
    </material>
    <material id="VisualMaterial1" name="kuki_mat">
      <instance_effect url="#Effect1"/>
      <extra>
        <technique profile="FCOLLADA">
          <user_properties>kuki_mat</user_properties>
        </technique>
      </extra>
    </material>
    <material id="VisualMaterial2" name="leaf_mat">
      <instance_effect url="#Effect2"/>
      <extra>
        <technique profile="FCOLLADA">
          <user_properties>leaf_mat</user_properties>
        </technique>
      </extra>
    </material>
  </library_materials>
  <library_effects>
    <effect id="Effect" name="C__Users_Hallowpape_Downloads_quickbms_BFRES_TexDump_OutDDS_Lossless_ninjin_s3tc_png">
      <profile_COMMON>
        <newparam sid="Image-surface">
          <surface type="2D">
            <init_from>Image</init_from>
            <format>A8R8G8B8</format>
          </surface>
        </newparam>
        <newparam sid="Image-sampler">
          <sampler2D>
            <source>Image-surface</source>
            <wrap_s>WRAP</wrap_s>
            <wrap_t>WRAP</wrap_t>
            <minfilter>NONE</minfilter>
            <magfilter>NONE</magfilter>
            <mipfilter>NONE</mipfilter>
          </sampler2D>
        </newparam>
        <technique sid="common">
          <phong>
            <emission>
              <color>0 0 0 1</color>
            </emission>
            <ambient>
              <color>0 0 0 1</color>
            </ambient>
            <diffuse>
              <texture texture="Image-sampler" texcoord=""/>
            </diffuse>
            <specular>
              <color>1 1 1 1</color>
            </specular>
            <shininess>
              <float>0</float>
            </shininess>
            <transparent opaque="A_ONE">
              <color>0 0 0 1</color>
            </transparent>
            <transparency>
              <float>1</float>
            </transparency>
            <index_of_refraction>
              <float>1.55</float>
            </index_of_refraction>
          </phong>
          <extra>
            <technique profile="FCOLLADA">
              <spec_level>
                <float>0</float>
              </spec_level>
            </technique>
          </extra>
        </technique>
      </profile_COMMON>
      <extra>
        <technique profile="FCOLLADA">
          <user_properties>C:%5CUsers%5CHallowpape%5CDownloads%5Cquickbms%5CBFRES_TexDump%5COutDDS_Lossless%5Cninjin_s3tc.png</user_properties>
        </technique>
      </extra>
    </effect>
    <effect id="Effect1" name="C__Users_Hallowpape_Downloads_quickbms_BFRES_TexDump_OutDDS_Lossless_ninjin_s3tc_png">
      <profile_COMMON>
        <newparam sid="Image1-surface">
          <surface type="2D">
            <init_from>Image1</init_from>
            <format>A8R8G8B8</format>
          </surface>
        </newparam>
        <newparam sid="Image1-sampler">
          <sampler2D>
            <source>Image1-surface</source>
            <wrap_s>WRAP</wrap_s>
            <wrap_t>WRAP</wrap_t>
            <minfilter>NONE</minfilter>
            <magfilter>NONE</magfilter>
            <mipfilter>NONE</mipfilter>
          </sampler2D>
        </newparam>
        <technique sid="common">
          <phong>
            <emission>
              <color>0 0 0 1</color>
            </emission>
            <ambient>
              <color>0 0 0 1</color>
            </ambient>
            <diffuse>
              <texture texture="Image1-sampler" texcoord=""/>
            </diffuse>
            <specular>
              <color>1 1 1 1</color>
            </specular>
            <shininess>
              <float>0</float>
            </shininess>
            <transparent opaque="A_ONE">
              <color>0 0 0 1</color>
            </transparent>
            <transparency>
              <float>1</float>
            </transparency>
            <index_of_refraction>
              <float>1.55</float>
            </index_of_refraction>
          </phong>
          <extra>
            <technique profile="FCOLLADA">
              <spec_level>
                <float>0</float>
              </spec_level>
            </technique>
          </extra>
        </technique>
      </profile_COMMON>
      <extra>
        <technique profile="FCOLLADA">
          <user_properties>C:%5CUsers%5CHallowpape%5CDownloads%5Cquickbms%5CBFRES_TexDump%5COutDDS_Lossless%5Cninjin_s3tc.png</user_properties>
        </technique>
      </extra>
    </effect>
    <effect id="Effect2" name="C__Users_Hallowpape_Downloads_quickbms_BFRES_TexDump_OutDDS_Lossless_ninjin_s3tc_png">
      <profile_COMMON>
        <newparam sid="Image2-surface">
          <surface type="2D">
            <init_from>Image2</init_from>
            <format>A8R8G8B8</format>
          </surface>
        </newparam>
        <newparam sid="Image2-sampler">
          <sampler2D>
            <source>Image2-surface</source>
            <wrap_s>WRAP</wrap_s>
            <wrap_t>WRAP</wrap_t>
            <minfilter>NONE</minfilter>
            <magfilter>NONE</magfilter>
            <mipfilter>NONE</mipfilter>
          </sampler2D>
        </newparam>
        <technique sid="common">
          <phong>
            <emission>
              <color>0 0 0 1</color>
            </emission>
            <ambient>
              <color>0 0 0 1</color>
            </ambient>
            <diffuse>
              <texture texture="Image2-sampler" texcoord=""/>
            </diffuse>
            <specular>
              <color>1 1 1 1</color>
            </specular>
            <shininess>
              <float>0</float>
            </shininess>
            <transparent opaque="A_ONE">
              <color>0 0 0 1</color>
            </transparent>
            <transparency>
              <float>1</float>
            </transparency>
            <index_of_refraction>
              <float>1.55</float>
            </index_of_refraction>
          </phong>
          <extra>
            <technique profile="FCOLLADA">
              <spec_level>
                <float>0</float>
              </spec_level>
            </technique>
          </extra>
        </technique>
      </profile_COMMON>
      <extra>
        <technique profile="FCOLLADA">
          <user_properties>C:%5CUsers%5CHallowpape%5CDownloads%5Cquickbms%5CBFRES_TexDump%5COutDDS_Lossless%5Cninjin_s3tc.png</user_properties>
        </technique>
      </extra>
    </effect>
  </library_effects>
  <library_geometries>
    <geometry id="Geometry" name="piki_ninjin_body__body_mat">
      <mesh>
        <source id="GeometrySource" name="piki_ninjin_body__body_matPos">
          <float_array id="GeometrySource-array" count="492">-0.398125 -0.033103 -4.2637 -0.423071 -0.357144 -4.38978 -0.186603 -0.398926 -4.47918 -0.194474 -0.073144 -4.35719 -0.159642 -0.722552 -4.76256 -0.582462 -0.69921 -4.5858 -0.903999 -0.765892 -4.74097 -0.002262 -1.4414 -6.40769 0.18171 -0.809029 -4.80121 0.049864 -0.479744 -4.47075 -1.26962 -0.561522 -4.83834 0.556903 -1.13086 -5.13325 0.038995 -0.077835 -4.33411 0.078502 0.284955 -4.45859 -0.22303 0.278788 -4.4524 -0.967283 -1.00382 -6.26983 -1.4546 -0.031337 -4.88883 1.06975 -1.14163 -6.55835 1.00875 -1.03983 -5.21105 -0.235752 0.577014 -4.6575 0.221154 0.667177 -4.64632 -0.614569 0.559249 -4.50635 -0.458963 0.290905 -4.37034 -0.398125 -0.033103 -4.2637 -0.194474 -0.073144 -4.35719 -1.29738 0 -6.20575 1.28731 -1.30628 -8.24218 1.51302 -0.600313 -6.60614 1.39652 -0.628758 -5.28839 0.581537 0.915164 -4.88477 -0.002263 1.34519 -6.40769 -0.949223 0.64943 -4.6901 -1.19618 -1.30628 -8.60402 -1.72941 -0.000000 -8.70299 -0.000002 -1.78079 -8.4231 1.82054 0.000000 -8.1438 1.62894 -0.016662 -6.62243 1.58049 -0.088921 -5.30088 1.09919 0.883899 -5.09089 -0.979092 0.964191 -6.26983 -1.28551 0.468828 -4.86582 -0.000003 -2.31542 -11.2246 -1.63725 -1.63725 -11.2246 -2.31542 -0.000000 -11.2246 1.63724 -1.63725 -11.2246 1.51302 0.583651 -6.60614 1.45458 0.492328 -5.22493 1.06975 1.096 -6.55835 -1.4546 -0.031337 -4.88883 -0.000004 -2.35468 -11.8505 1.66501 -1.66501 -11.8505 -1.66502 -1.66501 -11.8505 -2.35469 -0.000001 -11.8505 2.31541 0.000000 -11.2246 1.28731 1.30628 -8.24218 -0.000003 1.82517 -8.4231 -1.19618 1.30628 -8.60402 -1.29738 0 -6.20575 -0.000004 -2.10345 -12.3465 -1.48737 -1.48736 -12.3465 -2.10345 -0.000001 -12.3465 1.63724 1.63725 -11.2246 -0.000005 2.31542 -11.2246 -1.63725 1.63725 -11.2246 -2.31542 -0.000000 -11.2246 -1.72941 -0.000000 -8.70299 0.774632 -0.774637 -12.9685 1.48736 -1.48736 -12.3465 -0.000005 -1.0955 -12.9685 -0.774643 -0.774638 -12.9685 -1.09551 -0.000000 -12.9685 -1.66502 1.66501 -11.8505 -0.000005 2.35468 -11.8505 -2.35469 -0.000001 -11.8505 1.0955 0 -12.9685 2.10344 0.000000 -12.3465 -1.48737 1.48736 -12.3465 -2.10345 -0.000001 -12.3465 -0.000005 2.10345 -12.3465 1.66501 1.66501 -11.8505 0.774631 0.774637 -12.9685 1.48736 1.48736 -12.3465 2.35468 0.000000 -11.8505 -1.09551 -0.000000 -12.9685 -0.774643 0.774637 -12.9685 -0.000005 1.0955 -12.9685 -1.28551 0.468828 -4.86582 -1.4546 -0.031337 -4.88883 -1.39299 0.29221 -3.82966 -1.19035 0.420837 -3.81995 -0.949223 0.64943 -4.6901 -1.49007 0.007908 -3.80705 -1.26962 -0.561522 -4.83834 -1.19651 0.291252 -2.69477 -1.08083 0.36814 -2.75556 -0.991703 0.359228 -3.7471 -0.614569 0.559249 -4.50635 -1.38029 -0.310909 -3.74001 -0.903999 -0.765892 -4.74097 -1.20167 -0.016526 -2.62935 -1.25359 0.140318 -2.64815 -0.763575 0.447538 -1.65019 -0.958063 0.283359 -2.76431 -0.861535 0.200107 -3.64348 -0.458963 0.290905 -4.37034 -1.19035 -0.463525 -3.68286 -0.582462 -0.69921 -4.5858 -1.08083 -0.108514 -2.64692 -0.912743 0.118608 -2.7503 -0.958063 -0.040747 -2.70316 -0.826386 0.002561 -3.58895 -0.398125 -0.033103 -4.2637 -0.991702 -0.390624 -3.60799 -0.861535 -0.209394 -3.57458 -0.423071 -0.357144 -4.38978 -0.861535 -0.209394 -3.57458 -0.423071 -0.357144 -4.38978 1.01042 -0.568766 -1.90224 0.397374 -0.682153 -1.06016 0.764093 -0.783523 -1.97301 0.584718 -0.547928 -0.961128 -0.132996 -0.49702 -0.015161 0.210293 -0.52167 -1.1127 0.57774 -0.747752 -1.99339 0.661247 -0.785196 -3.26999 0.915822 -0.888024 -3.31106 0.675042 -0.351108 -0.889477 0.099566 -0.324756 -1.11227 0.585336 -0.143416 -0.918585 0.398431 -0.009135 -0.969287 0.210881 -0.136433 -1.07219 0.381816 -0.526151 -1.98255 1.00875 -1.03983 -5.21105 0.281706 -0.231947 -1.95282 0.379297 0.062862 -1.9208 0.812286 0.257119 -1.86083 1.00759 0.093208 -1.83283 0.675042 -0.351108 -0.889477 0.573329 0.283542 -1.88527 0.376778 -0.47435 -3.22487 0.556903 -1.13086 -5.13325 0.378252 0.359842 -3.31174 0.238403 -0.071606 -3.20573 0.990783 0.601608 -3.47696 0.634137 0.604489 -3.41982 1.14464 -0.237203 -1.82646 0.584718 -0.547928 -0.961128 0.18171 -0.809029 -4.80121 0.049864 -0.479744 -4.47075 0.038995 -0.077835 -4.33411 0.221154 0.667177 -4.64632 0.078502 0.284955 -4.45859 0.581537 0.915164 -4.88477 1.09919 0.883899 -5.09089 1.25604 0.299136 -3.46541 1.01042 -0.568766 -1.90224 1.41438 -0.120193 -3.42403 1.45458 0.492328 -5.22493 1.25443 -0.603673 -3.37011 0.915822 -0.888024 -3.31106 0.764093 -0.783523 -1.97301 1.58049 -0.088921 -5.30088 1.39652 -0.628758 -5.28839 1.00875 -1.03983 -5.21105</float_array>
          <technique_common>
            <accessor source="#GeometrySource-array" count="164" stride="3">
              <param name="X" type="float"/>
              <param name="Y" type="float"/>
              <param name="Z" type="float"/>
            </accessor>
          </technique_common>
        </source>
        <source id="GeometrySource1" name="piki_ninjin_body__body_matNrm">
          <float_array id="GeometrySource1-array" count="492">0.644807 0.018384 0.764124 0.54887 -0.458835 0.698722 0.067618 -0.518619 0.852328 0.148796 -0.021156 0.988642 0.003328 -0.810788 0.58533 0.248072 -0.834203 0.49251 -0.225916 -0.940646 0.253273 -0.091869 -0.956147 0.278107 -0.428493 -0.81675 0.386412 -0.580591 -0.547649 0.602491 -0.773973 -0.632138 0.036971 -0.177701 -0.962208 0.206343 -0.763746 0.065531 0.642182 -0.589108 0.430031 0.684124 0.150965 0.430675 0.889792 -0.736498 -0.669806 0.094501 -0.99745 -0.007072 -0.071013 0.545466 -0.829457 0.120283 0.46109 -0.881706 0.099955 0.042663 0.76514 0.642448 -0.468195 0.782692 0.410106 0.287194 0.838433 0.463195 0.567362 0.462533 0.681296 0.644807 0.018384 0.764124 0.148796 -0.021156 0.988642 -0.999732 -0.001501 0.023121 0.7043 -0.696702 0.136267 0.899736 -0.427205 0.089277 0.864561 -0.497697 0.069509 -0.105984 0.964124 0.243377 -0.042873 0.958085 0.283259 -0.262591 0.935733 0.235478 -0.703569 -0.686905 0.182079 -0.982125 0.000338 0.188231 -0.028699 -0.985207 0.16895 0.993802 0.001601 0.11115 0.996003 -0.015498 0.087971 0.997047 -0.024281 0.072853 0.490668 0.856185 0.161839 -0.681084 0.72052 0.130288 -0.78731 0.615603 0.034288 -0.005035 -0.992544 0.121783 -0.7036 -0.697569 0.135441 -0.989981 -0.00241 0.141177 0.697771 -0.707289 0.113392 0.902416 0.420412 0.094335 0.864598 0.492788 0.098129 0.585143 0.799788 0.133966 -0.99745 -0.007072 -0.071013 0.003178 -0.979475 -0.201539 0.690266 -0.694449 -0.203159 -0.693074 -0.691729 -0.202878 -0.978507 0.000596 -0.206214 0.993802 0.001601 0.11115 0.696597 0.700245 0.156238 -0.026818 0.98209 0.186492 -0.703359 0.683567 0.194994 -0.999732 -0.001501 0.023121 -0.00301 -0.732746 -0.680496 -0.520867 -0.518035 -0.678482 -0.732997 0.002886 -0.680225 0.697701 0.706833 0.116626 -0.010933 0.993334 0.114756 -0.704807 0.697074 0.131662 -0.989981 -0.00241 0.141177 -0.982125 0.000338 0.188231 0.36903 -0.367925 -0.853492 0.51893 -0.517273 -0.680544 -0.001815 -0.523525 -0.852008 -0.370206 -0.371182 -0.85157 -0.525809 -0.000518 -0.850602 -0.689785 0.693704 -0.207295 -0.002812 0.979848 -0.199723 -0.978507 0.000596 -0.206214 0.527166 0.002101 -0.84976 0.734025 0.003481 -0.679113 -0.51892 0.516992 -0.680766 -0.732997 0.002886 -0.680225 -0.003609 0.73177 -0.681542 0.689087 0.694643 -0.20647 0.372475 0.373468 -0.849579 0.517239 0.519585 -0.68007 0.978789 -0.001234 -0.204866 -0.525809 -0.000518 -0.850602 -0.368454 0.370511 -0.852621 0.003385 0.525095 -0.851037 -0.78731 0.615603 0.034288 -0.99745 -0.007072 -0.071013 -0.776974 0.624311 0.080912 -0.183649 0.969464 0.162521 -0.262591 0.935733 0.235478 -0.996241 0.017876 0.084759 -0.773973 -0.632138 0.036971 -0.70556 0.691301 0.155845 0.083898 0.996465 0.004289 0.486166 0.855292 0.179215 0.287194 0.838433 0.463195 -0.80596 -0.570091 0.159453 -0.225916 -0.940646 0.253273 -0.755069 -0.511221 0.410518 -0.948362 0.070194 0.309325 0.251447 0.242903 0.936895 0.808394 0.585784 -0.057934 0.788956 0.526972 0.315989 0.567362 0.462533 0.681296 -0.22482 -0.934627 0.27555 0.248072 -0.834203 0.49251 0.066041 -0.916762 0.393936 0.99997 0.002433 -0.007408 0.808388 -0.561779 0.175823 0.945931 0.038033 0.322129 0.644807 0.018384 0.764124 0.492514 -0.804347 0.33235 0.849574 -0.402877 0.340463 0.54887 -0.458835 0.698722 0.849574 -0.402877 0.340463 0.54887 -0.458835 0.698722 0.759626 -0.604022 0.241092 -0.130892 -0.987308 0.089949 0.192196 -0.97286 0.128856 0.628901 -0.668804 0.396466 -0.418586 -0.08632 0.904066 -0.78038 -0.597186 -0.18541 -0.500023 -0.865782 -0.019958 -0.494416 -0.861706 0.114089 0.294483 -0.950002 0.10381 0.824498 -0.057393 0.562946 -0.981291 0.025077 -0.190891 0.602947 0.575919 0.552062 -0.082165 0.934538 0.346247 -0.774437 0.632489 -0.014353 -0.844187 -0.528878 -0.087383 0.46109 -0.881706 0.099955 -0.997372 0.008607 -0.071942 -0.842791 0.536834 0.0389 0.272338 0.916384 0.29338 0.73653 0.599775 0.312721 0.824498 -0.057393 0.562946 -0.426495 0.884195 0.19053 -0.876105 -0.470286 0.106165 -0.177701 -0.962208 0.206343 -0.846624 0.502799 0.174416 -0.992847 0.027648 0.116148 0.407276 0.88911 0.20883 -0.278912 0.936528 0.212423 0.948877 -0.009641 0.315499 0.628901 -0.668804 0.396466 -0.428493 -0.81675 0.386412 -0.580591 -0.547649 0.602491 -0.763746 0.065531 0.642182 -0.468195 0.782692 0.410106 -0.589108 0.430031 0.684124 -0.105984 0.964124 0.243377 0.490668 0.856185 0.161839 0.83484 0.524842 0.166084 0.759626 -0.604022 0.241092 0.990855 -0.004858 0.134845 0.864598 0.492788 0.098129 0.829081 -0.547878 0.111597 0.294483 -0.950002 0.10381 0.192196 -0.97286 0.128856 0.997047 -0.024281 0.072853 0.864561 -0.497697 0.069509 0.46109 -0.881706 0.099955</float_array>
          <technique_common>
            <accessor source="#GeometrySource1-array" count="164" stride="3">
              <param name="X" type="float"/>
              <param name="Y" type="float"/>
              <param name="Z" type="float"/>
            </accessor>
          </technique_common>
        </source>
        <source id="GeometrySource2" name="piki_ninjin_body__body_matUV">
          <float_array id="GeometrySource2-array" count="328">-0.112369 0.540025 -0.097811 0.58327 -0.087496 0.613514 -0.101596 0.559404 -0.054933 0.628864 -0.075289 0.595508 -0.057466 0.583331 0.134037 0.643635 -0.050416 0.659536 -0.088412 0.651387 -0.046327 0.56325 -0.012237 0.676046 -0.104068 0.676687 -0.089449 0.84521 -0.09006 0.911283 0.118107 0.590106 -0.040589 0.5356 0.151433 0.696432 -0.003265 0.697897 -0.06653 0.89114 -0.067903 0.841609 -0.083834 0.9223 -0.099429 0.934477 -0.111606 0.979827 -0.100833 0.999176 0.11066 0.53383 0.34489 0.697836 0.156987 0.727226 0.005584 0.724326 -0.040528 0.824335 0.134434 0.863765 -0.062715 0.931944 0.386273 0.591418 0.397534 0.533341 0.365551 0.64333 0.333659 0.753349 0.15891 0.752953 0.00708 0.749992 -0.016907 0.801355 0.118686 0.919187 -0.042481 0.949431 0.741813 0.642781 0.741752 0.587817 0.741691 0.532823 0.741844 0.697745 0.157079 0.779443 -0.001556 0.776788 0.151646 0.809503 -0.039796 0.975402 0.7828 0.642659 0.782861 0.697623 0.782739 0.587695 0.782678 0.532701 0.741905 0.752739 0.345073 0.808802 0.365947 0.863247 0.386822 0.915097 0.111423 0.973632 0.815302 0.642567 0.815241 0.587573 0.81518 0.532609 0.741966 0.807703 0.742027 0.862667 0.742088 0.917661 0.742119 0.972625 0.398297 0.973144 0.885739 0.697409 0.815332 0.697531 0.885708 0.642445 0.885647 0.587451 0.885586 0.532487 0.783074 0.917539 0.783013 0.862545 0.783135 0.972503 0.8858 0.752373 0.815394 0.752495 0.815577 0.917417 0.815607 0.972411 0.815516 0.862453 0.782952 0.807581 0.885861 0.807367 0.815455 0.807489 0.782922 0.752617 0.886013 0.972289 0.885983 0.917295 0.885922 0.862331 0.703391 0.850063 0.704428 0.933653 0.441115 0.864589 0.44087 0.826197 0.662069 0.797418 0.432722 0.912137 0.686453 1.02551 0.15714 0.823359 0.174017 0.796411 0.42436 0.793268 0.618366 0.750877 0.41258 0.968169 0.658773 1.07981 0.136723 0.89172 0.143529 0.8558 -0.10065 0.784753 0.177557 0.772759 0.400433 0.754448 0.586444 0.708579 0.395703 1.01141 0.61745 1.11792 0.138554 0.937254 0.175115 0.753441 0.159001 0.827754 0.390667 0.684378 0.562548 0.656056 0.374828 1.04599 0.363201 1.10221 0.565447 1.16245 0.394848 0.547563 0.597125 0.607807 0.348766 1.00241 0.202399 0.935545 0.359172 0.967803 0.186285 0.950804 0.023041 0.900815 0.21012 0.90933 0.361705 0.948149 0.578784 0.94705 0.58681 0.969604 0.174474 0.9588 0.20893 0.885739 0.175787 0.881588 0.182623 0.843715 0.201209 0.866939 0.358379 0.916623 0.866634 0.958251 0.35136 0.874874 0.343577 0.824763 0.329051 0.732688 0.32197 0.683737 0.15418 0.527635 0.335124 0.77401 0.568957 0.9017 0.858455 0.927396 0.578082 0.781121 0.562853 0.840968 0.602893 0.711417 0.594775 0.74517 0.317942 0.621052 0.16599 0.519608 0.836787 0.895993 0.779412 0.870602 0.754448 0.834071 0.804346 0.766289 0.773949 0.798578 0.84341 0.734367 0.856288 0.698416 0.599139 0.673208 0.328501 0.571276 0.589953 0.627522 0.862148 0.66158 0.578448 0.577624 0.566546 0.538438 0.338908 0.536637 0.866054 0.615284 0.865535 0.568651 0.865627 0.53618</float_array>
          <technique_common>
            <accessor source="#GeometrySource2-array" count="164" stride="2">
              <param name="S" type="float"/>
              <param name="T" type="float"/>
            </accessor>
          </technique_common>
        </source>
        <source id="GeometrySource3" name="piki_ninjin_body__body_matClr">
          <float_array id="GeometrySource3-array" count="656">1 1 1 1 1 1 1 1 1 1 1 1 1 1 1 1 1 1 1 1 1 1 1 1 1 1 1 1 1 1 1 1 1 1 1 1 1 1 1 1 1 1 1 1 1 1 1 1 1 1 1 1 1 1 1 1 1 1 1 1 1 1 1 1 1 1 1 1 1 1 1 1 1 1 1 1 1 1 1 1 1 1 1 1 1 1 1 1 1 1 1 1 1 1 1 1 1 1 1 1 1 1 1 1 1 1 1 1 1 1 1 1 1 1 1 1 1 1 1 1 1 1 1 1 1 1 1 1 1 1 1 1 1 1 1 1 1 1 1 1 1 1 1 1 1 1 1 1 1 1 1 1 1 1 1 1 1 1 1 1 1 1 1 1 1 1 1 1 1 1 1 1 1 1 1 1 1 1 1 1 1 1 1 1 1 1 1 1 1 1 1 1 1 1 1 1 1 1 1 1 1 1 1 1 1 1 1 1 1 1 1 1 1 1 1 1 1 1 1 1 1 1 1 1 1 1 1 1 1 1 1 1 1 1 1 1 1 1 1 1 1 1 1 1 1 1 1 1 1 1 1 1 1 1 1 1 1 1 1 1 1 1 1 1 1 1 1 1 1 1 1 1 1 1 1 1 1 1 1 1 1 1 1 1 1 1 1 1 1 1 1 1 1 1 1 1 1 1 1 1 1 1 1 1 1 1 1 1 1 1 1 1 1 1 1 1 1 1 1 1 1 1 1 1 1 1 1 1 1 1 1 1 1 1 1 1 1 1 1 1 1 1 1 1 1 1 1 1 1 1 1 1 1 1 1 1 1 1 1 1 1 1 1 1 1 1 1 1 1 1 1 1 1 1 1 1 1 1 1 1 1 1 1 1 1 1 1 1 1 1 1 1 1 1 1 1 1 1 1 1 1 1 1 1 1 1 1 1 1 1 1 1 1 1 1 1 1 1 1 1 1 1 1 1 1 1 1 1 1 1 1 1 1 1 1 1 1 1 1 1 1 1 1 1 1 1 1 1 1 1 1 1 1 1 1 1 1 1 1 1 1 1 1 1 1 1 1 1 1 1 1 1 1 1 1 1 1 1 1 1 1 1 1 1 1 1 1 1 1 1 1 1 1 1 1 1 1 1 1 1 1 1 1 1 1 1 1 1 1 1 1 1 1 1 1 1 1 1 1 1 1 1 1 1 1 1 1 1 1 1 1 1 1 1 1 1 1 1 1 1 1 1 1 1 1 1 1 1 1 1 1 1 1 1 1 1 1 1 1 1 1 1 1 1 1 1 1 1 1 1 1 1 1 1 1 1 1 1 1 1 1 1 1 1 1 1 1 1 1 1 1 1 1 1 1 1 1 1 1 1 1 1 1 1 1 1 1 1 1 1 1 1 1 1 1 1 1 1 1 1 1 1 1 1 1 1 1 1 1 1 1 1 1 1 1 1 1 1 1 1 1 1 1 1 1 1 1 1 1 1 1 1 1 1 1 1</float_array>
          <technique_common>
            <accessor source="#GeometrySource3-array" count="164" stride="4">
              <param name="R" type="float"/>
              <param name="G" type="float"/>
              <param name="B" type="float"/>
              <param name="A" type="float"/>
            </accessor>
          </technique_common>
        </source>
        <vertices id="Geometry-vertices">
          <input semantic="POSITION" source="#GeometrySource"/>
          <input semantic="NORMAL" source="#GeometrySource1"/>
          <input semantic="TEXCOORD" source="#GeometrySource2"/>
          <input semantic="COLOR" source="#GeometrySource3"/>
        </vertices>
        <triangles material="VisualMaterial0" count="240">
          <input semantic="VERTEX" source="#Geometry-vertices" offset="0"/>
          <p>0 1 2 0 2 3 1 4 2 1 5 4 5 6 7 5 7 4 4 7 8 4 8 2 2 9 3 2 8 9 6 10 7 8 7 11 9 12 3 3 12 13 3 13 14 10 15 7 10 16 15 11 7 17 11 17 18 13 19 14 13 20 19 14 19 21 14 21 22 14 22 23 14 23 24 16 25 15 17 7 26 17 26 27 17 27 18 18 27 28 20 29 30 20 30 19 19 30 21 21 30 31 25 32 15 25 33 32 7 34 26 7 15 34 15 32 34 27 26 35 27 36 28 27 35 36 28 36 37 29 38 30 31 30 39 31 39 40 32 41 34 32 42 41 32 33 42 33 43 42 34 41 44 34 44 26 36 45 37 36 35 45 37 45 46 38 46 47 46 45 47 38 47 30 40 39 48 41 42 49 41 49 50 41 50 44 42 51 49 42 43 51 43 52 51 26 44 53 26 53 35 45 35 54 45 54 47 47 55 30 47 54 55 30 55 56 30 56 39 48 39 57 51 58 49 51 52 59 51 59 58 52 60 59 35 61 54 35 53 61 54 61 62 54 62 55 55 62 63 55 63 56 56 63 64 56 65 39 39 65 57 56 64 65 58 66 67 67 50 49 58 67 49 58 59 68 58 68 66 59 69 68 59 60 69 60 70 69 62 71 63 62 72 71 62 61 72 63 71 73 63 73 64 66 74 67 67 75 50 67 74 75 71 72 76 71 76 77 71 77 73 72 78 76 72 79 78 72 61 79 79 61 53 74 80 75 75 80 81 78 79 81 75 82 50 75 81 82 79 82 81 82 53 44 79 53 82 50 82 44 76 83 77 76 84 83 76 78 84 80 85 81 78 81 85 78 85 84 86 87 88 86 88 89 86 89 90 87 91 88 87 92 91 88 93 89 88 91 93 89 93 94 89 94 95 89 95 96 89 96 90 92 97 91 92 98 97 91 97 99 91 100 93 91 99 100 93 101 94 93 100 101 99 101 100 94 101 102 94 102 95 95 103 96 95 102 103 96 103 104 97 98 105 97 105 99 98 106 105 99 107 101 99 105 107 102 108 103 101 108 102 101 109 108 101 107 109 103 110 104 103 108 110 104 110 111 105 106 112 107 112 109 105 112 107 106 113 112 109 112 113 106 114 113 108 115 110 108 109 115 110 116 111 110 115 116 117 118 119 117 120 118 118 120 121 118 121 122 118 123 119 118 122 123 119 123 124 119 124 125 120 126 121 121 127 122 121 126 128 121 128 129 121 130 127 121 129 130 122 131 123 122 127 131 123 131 124 125 124 132 127 133 131 127 134 133 127 130 134 128 135 129 128 136 135 128 137 136 129 138 130 129 135 138 130 138 134 131 133 139 131 139 124 132 124 140 134 138 141 133 134 141 133 142 139 133 141 142 135 136 143 135 144 138 138 144 141 135 143 144 137 145 136 137 146 145 124 147 140 124 139 147 139 148 147 139 149 148 139 142 149 142 141 149 141 144 150 141 151 149 141 150 151 144 143 152 144 152 150 143 153 152 143 136 154 143 154 153 146 155 145 145 156 136 145 155 156 154 136 156 154 156 157 153 154 157 155 158 156 155 159 158 155 160 159 156 161 157 156 158 162 156 162 161 159 162 158 159 163 162</p>
        </triangles>
      </mesh>
    </geometry>
    <geometry id="Geometry1" name="piki_ninjin_body__kuki_mat">
      <mesh>
        <source id="GeometrySource4" name="piki_ninjin_body__kuki_matPos">
          <float_array id="GeometrySource4-array" count="99">-0.00001 0.129344 -22.4119 0.166048 -0.1661 -19.3361 -0.000005 -0.234857 -19.3363 -0.166109 -0.165917 -19.3364 -0.234867 0.000014 -19.3364 -0.166049 0.166088 -19.3362 0.000004 0.234875 -19.336 0.165986 0.166089 -19.3359 0.234865 0.000003 -19.3359 -0.469185 0 -16.2199 -0.331795 0.331842 -16.2195 -0.33167 -0.331863 -16.2199 -0.000003 -0.469252 -16.2196 -0.000007 0.469237 -16.2211 0.331789 0.331847 -16.2208 0.469305 0.000045 -16.2209 0.331671 -0.331735 -16.2212 -0.822004 -0.000218 -13.2327 -0.581328 0.580712 -13.2318 -0.000006 0.822468 -13.2301 -0.581232 -0.58151 -13.2333 -0.000004 -0.822177 -13.2305 0.581285 0.580794 -13.231 0.822059 -0.000087 -13.2317 0.58138 -0.581467 -13.2326 -1.0952 -0.000213 -12.9668 -0.77446 0.774523 -12.9655 0.000000 1.09526 -12.9684 0.774389 0.774408 -12.9685 -0.77433 -0.774477 -12.9677 -0.000001 -1.09509 -12.9678 1.09526 0.000131 -12.9654 0.774517 -0.774483 -12.9667</float_array>
          <technique_common>
            <accessor source="#GeometrySource4-array" count="33" stride="3">
              <param name="X" type="float"/>
              <param name="Y" type="float"/>
              <param name="Z" type="float"/>
            </accessor>
          </technique_common>
        </source>
        <source id="GeometrySource5" name="piki_ninjin_body__kuki_matNrm">
          <float_array id="GeometrySource5-array" count="99">0.000819 0.024165 -0.999708 0.704485 -0.703458 -0.094067 0.003057 -0.995439 -0.09535 -0.703924 -0.704845 -0.087667 -0.997423 -0.002867 -0.071681 -0.706077 0.705291 -0.063394 -0.002854 0.99851 -0.054487 0.705319 0.706175 -0.061988 0.996988 0.002947 -0.0775 -0.995395 -0.00291 -0.095811 -0.704295 0.703561 -0.094706 -0.703414 -0.704339 -0.095478 0.003058 -0.995439 -0.095349 -0.002867 0.995543 -0.094262 0.703604 0.704442 -0.093286 0.995586 0.003014 -0.093801 0.704486 -0.703458 -0.094059 -0.893772 0.001481 -0.448519 -0.63377 0.630849 -0.447623 -0.003011 0.894698 -0.446661 -0.631783 -0.630121 -0.451439 0.003843 -0.89258 -0.450872 0.632871 0.632302 -0.446843 0.892823 0.000482 -0.450408 0.634074 -0.628397 -0.450631 -0.698018 0.000395 -0.71608 -0.492446 0.495925 -0.715231 -0.003734 0.696597 -0.717452 0.492697 0.492958 -0.717107 -0.490131 -0.490016 -0.720871 -0.002803 -0.697619 -0.716463 0.695054 0.001345 -0.718957 0.492538 -0.492993 -0.717192</float_array>
          <technique_common>
            <accessor source="#GeometrySource5-array" count="33" stride="3">
              <param name="X" type="float"/>
              <param name="Y" type="float"/>
              <param name="Z" type="float"/>
            </accessor>
          </technique_common>
        </source>
        <source id="GeometrySource6" name="piki_ninjin_body__kuki_matUV">
          <float_array id="GeometrySource6-array" count="66">0.968215 0.56466 0.965087 0.658 0.969009 0.657969 0.97293 0.657938 0.974548 0.657938 0.97293 0.657938 0.969009 0.657969 0.965087 0.658 0.96347 0.658 0.980835 0.823026 0.977584 0.823056 0.977584 0.823056 0.969741 0.823102 0.969741 0.823102 0.961913 0.823148 0.958663 0.823178 0.961913 0.823148 0.989807 0.933455 0.984115 0.933486 0.970382 0.933577 0.984115 0.933486 0.970382 0.933577 0.956664 0.933669 0.950973 0.9337 0.956664 0.933669 0.996384 0.979095 0.9888 0.979141 0.97052 0.979263 0.952239 0.97937 0.9888 0.979141 0.97052 0.979263 0.944656 0.979416 0.952239 0.97937</float_array>
          <technique_common>
            <accessor source="#GeometrySource6-array" count="33" stride="2">
              <param name="S" type="float"/>
              <param name="T" type="float"/>
            </accessor>
          </technique_common>
        </source>
        <source id="GeometrySource7" name="piki_ninjin_body__kuki_matClr">
          <float_array id="GeometrySource7-array" count="132">1 1 1 1 1 1 1 1 1 1 1 1 1 1 1 1 1 1 1 1 1 1 1 1 1 1 1 1 1 1 1 1 1 1 1 1 1 1 1 1 1 1 1 1 1 1 1 1 1 1 1 1 1 1 1 1 1 1 1 1 1 1 1 1 1 1 1 1 1 1 1 1 1 1 1 1 1 1 1 1 1 1 1 1 1 1 1 1 1 1 1 1 1 1 1 1 1 1 1 1 1 1 1 1 1 1 1 1 1 1 1 1 1 1 1 1 1 1 1 1 1 1 1 1 1 1 1 1 1 1 1 1</float_array>
          <technique_common>
            <accessor source="#GeometrySource7-array" count="33" stride="4">
              <param name="R" type="float"/>
              <param name="G" type="float"/>
              <param name="B" type="float"/>
              <param name="A" type="float"/>
            </accessor>
          </technique_common>
        </source>
        <vertices id="Geometry1-vertices">
          <input semantic="POSITION" source="#GeometrySource4"/>
          <input semantic="NORMAL" source="#GeometrySource5"/>
          <input semantic="TEXCOORD" source="#GeometrySource6"/>
          <input semantic="COLOR" source="#GeometrySource7"/>
        </vertices>
        <triangles material="VisualMaterial10" count="56">
          <input semantic="VERTEX" source="#Geometry1-vertices" offset="0"/>
          <p>0 1 2 0 2 3 0 3 4 0 4 5 0 5 6 0 6 7 0 8 1 0 7 8 4 3 9 4 10 5 4 9 10 3 11 9 3 2 11 2 12 11 2 1 12 5 13 6 5 10 13 6 13 14 6 14 7 7 15 8 7 14 15 8 15 16 8 16 1 12 1 16 9 11 17 9 17 18 9 18 10 10 19 13 10 18 19 11 12 20 11 20 17 12 16 21 12 21 20 13 22 14 13 19 22 14 22 23 14 23 15 15 24 16 16 24 21 15 23 24 17 20 25 17 26 18 17 25 26 18 27 19 18 26 27 19 27 28 19 28 22 20 29 25 20 21 29 21 30 29 21 24 30 22 31 23 22 28 31 23 31 32 23 32 24 24 32 30</p>
        </triangles>
      </mesh>
    </geometry>
    <geometry id="Geometry2" name="piki_ninjin_body__leaf_mat">
      <mesh>
        <source id="GeometrySource8" name="piki_ninjin_body__leaf_matPos">
          <float_array id="GeometrySource8-array" count="90">-0.000015 0.0965 -27.5299 -0.000018 -0.158137 -33.1564 1.864 0.518485 -30.5787 2.69445 0.777529 -27.5299 1.864 0.518485 -30.5787 -0.000015 0.425175 -27.5299 -0.000018 -0.158137 -33.1564 2.04328 0.558698 -24.9023 -0.000011 0.129344 -22.4119 -0.000015 0.0965 -27.5299 2.69445 0.777529 -27.5299 2.04328 0.558698 -24.9023 -0.000012 0.188579 -22.6602 -0.000011 0.129344 -22.4119 2.69445 0.777529 -27.5299 -0.000015 0.0965 -27.5299 -1.86403 0.518483 -30.5787 -0.000018 -0.158137 -33.1564 -2.69448 0.777527 -27.5299 -0.000015 0.425175 -27.5299 -1.86403 0.518483 -30.5787 -0.000018 -0.158137 -33.1564 -2.0433 0.558696 -24.9023 -0.000015 0.0965 -27.5299 -0.000011 0.129344 -22.4119 -2.69448 0.777527 -27.5299 -2.0433 0.558696 -24.9023 -0.000012 0.188579 -22.6602 -0.000011 0.129344 -22.4119 -2.69448 0.777527 -27.5299</float_array>
          <technique_common>
            <accessor source="#GeometrySource8-array" count="30" stride="3">
              <param name="X" type="float"/>
              <param name="Y" type="float"/>
              <param name="Z" type="float"/>
            </accessor>
          </technique_common>
        </source>
        <source id="GeometrySource9" name="piki_ninjin_body__leaf_matNrm">
          <float_array id="GeometrySource9-array" count="90">0.263523 -0.964148 0.031221 0.287316 -0.95668 0.04704 0.263523 -0.964148 0.031221 -0.128792 0.991672 0.000455 -0.167873 0.982708 -0.078122 -0.15306 0.988097 -0.01536 -0.215909 0.971058 -0.102128 0.232133 -0.972649 -0.008271 0.215408 -0.976496 0.007479 0.232133 -0.972649 -0.008271 0.246958 -0.968893 -0.016094 -0.058135 0.99215 0.110718 -0.026602 0.989527 0.141878 0.075691 0.970364 0.229488 0.246936 -0.96891 0.015374 -0.263808 -0.964087 0.030677 -0.263808 -0.964087 0.030677 -0.287485 -0.956661 0.046388 0.130891 0.991396 0.000638 0.146323 0.989122 -0.015063 0.170094 0.982337 -0.077989 0.209041 0.972637 -0.101389 -0.225084 -0.974302 -0.008561 -0.225084 -0.974302 -0.008561 -0.210066 -0.977661 0.007206 -0.249155 -0.968324 -0.016473 0.059975 0.992026 0.110852 0.020521 0.989659 0.141964 -0.082066 0.969939 0.229093 -0.249177 -0.968341 0.015056</float_array>
          <technique_common>
            <accessor source="#GeometrySource9-array" count="30" stride="3">
              <param name="X" type="float"/>
              <param name="Y" type="float"/>
              <param name="Z" type="float"/>
            </accessor>
          </technique_common>
        </source>
        <source id="GeometrySource10" name="piki_ninjin_body__leaf_matUV">
          <float_array id="GeometrySource10-array" count="60">0.399649 0.486519 0.765927 0.486274 0.597925 0.199359 0.399359 0.071625 0.597925 0.199359 0.399649 0.486519 0.765927 0.486274 0.228367 0.172015 0.043427 0.486763 0.399649 0.486519 0.399359 0.071625 0.228367 0.172015 0.068711 0.486748 0.043427 0.486763 0.399359 0.071625 0.399649 0.486519 0.597925 0.199359 0.765927 0.486274 0.399359 0.071625 0.399649 0.486519 0.597925 0.199359 0.765927 0.486274 0.228367 0.172015 0.399649 0.486519 0.043427 0.486763 0.399359 0.071625 0.228367 0.172015 0.068711 0.486748 0.043427 0.486763 0.399359 0.071625</float_array>
          <technique_common>
            <accessor source="#GeometrySource10-array" count="30" stride="2">
              <param name="S" type="float"/>
              <param name="T" type="float"/>
            </accessor>
          </technique_common>
        </source>
        <source id="GeometrySource11" name="piki_ninjin_body__leaf_matClr">
          <float_array id="GeometrySource11-array" count="120">1 1 1 1 1 1 1 1 1 1 1 1 1 1 1 1 1 1 1 1 1 1 1 1 1 1 1 1 1 1 1 1 1 1 1 1 1 1 1 1 1 1 1 1 1 1 1 1 1 1 1 1 1 1 1 1 1 1 1 1 1 1 1 1 1 1 1 1 1 1 1 1 1 1 1 1 1 1 1 1 1 1 1 1 1 1 1 1 1 1 1 1 1 1 1 1 1 1 1 1 1 1 1 1 1 1 1 1 1 1 1 1 1 1 1 1 1 1 1 1</float_array>
          <technique_common>
            <accessor source="#GeometrySource11-array" count="30" stride="4">
              <param name="R" type="float"/>
              <param name="G" type="float"/>
              <param name="B" type="float"/>
              <param name="A" type="float"/>
            </accessor>
          </technique_common>
        </source>
        <vertices id="Geometry2-vertices">
          <input semantic="POSITION" source="#GeometrySource8"/>
          <input semantic="NORMAL" source="#GeometrySource9"/>
          <input semantic="TEXCOORD" source="#GeometrySource10"/>
          <input semantic="COLOR" source="#GeometrySource11"/>
        </vertices>
        <triangles material="VisualMaterial20" count="18">
          <input semantic="VERTEX" source="#Geometry2-vertices" offset="0"/>
          <p>0 1 2 3 4 5 4 6 5 7 8 9 9 10 7 11 3 5 11 5 12 12 13 11 0 2 14 15 16 17 18 19 20 20 19 21 22 23 24 23 22 25 26 19 18 26 27 19 27 26 28 15 29 16</p>
        </triangles>
      </mesh>
    </geometry>
  </library_geometries>
  <library_controllers>
    <controller id="Controller">
      <skin source="#Geometry">
        <bind_shape_matrix>1 0 0 0 0 1 0 0 0 0 1 0 0 0 0 1</bind_shape_matrix>
        <source id="Controller-joints">
          <Name_array id="Controller-joints-array" count="11">kosinull legcentre llegjnt rlegjnt sebonjnt headjnt happajnt1 happajnt2 happajnt3 lhandjnt rhandjnt</Name_array>
          <technique_common>
            <accessor source="#Controller-joints-array" count="11" stride="1">
              <param name="JOINT" type="Name"/>
            </accessor>
          </technique_common>
        </source>
        <source id="Controller-bind_poses">
          <float_array id="Controller-bind_poses-array" count="176">1 0 0 -0.000029 0 0 -1 -3.55007 0 1 0 0 0 0 0 1 1 0 0 -0.000029 0 0 -1 -3.55007 0 1 0 0 0 0 0 1 -0.0016 -0.139374 0.990239 2.53001 -0.004783 -0.990227 -0.13938 0.186965 0.999987 -0.00496 0.000917 -0.728861 0 0 0 1 -0.0016 -0.139374 0.990239 2.53 -0.004783 -0.990228 -0.13938 0.18696 0.999987 -0.004959 0.000918 0.735442 0 0 0 1 0.000609 -0.061696 -0.998095 -3.54647 0.005007 0.998083 -0.061692 -0.221666 0.999987 -0.00496 0.000917 0.001614 0 0 0 1 0.000622 -0.059146 -0.998249 -8.03327 0.005006 0.998237 -0.059142 -0.198205 0.999987 -0.00496 0.000917 0.001614 0 0 0 1 0.001007 0.000549 -1 -13.0241 0.00496 0.999988 0.000554 -0.106726 0.999987 -0.00496 0.001005 0.003306 0 0 0 1 0.000995 0.000549 -0.999999 -17.8225 0.00496 0.999988 0.000554 -0.106724 0.999987 -0.00496 0.000993 0.003089 0 0 0 1 0.000702 0.00055 -1 -22.4186 0.00496 0.999988 0.000554 -0.106717 0.999987 -0.00496 0.000699 -0.003487 0 0 0 1 0.998085 0.060734 0.011724 -1.44079 0.060736 -0.998154 0.000223 -0.245035 0.011716 0.000488 -0.999931 -6.08237 0 0 0 1 -0.997454 0.070632 0.009894 -1.444 -0.070634 -0.997503 0.000089 -0.245325 0.009876 -0.000609 0.999951 6.08241 0 0 0 1</float_array>
          <technique_common>
            <accessor source="#Controller-bind_poses-array" count="11" stride="16">
              <param name="TRANSFORM" type="float4x4"/>
            </accessor>
          </technique_common>
        </source>
        <source id="Controller-weights">
          <float_array id="Controller-weights-array" count="1">1</float_array>
          <technique_common>
            <accessor source="#Controller-weights-array" count="1" stride="1">
              <param name="WEIGHT" type="float"/>
            </accessor>
          </technique_common>
        </source>
        <joints>
          <input semantic="JOINT" source="#Controller-joints"/>
          <input semantic="INV_BIND_MATRIX" source="#Controller-bind_poses"/>
        </joints>
        <vertex_weights count="164">
          <input semantic="JOINT" source="#Controller-joints" offset="0"/>
          <input semantic="WEIGHT" source="#Controller-weights" offset="1"/>
          <vcount>1 1 1 1 1 1 1 1 1 1 1 1 1 1 1 1 1 1 1 1 1 1 1 1 1 1 1 1 1 1 1 1 1 1 1 1 1 1 1 1 1 1 1 1 1 1 1 1 1 1 1 1 1 1 1 1 1 1 1 1 1 1 1 1 1 1 1 1 1 1 1 1 1 1 1 1 1 1 1 1 1 1 1 1 1 1 1 1 1 1 1 1 1 1 1 1 1 1 1 1 1 1 1 1 1 1 1 1 1 1 1 1 1 1 1 1 1 1 1 1 1 1 1 1 1 1 1 1 1 1 1 1 1 1 1 1 1 1 1 1 1 1 1 1 1 1 1 1 1 1 1 1 1 1 1 1 1 1 1 1 1 1 1 1 </vcount>
          <v>5 0 5 0 5 0 5 0 5 0 5 0 5 0 5 0 5 0 5 0 5 0 5 0 5 0 5 0 5 0 5 0 5 0 5 0 5 0 5 0 5 0 5 0 5 0 5 0 5 0 5 0 5 0 5 0 5 0 5 0 5 0 5 0 5 0 5 0 5 0 5 0 5 0 5 0 5 0 5 0 5 0 5 0 5 0 5 0 5 0 5 0 5 0 5 0 5 0 5 0 5 0 5 0 5 0 5 0 5 0 5 0 5 0 5 0 5 0 5 0 5 0 5 0 5 0 5 0 5 0 5 0 5 0 5 0 5 0 5 0 5 0 5 0 5 0 5 0 5 0 5 0 5 0 5 0 5 0 5 0 5 0 5 0 5 0 5 0 5 0 5 0 5 0 5 0 5 0 5 0 5 0 5 0 5 0 5 0 5 0 5 0 5 0 5 0 5 0 5 0 5 0 5 0 5 0 5 0 5 0 5 0 5 0 5 0 5 0 5 0 5 0 5 0 5 0 5 0 5 0 5 0 5 0 5 0 5 0 5 0 5 0 5 0 5 0 5 0 5 0 5 0 5 0 5 0 5 0 5 0 5 0 5 0 5 0 5 0 5 0 5 0 5 0 5 0 5 0 5 0 5 0 5 0 5 0 5 0 5 0 5 0 5 0 5 0 5 0 5 0 5 0 5 0 5 0 5 0 5 0 5 0 5 0 5 0 5 0 5 0 5 0 5 0 5 0 5 0</v>
        </vertex_weights>
      </skin>
      <extra>
        <technique profile="FCOLLADA">
          <user_properties>SkinController</user_properties>
        </technique>
      </extra>
    </controller>
    <controller id="Controller1">
      <skin source="#Geometry1">
        <bind_shape_matrix>1 0 0 0 0 1 0 0 0 0 1 0 0 0 0 1</bind_shape_matrix>
        <source id="Controller1-joints">
          <Name_array id="Controller1-joints-array" count="11">kosinull legcentre llegjnt rlegjnt sebonjnt headjnt happajnt1 happajnt2 happajnt3 lhandjnt rhandjnt</Name_array>
          <technique_common>
            <accessor source="#Controller1-joints-array" count="11" stride="1">
              <param name="JOINT" type="Name"/>
            </accessor>
          </technique_common>
        </source>
        <source id="Controller1-bind_poses">
          <float_array id="Controller1-bind_poses-array" count="176">1 0 0 -0.000029 0 0 -1 -3.55007 0 1 0 0 0 0 0 1 1 0 0 -0.000029 0 0 -1 -3.55007 0 1 0 0 0 0 0 1 -0.0016 -0.139374 0.990239 2.53001 -0.004783 -0.990227 -0.13938 0.186965 0.999987 -0.00496 0.000917 -0.728861 0 0 0 1 -0.0016 -0.139374 0.990239 2.53 -0.004783 -0.990228 -0.13938 0.18696 0.999987 -0.004959 0.000918 0.735442 0 0 0 1 0.000609 -0.061696 -0.998095 -3.54647 0.005007 0.998083 -0.061692 -0.221666 0.999987 -0.00496 0.000917 0.001614 0 0 0 1 0.000622 -0.059146 -0.998249 -8.03327 0.005006 0.998237 -0.059142 -0.198205 0.999987 -0.00496 0.000917 0.001614 0 0 0 1 0.001007 0.000549 -1 -13.0241 0.00496 0.999988 0.000554 -0.106726 0.999987 -0.00496 0.001005 0.003306 0 0 0 1 0.000995 0.000549 -0.999999 -17.8225 0.00496 0.999988 0.000554 -0.106724 0.999987 -0.00496 0.000993 0.003089 0 0 0 1 0.000702 0.00055 -1 -22.4186 0.00496 0.999988 0.000554 -0.106717 0.999987 -0.00496 0.000699 -0.003487 0 0 0 1 0.998085 0.060734 0.011724 -1.44079 0.060736 -0.998154 0.000223 -0.245035 0.011716 0.000488 -0.999931 -6.08237 0 0 0 1 -0.997454 0.070632 0.009894 -1.444 -0.070634 -0.997503 0.000089 -0.245325 0.009876 -0.000609 0.999951 6.08241 0 0 0 1</float_array>
          <technique_common>
            <accessor source="#Controller1-bind_poses-array" count="11" stride="16">
              <param name="TRANSFORM" type="float4x4"/>
            </accessor>
          </technique_common>
        </source>
        <source id="Controller1-weights">
          <float_array id="Controller1-weights-array" count="1">1</float_array>
          <technique_common>
            <accessor source="#Controller1-weights-array" count="1" stride="1">
              <param name="WEIGHT" type="float"/>
            </accessor>
          </technique_common>
        </source>
        <joints>
          <input semantic="JOINT" source="#Controller1-joints"/>
          <input semantic="INV_BIND_MATRIX" source="#Controller1-bind_poses"/>
        </joints>
        <vertex_weights count="33">
          <input semantic="JOINT" source="#Controller1-joints" offset="0"/>
          <input semantic="WEIGHT" source="#Controller1-weights" offset="1"/>
          <vcount>1 1 1 1 1 1 1 1 1 1 1 1 1 1 1 1 1 1 1 1 1 1 1 1 1 1 1 1 1 1 1 1 1 </vcount>
          <v>8 0 7 0 7 0 7 0 7 0 7 0 7 0 7 0 7 0 6 0 6 0 6 0 6 0 6 0 6 0 6 0 6 0 5 0 5 0 5 0 5 0 5 0 5 0 5 0 5 0 5 0 5 0 5 0 5 0 5 0 5 0 5 0 5 0</v>
        </vertex_weights>
      </skin>
      <extra>
        <technique profile="FCOLLADA">
          <user_properties>SkinController</user_properties>
        </technique>
      </extra>
    </controller>
    <controller id="Controller2">
      <skin source="#Geometry2">
        <bind_shape_matrix>1 0 0 0 0 1 0 0 0 0 1 0 0 0 0 1</bind_shape_matrix>
        <source id="Controller2-joints">
          <Name_array id="Controller2-joints-array" count="11">kosinull legcentre llegjnt rlegjnt sebonjnt headjnt happajnt1 happajnt2 happajnt3 lhandjnt rhandjnt</Name_array>
          <technique_common>
            <accessor source="#Controller2-joints-array" count="11" stride="1">
              <param name="JOINT" type="Name"/>
            </accessor>
          </technique_common>
        </source>
        <source id="Controller2-bind_poses">
          <float_array id="Controller2-bind_poses-array" count="176">1 0 0 -0.000029 0 0 -1 -3.55007 0 1 0 0 0 0 0 1 1 0 0 -0.000029 0 0 -1 -3.55007 0 1 0 0 0 0 0 1 -0.0016 -0.139374 0.990239 2.53001 -0.004783 -0.990227 -0.13938 0.186965 0.999987 -0.00496 0.000917 -0.728861 0 0 0 1 -0.0016 -0.139374 0.990239 2.53 -0.004783 -0.990228 -0.13938 0.18696 0.999987 -0.004959 0.000918 0.735442 0 0 0 1 0.000609 -0.061696 -0.998095 -3.54647 0.005007 0.998083 -0.061692 -0.221666 0.999987 -0.00496 0.000917 0.001614 0 0 0 1 0.000622 -0.059146 -0.998249 -8.03327 0.005006 0.998237 -0.059142 -0.198205 0.999987 -0.00496 0.000917 0.001614 0 0 0 1 0.001007 0.000549 -1 -13.0241 0.00496 0.999988 0.000554 -0.106726 0.999987 -0.00496 0.001005 0.003306 0 0 0 1 0.000995 0.000549 -0.999999 -17.8225 0.00496 0.999988 0.000554 -0.106724 0.999987 -0.00496 0.000993 0.003089 0 0 0 1 0.000702 0.00055 -1 -22.4186 0.00496 0.999988 0.000554 -0.106717 0.999987 -0.00496 0.000699 -0.003487 0 0 0 1 0.998085 0.060734 0.011724 -1.44079 0.060736 -0.998154 0.000223 -0.245035 0.011716 0.000488 -0.999931 -6.08237 0 0 0 1 -0.997454 0.070632 0.009894 -1.444 -0.070634 -0.997503 0.000089 -0.245325 0.009876 -0.000609 0.999951 6.08241 0 0 0 1</float_array>
          <technique_common>
            <accessor source="#Controller2-bind_poses-array" count="11" stride="16">
              <param name="TRANSFORM" type="float4x4"/>
            </accessor>
          </technique_common>
        </source>
        <source id="Controller2-weights">
          <float_array id="Controller2-weights-array" count="1">1</float_array>
          <technique_common>
            <accessor source="#Controller2-weights-array" count="1" stride="1">
              <param name="WEIGHT" type="float"/>
            </accessor>
          </technique_common>
        </source>
        <joints>
          <input semantic="JOINT" source="#Controller2-joints"/>
          <input semantic="INV_BIND_MATRIX" source="#Controller2-bind_poses"/>
        </joints>
        <vertex_weights count="30">
          <input semantic="JOINT" source="#Controller2-joints" offset="0"/>
          <input semantic="WEIGHT" source="#Controller2-weights" offset="1"/>
          <vcount>1 1 1 1 1 1 1 1 1 1 1 1 1 1 1 1 1 1 1 1 1 1 1 1 1 1 1 1 1 1 </vcount>
          <v>8 0 8 0 8 0 8 0 8 0 8 0 8 0 8 0 8 0 8 0 8 0 8 0 8 0 8 0 8 0 8 0 8 0 8 0 8 0 8 0 8 0 8 0 8 0 8 0 8 0 8 0 8 0 8 0 8 0 8 0</v>
        </vertex_weights>
      </skin>
      <extra>
        <technique profile="FCOLLADA">
          <user_properties>SkinController</user_properties>
        </technique>
      </extra>
    </controller>
  </library_controllers>
  <library_visual_scenes>
    <visual_scene id="VisualSceneNode" name="rdmscene">
      <node id="VisualSceneNode1" name="kosinull" sid="kosinull" type="JOINT">
        <matrix>1 0 0 0.000029 0 0 1 0 0 -1 0 -3.55007 0 0 0 1</matrix>
        <node id="VisualSceneNode2" name="legcentre" sid="legcentre" type="JOINT">
          <matrix>1 0 0 0 0 1 0 0 0 0 1 0 0 0 0 1</matrix>
          <node id="VisualSceneNode3" name="llegjnt" sid="llegjnt" type="JOINT">
            <matrix>-0.0016 -0.004783 0.999987 0.733766 -0.990239 0.13938 -0.000917 -1.07149 -0.139374 -0.990227 -0.00496 0.534139 0 0 0 1</matrix>
          </node>
          <node id="VisualSceneNode4" name="rlegjnt" sid="rlegjnt" type="JOINT">
            <matrix>-0.0016 -0.004783 0.999987 -0.730518 -0.990239 0.13938 -0.000918 -1.07015 -0.139374 -0.990228 -0.004959 0.541397 0 0 0 1</matrix>
          </node>
        </node>
        <node id="VisualSceneNode5" name="sebonjnt" sid="sebonjnt" type="JOINT">
          <matrix>0.000609 0.005007 0.999987 0.001629 0.998095 0.061692 -0.000917 0.003317 -0.061696 0.998083 -0.00496 0.002445 0 0 0 1</matrix>
          <node id="VisualSceneNode6" name="headjnt" sid="headjnt" type="JOINT">
            <matrix>0.999997 -0.002554 0 4.48626 0.002554 0.999997 0 -0.002939 0 0 1 0 0 0 0 1</matrix>
            <node id="VisualSceneNode7" name="happajnt1" sid="happajnt1" type="JOINT">
              <matrix>0.998217 -0.059695 -0.000087 4.9612 0.059695 0.998217 -0.000005 0.685812 0.000087 0 1 -0.000549 0 0 0 1</matrix>
              <node id="VisualSceneNode8" name="happajnt2" sid="happajnt2" type="JOINT">
                <matrix>1 0 0.000012 4.7984 0 1 0 -0.000001 -0.000012 0 1 0 0 0 0 1</matrix>
                <node id="VisualSceneNode9" name="happajnt3" sid="happajnt3" type="JOINT">
                  <matrix>1 -0.000000 0.000293 4.59613 0.000000 1 0 -0.000004 -0.000293 0 1 0 0 0 0 1</matrix>
                </node>
              </node>
            </node>
          </node>
          <node id="VisualSceneNode10" name="lhandjnt" sid="lhandjnt" type="JOINT">
            <matrix>-0.014841 0.061396 0.998003 2.51742 0.064893 -0.99595 0.062234 0.006323 0.997782 0.065687 0.010796 1.52097 0 0 0 1</matrix>
          </node>
          <node id="VisualSceneNode11" name="rhandjnt" sid="rhandjnt" type="JOINT">
            <matrix>-0.014841 0.061409 -0.998003 2.51742 0.064891 -0.995949 -0.062248 0.006322 -0.997782 -0.065685 0.010796 -1.52097 0 0 0 1</matrix>
          </node>
        </node>
      </node>
      <node id="VisualSceneNode12" name="piki_ninjin_body__body_mat" type="NODE">
        <matrix>1 0 0 0 0 1 0 0 0 0 1 0 0 0 0 1</matrix>
        <instance_controller url="#Controller">
          <skeleton>#VisualSceneNode1</skeleton>
          <bind_material>
            <technique_common>
              <instance_material symbol="VisualMaterial0" target="#VisualMaterial"/>
            </technique_common>
          </bind_material>
        </instance_controller>
      </node>
      <node id="VisualSceneNode13" name="piki_ninjin_body__kuki_mat" type="NODE">
        <matrix>1 0 0 0 0 1 0 0 0 0 1 0 0 0 0 1</matrix>
        <instance_controller url="#Controller1">
          <skeleton>#VisualSceneNode1</skeleton>
          <bind_material>
            <technique_common>
              <instance_material symbol="VisualMaterial10" target="#VisualMaterial1"/>
            </technique_common>
          </bind_material>
        </instance_controller>
      </node>
      <node id="VisualSceneNode14" name="piki_ninjin_body__leaf_mat" type="NODE">
        <matrix>1 0 0 0 0 1 0 0 0 0 1 0 0 0 0 1</matrix>
        <instance_controller url="#Controller2">
          <skeleton>#VisualSceneNode1</skeleton>
          <bind_material>
            <technique_common>
              <instance_material symbol="VisualMaterial20" target="#VisualMaterial2"/>
            </technique_common>
          </bind_material>
        </instance_controller>
      </node>
    </visual_scene>
  </library_visual_scenes>
  <scene>
    <instance_visual_scene url="#VisualSceneNode"/>
  </scene>
</COLLADA>
