version 1
nodes
0 "blender_implicit" -1
1 "kosinull" -1
2 "legcentre" 1
3 "llegjnt" 2
4 "rlegjnt" 2
5 "sebonjnt" 1
6 "headjnt" 5
7 "happajnt1" 6
8 "happajnt2" 7
9 "happajnt3" 8
10 "lhandjnt" 5
11 "rhandjnt" 5
end
skeleton
time 0
0  0.000000 0.000000 0.000000  0.000000 -0.000000 0.000000
1  0.000029 3.550070 0.000001  0.000000 -0.000000 0.000000
2  0.000000 0.000000 0.000000  0.000000 -0.000000 0.000000
3  0.733764 -1.071486 0.534140  -1.575804 0.139848 -1.572383
4  -0.730519 -1.070151 0.541395  -1.575801 0.139848 -1.572366
5  0.001628 0.003319 0.002447  1.575766 0.061729 1.570186
6  4.486269 -0.002964 0.000001  -0.000109 -0.004541 -1.430883
7  0.000003 5.008399 0.000000  -0.000155 -0.000422 -0.077634
8  -0.000008 4.798414 -0.000000  -0.000016 -0.000004 0.000001
9  0.000000 4.596084 0.000000  0.004961 0.000291 1.570678
10  2.517418 0.006310 1.520972  1.412620 -1.504219 1.790670
11  2.517426 0.006313 -1.520957  -1.400221 1.504078 1.803523
end
triangles
leaf_mat
0  -0.000015 27.529900 0.096504  0.000000 -0.008759 -0.999939  0.399649 0.486519 1 9 1.000000
0  -0.000018 33.156399 -0.158132  0.000000 0.991699 -0.128330  0.765927 0.486274 1 9 1.000000
0  1.864000 30.578699 0.518490  0.845058 0.500443 0.188086  0.597925 0.199359 1 9 1.000000
leaf_mat
0  2.694450 27.529900 0.777533  0.978881 0.009796 0.204047  0.399359 0.071625 1 9 1.000000
0  1.864000 30.578699 0.518490  0.845058 0.500443 0.188086  0.597925 0.199359 1 9 1.000000
0  -0.000015 27.529900 0.425179  0.000000 0.009186 0.999939  0.399649 0.486519 1 9 1.000000
leaf_mat
0  1.864000 30.578699 0.518490  0.845058 0.500443 0.188086  0.597925 0.199359 1 9 1.000000
0  -0.000018 33.156399 -0.158132  0.000000 0.991699 -0.128330  0.765927 0.486274 1 9 1.000000
0  -0.000015 27.529900 0.425179  0.000000 0.009186 0.999939  0.399649 0.486519 1 9 1.000000
leaf_mat
0  2.043280 24.902300 0.558702  0.886990 -0.439528 0.141484  0.228367 0.172015 1 9 1.000000
0  -0.000011 22.411900 0.129348  0.000000 -0.990204 -0.139592  0.043427 0.486763 1 9 1.000000
0  -0.000015 27.529900 0.096504  0.000000 -0.008759 -0.999939  0.399649 0.486519 1 9 1.000000
leaf_mat
0  -0.000015 27.529900 0.096504  0.000000 -0.008759 -0.999939  0.399649 0.486519 1 9 1.000000
0  2.694450 27.529900 0.777533  0.978881 0.009796 0.204047  0.399359 0.071625 1 9 1.000000
0  2.043280 24.902300 0.558702  0.886990 -0.439528 0.141484  0.228367 0.172015 1 9 1.000000
leaf_mat
0  2.043280 24.902300 0.558702  0.886990 -0.439528 0.141484  0.228367 0.172015 1 9 1.000000
0  2.694450 27.529900 0.777533  0.978881 0.009796 0.204047  0.399359 0.071625 1 9 1.000000
0  -0.000015 27.529900 0.425179  0.000000 0.009186 0.999939  0.399649 0.486519 1 9 1.000000
leaf_mat
0  2.043280 24.902300 0.558702  0.886990 -0.439528 0.141484  0.228367 0.172015 1 9 1.000000
0  -0.000015 27.529900 0.425179  0.000000 0.009186 0.999939  0.399649 0.486519 1 9 1.000000
0  -0.000012 22.660200 0.188583  0.000000 -0.189642 0.981842  0.068711 0.486748 1 9 1.000000
leaf_mat
0  -0.000012 22.660200 0.188583  0.000000 -0.189642 0.981842  0.068711 0.486748 1 9 1.000000
0  -0.000011 22.411900 0.129348  0.000000 -0.990204 -0.139592  0.043427 0.486763 1 9 1.000000
0  2.043280 24.902300 0.558702  0.886990 -0.439528 0.141484  0.228367 0.172015 1 9 1.000000
leaf_mat
0  -0.000015 27.529900 0.096504  0.000000 -0.008759 -0.999939  0.399649 0.486519 1 9 1.000000
0  1.864000 30.578699 0.518490  0.845058 0.500443 0.188086  0.597925 0.199359 1 9 1.000000
0  2.694450 27.529900 0.777533  0.978881 0.009796 0.204047  0.399359 0.071625 1 9 1.000000
leaf_mat
0  -0.000015 27.529900 0.096504  0.000000 -0.008759 -0.999939  0.399649 0.486519 1 9 1.000000
0  -1.864030 30.578699 0.518488  -0.845058 0.500443 0.188086  0.597925 0.199359 1 9 1.000000
0  -0.000018 33.156399 -0.158132  0.000000 0.991699 -0.128330  0.765927 0.486274 1 9 1.000000
leaf_mat
0  -2.694480 27.529900 0.777531  -0.978881 0.009796 0.204047  0.399359 0.071625 1 9 1.000000
0  -0.000015 27.529900 0.425179  0.000000 0.009186 0.999939  0.399649 0.486519 1 9 1.000000
0  -1.864030 30.578699 0.518488  -0.845058 0.500443 0.188086  0.597925 0.199359 1 9 1.000000
leaf_mat
0  -1.864030 30.578699 0.518488  -0.845058 0.500443 0.188086  0.597925 0.199359 1 9 1.000000
0  -0.000015 27.529900 0.425179  0.000000 0.009186 0.999939  0.399649 0.486519 1 9 1.000000
0  -0.000018 33.156399 -0.158132  0.000000 0.991699 -0.128330  0.765927 0.486274 1 9 1.000000
leaf_mat
0  -2.043300 24.902300 0.558700  -0.886990 -0.439528 0.141484  0.228367 0.172015 1 9 1.000000
0  -0.000015 27.529900 0.096504  0.000000 -0.008759 -0.999939  0.399649 0.486519 1 9 1.000000
0  -0.000011 22.411900 0.129348  0.000000 -0.990204 -0.139592  0.043427 0.486763 1 9 1.000000
leaf_mat
0  -0.000015 27.529900 0.096504  0.000000 -0.008759 -0.999939  0.399649 0.486519 1 9 1.000000
0  -2.043300 24.902300 0.558700  -0.886990 -0.439528 0.141484  0.228367 0.172015 1 9 1.000000
0  -2.694480 27.529900 0.777531  -0.978881 0.009796 0.204047  0.399359 0.071625 1 9 1.000000
leaf_mat
0  -2.043300 24.902300 0.558700  -0.886990 -0.439528 0.141484  0.228367 0.172015 1 9 1.000000
0  -0.000015 27.529900 0.425179  0.000000 0.009186 0.999939  0.399649 0.486519 1 9 1.000000
0  -2.694480 27.529900 0.777531  -0.978881 0.009796 0.204047  0.399359 0.071625 1 9 1.000000
leaf_mat
0  -2.043300 24.902300 0.558700  -0.886990 -0.439528 0.141484  0.228367 0.172015 1 9 1.000000
0  -0.000012 22.660200 0.188583  0.000000 -0.189642 0.981842  0.068711 0.486748 1 9 1.000000
0  -0.000015 27.529900 0.425179  0.000000 0.009186 0.999939  0.399649 0.486519 1 9 1.000000
leaf_mat
0  -0.000012 22.660200 0.188583  0.000000 -0.189642 0.981842  0.068711 0.486748 1 9 1.000000
0  -2.043300 24.902300 0.558700  -0.886990 -0.439528 0.141484  0.228367 0.172015 1 9 1.000000
0  -0.000011 22.411900 0.129348  0.000000 -0.990204 -0.139592  0.043427 0.486763 1 9 1.000000
leaf_mat
0  -0.000015 27.529900 0.096504  0.000000 -0.008759 -0.999939  0.399649 0.486519 1 9 1.000000
0  -2.694480 27.529900 0.777531  -0.978881 0.009796 0.204047  0.399359 0.071625 1 9 1.000000
0  -1.864030 30.578699 0.518488  -0.845058 0.500443 0.188086  0.597925 0.199359 1 9 1.000000
kuki_mat
0  -0.000011 22.411900 0.129348  0.000000 -0.990204 -0.139592  0.968215 0.564660 1 9 1.000000
0  0.166048 19.336100 -0.166097  0.701834 0.089999 -0.706595  0.965087 0.658000 1 8 1.000000
0  -0.000005 19.336300 -0.234854  -0.000305 0.095828 -0.995392  0.969009 0.657969 1 8 1.000000
kuki_mat
0  -0.000011 22.411900 0.129348  0.000000 -0.990204 -0.139592  0.968215 0.564660 1 9 1.000000
0  -0.000005 19.336300 -0.234854  -0.000305 0.095828 -0.995392  0.969009 0.657969 1 8 1.000000
0  -0.166109 19.336399 -0.165914  -0.702017 0.089999 -0.706412  0.972930 0.657938 1 8 1.000000
kuki_mat
0  -0.000011 22.411900 0.129348  0.000000 -0.990204 -0.139592  0.968215 0.564660 1 9 1.000000
0  -0.166109 19.336399 -0.165914  -0.702017 0.089999 -0.706412  0.972930 0.657938 1 8 1.000000
0  -0.234867 19.336399 0.000017  -0.997101 0.075747 -0.004822  0.974548 0.657938 1 8 1.000000
kuki_mat
0  -0.000011 22.411900 0.129348  0.000000 -0.990204 -0.139592  0.968215 0.564660 1 9 1.000000
0  -0.234867 19.336399 0.000017  -0.997101 0.075747 -0.004822  0.974548 0.657938 1 8 1.000000
0  -0.166049 19.336199 0.166091  -0.708152 0.061098 0.703360  0.972930 0.657938 1 8 1.000000
kuki_mat
0  -0.000011 22.411900 0.129348  0.000000 -0.990204 -0.139592  0.968215 0.564660 1 9 1.000000
0  -0.166049 19.336199 0.166091  -0.708152 0.061098 0.703360  0.972930 0.657938 1 8 1.000000
0  0.000004 19.336000 0.234878  0.000092 0.054933 0.998474  0.969009 0.657969 1 8 1.000000
kuki_mat
0  -0.000011 22.411900 0.129348  0.000000 -0.990204 -0.139592  0.968215 0.564660 1 9 1.000000
0  0.000004 19.336000 0.234878  0.000092 0.054933 0.998474  0.969009 0.657969 1 8 1.000000
0  0.165986 19.335899 0.166092  0.708152 0.061098 0.703360  0.965087 0.658000 1 8 1.000000
kuki_mat
0  -0.000011 22.411900 0.129348  0.000000 -0.990204 -0.139592  0.968215 0.564660 1 9 1.000000
0  0.234865 19.335899 0.000006  0.997101 0.075747 -0.004639  0.963470 0.658000 1 8 1.000000
0  0.166048 19.336100 -0.166097  0.701834 0.089999 -0.706595  0.965087 0.658000 1 8 1.000000
kuki_mat
0  -0.000011 22.411900 0.129348  0.000000 -0.990204 -0.139592  0.968215 0.564660 1 9 1.000000
0  0.165986 19.335899 0.166092  0.708152 0.061098 0.703360  0.965087 0.658000 1 8 1.000000
0  0.234865 19.335899 0.000006  0.997101 0.075747 -0.004639  0.963470 0.658000 1 8 1.000000
kuki_mat
0  -0.234867 19.336399 0.000017  -0.997101 0.075747 -0.004822  0.974548 0.657938 1 8 1.000000
0  -0.166109 19.336399 -0.165914  -0.702017 0.089999 -0.706412  0.972930 0.657938 1 8 1.000000
0  -0.469185 16.219900 0.000003  -0.995300 0.096622 -0.000061  0.980835 0.823026 1 7 1.000000
kuki_mat
0  -0.234867 19.336399 0.000017  -0.997101 0.075747 -0.004822  0.974548 0.657938 1 8 1.000000
0  -0.331795 16.219500 0.331845  -0.703909 0.096652 0.703635  0.977584 0.823056 1 7 1.000000
0  -0.166049 19.336199 0.166091  -0.708152 0.061098 0.703360  0.972930 0.657938 1 8 1.000000
kuki_mat
0  -0.234867 19.336399 0.000017  -0.997101 0.075747 -0.004822  0.974548 0.657938 1 8 1.000000
0  -0.469185 16.219900 0.000003  -0.995300 0.096622 -0.000061  0.980835 0.823026 1 7 1.000000
0  -0.331795 16.219500 0.331845  -0.703909 0.096652 0.703635  0.977584 0.823056 1 7 1.000000
kuki_mat
0  -0.166109 19.336399 -0.165914  -0.702017 0.089999 -0.706412  0.972930 0.657938 1 8 1.000000
0  -0.331670 16.219900 -0.331860  -0.703726 0.096683 -0.703848  0.977584 0.823056 1 7 1.000000
0  -0.469185 16.219900 0.000003  -0.995300 0.096622 -0.000061  0.980835 0.823026 1 7 1.000000
kuki_mat
0  -0.166109 19.336399 -0.165914  -0.702017 0.089999 -0.706412  0.972930 0.657938 1 8 1.000000
0  -0.000005 19.336300 -0.234854  -0.000305 0.095828 -0.995392  0.969009 0.657969 1 8 1.000000
0  -0.331670 16.219900 -0.331860  -0.703726 0.096683 -0.703848  0.977584 0.823056 1 7 1.000000
kuki_mat
0  -0.000005 19.336300 -0.234854  -0.000305 0.095828 -0.995392  0.969009 0.657969 1 8 1.000000
0  -0.000003 16.219599 -0.469249  0.000000 0.096683 -0.995300  0.969741 0.823102 1 7 1.000000
0  -0.331670 16.219900 -0.331860  -0.703726 0.096683 -0.703848  0.977584 0.823056 1 7 1.000000
kuki_mat
0  -0.000005 19.336300 -0.234854  -0.000305 0.095828 -0.995392  0.969009 0.657969 1 8 1.000000
0  0.166048 19.336100 -0.166097  0.701834 0.089999 -0.706595  0.965087 0.658000 1 8 1.000000
0  -0.000003 16.219599 -0.469249  0.000000 0.096683 -0.995300  0.969741 0.823102 1 7 1.000000
kuki_mat
0  -0.166049 19.336199 0.166091  -0.708152 0.061098 0.703360  0.972930 0.657938 1 8 1.000000
0  -0.000007 16.221100 0.469240  -0.000122 0.096561 0.995300  0.969741 0.823102 1 7 1.000000
0  0.000004 19.336000 0.234878  0.000092 0.054933 0.998474  0.969009 0.657969 1 8 1.000000
kuki_mat
0  -0.166049 19.336199 0.166091  -0.708152 0.061098 0.703360  0.972930 0.657938 1 8 1.000000
0  -0.331795 16.219500 0.331845  -0.703909 0.096652 0.703635  0.977584 0.823056 1 7 1.000000
0  -0.000007 16.221100 0.469240  -0.000122 0.096561 0.995300  0.969741 0.823102 1 7 1.000000
kuki_mat
0  0.000004 19.336000 0.234878  0.000092 0.054933 0.998474  0.969009 0.657969 1 8 1.000000
0  -0.000007 16.221100 0.469240  -0.000122 0.096561 0.995300  0.969741 0.823102 1 7 1.000000
0  0.331789 16.220800 0.331850  0.703665 0.096561 0.703879  0.961913 0.823148 1 7 1.000000
kuki_mat
0  0.000004 19.336000 0.234878  0.000092 0.054933 0.998474  0.969009 0.657969 1 8 1.000000
0  0.331789 16.220800 0.331850  0.703665 0.096561 0.703879  0.961913 0.823148 1 7 1.000000
0  0.165986 19.335899 0.166092  0.708152 0.061098 0.703360  0.965087 0.658000 1 8 1.000000
kuki_mat
0  0.165986 19.335899 0.166092  0.708152 0.061098 0.703360  0.965087 0.658000 1 8 1.000000
0  0.469305 16.220900 0.000048  0.995300 0.096683 -0.000061  0.958663 0.823178 1 7 1.000000
0  0.234865 19.335899 0.000006  0.997101 0.075747 -0.004639  0.963470 0.658000 1 8 1.000000
kuki_mat
0  0.165986 19.335899 0.166092  0.708152 0.061098 0.703360  0.965087 0.658000 1 8 1.000000
0  0.331789 16.220800 0.331850  0.703665 0.096561 0.703879  0.961913 0.823148 1 7 1.000000
0  0.469305 16.220900 0.000048  0.995300 0.096683 -0.000061  0.958663 0.823178 1 7 1.000000
kuki_mat
0  0.234865 19.335899 0.000006  0.997101 0.075747 -0.004639  0.963470 0.658000 1 8 1.000000
0  0.469305 16.220900 0.000048  0.995300 0.096683 -0.000061  0.958663 0.823178 1 7 1.000000
0  0.331671 16.221199 -0.331732  0.703604 0.096622 -0.703970  0.961913 0.823148 1 7 1.000000
kuki_mat
0  0.234865 19.335899 0.000006  0.997101 0.075747 -0.004639  0.963470 0.658000 1 8 1.000000
0  0.331671 16.221199 -0.331732  0.703604 0.096622 -0.703970  0.961913 0.823148 1 7 1.000000
0  0.166048 19.336100 -0.166097  0.701834 0.089999 -0.706595  0.965087 0.658000 1 8 1.000000
kuki_mat
0  -0.000003 16.219599 -0.469249  0.000000 0.096683 -0.995300  0.969741 0.823102 1 7 1.000000
0  0.166048 19.336100 -0.166097  0.701834 0.089999 -0.706595  0.965087 0.658000 1 8 1.000000
0  0.331671 16.221199 -0.331732  0.703604 0.096622 -0.703970  0.961913 0.823148 1 7 1.000000
kuki_mat
0  -0.469185 16.219900 0.000003  -0.995300 0.096622 -0.000061  0.980835 0.823026 1 7 1.000000
0  -0.331670 16.219900 -0.331860  -0.703726 0.096683 -0.703848  0.977584 0.823056 1 7 1.000000
0  -0.822004 13.232699 -0.000216  -0.878140 0.478347 0.000610  0.989807 0.933455 1 6 1.000000
kuki_mat
0  -0.469185 16.219900 0.000003  -0.995300 0.096622 -0.000061  0.980835 0.823026 1 7 1.000000
0  -0.822004 13.232699 -0.000216  -0.878140 0.478347 0.000610  0.989807 0.933455 1 6 1.000000
0  -0.581328 13.231800 0.580714  -0.621265 0.478622 0.620380  0.984115 0.933486 1 6 1.000000
kuki_mat
0  -0.469185 16.219900 0.000003  -0.995300 0.096622 -0.000061  0.980835 0.823026 1 7 1.000000
0  -0.581328 13.231800 0.580714  -0.621265 0.478622 0.620380  0.984115 0.933486 1 6 1.000000
0  -0.331795 16.219500 0.331845  -0.703909 0.096652 0.703635  0.977584 0.823056 1 7 1.000000
kuki_mat
0  -0.331795 16.219500 0.331845  -0.703909 0.096652 0.703635  0.977584 0.823056 1 7 1.000000
0  -0.000006 13.230100 0.822470  0.000305 0.482681 0.875790  0.970382 0.933577 1 6 1.000000
0  -0.000007 16.221100 0.469240  -0.000122 0.096561 0.995300  0.969741 0.823102 1 7 1.000000
kuki_mat
0  -0.331795 16.219500 0.331845  -0.703909 0.096652 0.703635  0.977584 0.823056 1 7 1.000000
0  -0.581328 13.231800 0.580714  -0.621265 0.478622 0.620380  0.984115 0.933486 1 6 1.000000
0  -0.000006 13.230100 0.822470  0.000305 0.482681 0.875790  0.970382 0.933577 1 6 1.000000
kuki_mat
0  -0.331670 16.219900 -0.331860  -0.703726 0.096683 -0.703848  0.977584 0.823056 1 7 1.000000
0  -0.000003 16.219599 -0.469249  0.000000 0.096683 -0.995300  0.969741 0.823102 1 7 1.000000
0  -0.581232 13.233299 -0.581508  -0.620350 0.477981 -0.621815  0.984115 0.933486 1 6 1.000000
kuki_mat
0  -0.331670 16.219900 -0.331860  -0.703726 0.096683 -0.703848  0.977584 0.823056 1 7 1.000000
0  -0.581232 13.233299 -0.581508  -0.620350 0.477981 -0.621815  0.984115 0.933486 1 6 1.000000
0  -0.822004 13.232699 -0.000216  -0.878140 0.478347 0.000610  0.989807 0.933455 1 6 1.000000
kuki_mat
0  -0.000003 16.219599 -0.469249  0.000000 0.096683 -0.995300  0.969741 0.823102 1 7 1.000000
0  0.331671 16.221199 -0.331732  0.703604 0.096622 -0.703970  0.961913 0.823148 1 7 1.000000
0  -0.000004 13.230499 -0.822175  -0.000580 0.481491 -0.876431  0.970382 0.933577 1 6 1.000000
kuki_mat
0  -0.000003 16.219599 -0.469249  0.000000 0.096683 -0.995300  0.969741 0.823102 1 7 1.000000
0  -0.000004 13.230499 -0.822175  -0.000580 0.481491 -0.876431  0.970382 0.933577 1 6 1.000000
0  -0.581232 13.233299 -0.581508  -0.620350 0.477981 -0.621815  0.984115 0.933486 1 6 1.000000
kuki_mat
0  -0.000007 16.221100 0.469240  -0.000122 0.096561 0.995300  0.969741 0.823102 1 7 1.000000
0  0.581285 13.231001 0.580796  0.620441 0.481307 0.619160  0.956664 0.933669 1 6 1.000000
0  0.331789 16.220800 0.331850  0.703665 0.096561 0.703879  0.961913 0.823148 1 7 1.000000
kuki_mat
0  -0.000007 16.221100 0.469240  -0.000122 0.096561 0.995300  0.969741 0.823102 1 7 1.000000
0  -0.000006 13.230100 0.822470  0.000305 0.482681 0.875790  0.970382 0.933577 1 6 1.000000
0  0.581285 13.231001 0.580796  0.620441 0.481307 0.619160  0.956664 0.933669 1 6 1.000000
kuki_mat
0  0.331789 16.220800 0.331850  0.703665 0.096561 0.703879  0.961913 0.823148 1 7 1.000000
0  0.581285 13.231001 0.580796  0.620441 0.481307 0.619160  0.956664 0.933669 1 6 1.000000
0  0.822059 13.231700 -0.000085  0.878353 0.477950 0.000793  0.950973 0.933700 1 6 1.000000
kuki_mat
0  0.331789 16.220800 0.331850  0.703665 0.096561 0.703879  0.961913 0.823148 1 7 1.000000
0  0.822059 13.231700 -0.000085  0.878353 0.477950 0.000793  0.950973 0.933700 1 6 1.000000
0  0.469305 16.220900 0.000048  0.995300 0.096683 -0.000061  0.958663 0.823178 1 7 1.000000
kuki_mat
0  0.469305 16.220900 0.000048  0.995300 0.096683 -0.000061  0.958663 0.823178 1 7 1.000000
0  0.581380 13.232599 -0.581465  0.621204 0.478317 -0.620716  0.956664 0.933669 1 6 1.000000
0  0.331671 16.221199 -0.331732  0.703604 0.096622 -0.703970  0.961913 0.823148 1 7 1.000000
kuki_mat
0  0.331671 16.221199 -0.331732  0.703604 0.096622 -0.703970  0.961913 0.823148 1 7 1.000000
0  0.581380 13.232599 -0.581465  0.621204 0.478317 -0.620716  0.956664 0.933669 1 6 1.000000
0  -0.000004 13.230499 -0.822175  -0.000580 0.481491 -0.876431  0.970382 0.933577 1 6 1.000000
kuki_mat
0  0.469305 16.220900 0.000048  0.995300 0.096683 -0.000061  0.958663 0.823178 1 7 1.000000
0  0.822059 13.231700 -0.000085  0.878353 0.477950 0.000793  0.950973 0.933700 1 6 1.000000
0  0.581380 13.232599 -0.581465  0.621204 0.478317 -0.620716  0.956664 0.933669 1 6 1.000000
kuki_mat
0  -0.822004 13.232699 -0.000216  -0.878140 0.478347 0.000610  0.989807 0.933455 1 6 1.000000
0  -0.581232 13.233299 -0.581508  -0.620350 0.477981 -0.621815  0.984115 0.933486 1 6 1.000000
0  -1.095200 12.966800 -0.000211  -0.697470 0.716575 0.001038  0.996384 0.979095 1 6 1.000000
kuki_mat
0  -0.822004 13.232699 -0.000216  -0.878140 0.478347 0.000610  0.989807 0.933455 1 6 1.000000
0  -0.774460 12.965500 0.774525  -0.493667 0.716575 0.492691  0.988800 0.979141 1 6 1.000000
0  -0.581328 13.231800 0.580714  -0.621265 0.478622 0.620380  0.984115 0.933486 1 6 1.000000
kuki_mat
0  -0.822004 13.232699 -0.000216  -0.878140 0.478347 0.000610  0.989807 0.933455 1 6 1.000000
0  -1.095200 12.966800 -0.000211  -0.697470 0.716575 0.001038  0.996384 0.979095 1 6 1.000000
0  -0.774460 12.965500 0.774525  -0.493667 0.716575 0.492691  0.988800 0.979141 1 6 1.000000
kuki_mat
0  -0.581328 13.231800 0.580714  -0.621265 0.478622 0.620380  0.984115 0.933486 1 6 1.000000
0  0.000000 12.968400 1.095262  -0.000702 0.720939 0.692984  0.970520 0.979263 1 6 1.000000
0  -0.000006 13.230100 0.822470  0.000305 0.482681 0.875790  0.970382 0.933577 1 6 1.000000
kuki_mat
0  -0.581328 13.231800 0.580714  -0.621265 0.478622 0.620380  0.984115 0.933486 1 6 1.000000
0  -0.774460 12.965500 0.774525  -0.493667 0.716575 0.492691  0.988800 0.979141 1 6 1.000000
0  0.000000 12.968400 1.095262  -0.000702 0.720939 0.692984  0.970520 0.979263 1 6 1.000000
kuki_mat
0  -0.000006 13.230100 0.822470  0.000305 0.482681 0.875790  0.970382 0.933577 1 6 1.000000
0  0.000000 12.968400 1.095262  -0.000702 0.720939 0.692984  0.970520 0.979263 1 6 1.000000
0  0.774389 12.968500 0.774410  0.490677 0.721397 0.488662  0.952239 0.979370 1 6 1.000000
kuki_mat
0  -0.000006 13.230100 0.822470  0.000305 0.482681 0.875790  0.970382 0.933577 1 6 1.000000
0  0.774389 12.968500 0.774410  0.490677 0.721397 0.488662  0.952239 0.979370 1 6 1.000000
0  0.581285 13.231001 0.580796  0.620441 0.481307 0.619160  0.956664 0.933669 1 6 1.000000
kuki_mat
0  -0.581232 13.233299 -0.581508  -0.620350 0.477981 -0.621815  0.984115 0.933486 1 6 1.000000
0  -0.774330 12.967700 -0.774475  -0.492355 0.717399 -0.492813  0.988800 0.979141 1 6 1.000000
0  -1.095200 12.966800 -0.000211  -0.697470 0.716575 0.001038  0.996384 0.979095 1 6 1.000000
kuki_mat
0  -0.581232 13.233299 -0.581508  -0.620350 0.477981 -0.621815  0.984115 0.933486 1 6 1.000000
0  -0.000004 13.230499 -0.822175  -0.000580 0.481491 -0.876431  0.970382 0.933577 1 6 1.000000
0  -0.774330 12.967700 -0.774475  -0.492355 0.717399 -0.492813  0.988800 0.979141 1 6 1.000000
kuki_mat
0  -0.000004 13.230499 -0.822175  -0.000580 0.481491 -0.876431  0.970382 0.933577 1 6 1.000000
0  -0.000001 12.967800 -1.095088  -0.000275 0.719779 -0.694174  0.970520 0.979263 1 6 1.000000
0  -0.774330 12.967700 -0.774475  -0.492355 0.717399 -0.492813  0.988800 0.979141 1 6 1.000000
kuki_mat
0  -0.000004 13.230499 -0.822175  -0.000580 0.481491 -0.876431  0.970382 0.933577 1 6 1.000000
0  0.581380 13.232599 -0.581465  0.621204 0.478317 -0.620716  0.956664 0.933669 1 6 1.000000
0  -0.000001 12.967800 -1.095088  -0.000275 0.719779 -0.694174  0.970520 0.979263 1 6 1.000000
kuki_mat
0  0.581285 13.231001 0.580796  0.620441 0.481307 0.619160  0.956664 0.933669 1 6 1.000000
0  1.095260 12.965400 0.000133  0.697256 0.716788 0.000031  0.944656 0.979416 1 6 1.000000
0  0.822059 13.231700 -0.000085  0.878353 0.477950 0.000793  0.950973 0.933700 1 6 1.000000
kuki_mat
0  0.581285 13.231001 0.580796  0.620441 0.481307 0.619160  0.956664 0.933669 1 6 1.000000
0  0.774389 12.968500 0.774410  0.490677 0.721397 0.488662  0.952239 0.979370 1 6 1.000000
0  1.095260 12.965400 0.000133  0.697256 0.716788 0.000031  0.944656 0.979416 1 6 1.000000
kuki_mat
0  0.822059 13.231700 -0.000085  0.878353 0.477950 0.000793  0.950973 0.933700 1 6 1.000000
0  1.095260 12.965400 0.000133  0.697256 0.716788 0.000031  0.944656 0.979416 1 6 1.000000
0  0.774517 12.966700 -0.774481  0.494186 0.716392 -0.492416  0.952239 0.979370 1 6 1.000000
kuki_mat
0  0.822059 13.231700 -0.000085  0.878353 0.477950 0.000793  0.950973 0.933700 1 6 1.000000
0  0.774517 12.966700 -0.774481  0.494186 0.716392 -0.492416  0.952239 0.979370 1 6 1.000000
0  0.581380 13.232599 -0.581465  0.621204 0.478317 -0.620716  0.956664 0.933669 1 6 1.000000
kuki_mat
0  0.581380 13.232599 -0.581465  0.621204 0.478317 -0.620716  0.956664 0.933669 1 6 1.000000
0  0.774517 12.966700 -0.774481  0.494186 0.716392 -0.492416  0.952239 0.979370 1 6 1.000000
0  -0.000001 12.967800 -1.095088  -0.000275 0.719779 -0.694174  0.970520 0.979263 1 6 1.000000
body_mat
0  -0.398125 4.263700 -0.033102  0.662496 -0.748802 0.018067  -0.112369 0.540025 1 6 1.000000
0  -0.423071 4.389780 -0.357143  0.505936 -0.705954 -0.495560  -0.097811 0.583270 1 6 1.000000
0  -0.186603 4.479180 -0.398925  0.028993 -0.846187 -0.532060  -0.087496 0.613514 1 6 1.000000
body_mat
0  -0.398125 4.263700 -0.033102  0.662496 -0.748802 0.018067  -0.112369 0.540025 1 6 1.000000
0  -0.186603 4.479180 -0.398925  0.028993 -0.846187 -0.532060  -0.087496 0.613514 1 6 1.000000
0  -0.194474 4.357190 -0.073143  0.169988 -0.984680 -0.038575  -0.101596 0.559404 1 6 1.000000
body_mat
0  -0.423071 4.389780 -0.357143  0.505936 -0.705954 -0.495560  -0.097811 0.583270 1 6 1.000000
0  -0.159642 4.762560 -0.722551  0.024354 -0.590777 -0.806452  -0.054933 0.628864 1 6 1.000000
0  -0.186603 4.479180 -0.398925  0.028993 -0.846187 -0.532060  -0.087496 0.613514 1 6 1.000000
body_mat
0  -0.423071 4.389780 -0.357143  0.505936 -0.705954 -0.495560  -0.097811 0.583270 1 6 1.000000
0  -0.582462 4.585800 -0.699209  0.225410 -0.491043 -0.841426  -0.075289 0.595508 1 6 1.000000
0  -0.159642 4.762560 -0.722551  0.024354 -0.590777 -0.806452  -0.054933 0.628864 1 6 1.000000
body_mat
0  -0.582462 4.585800 -0.699209  0.225410 -0.491043 -0.841426  -0.075289 0.595508 1 6 1.000000
0  -0.903999 4.740970 -0.765891  -0.273019 -0.220801 -0.936308  -0.057466 0.583331 1 6 1.000000
0  -0.002262 6.407690 -1.441399  -0.064638 -0.188726 -0.979888  0.134037 0.643635 1 6 1.000000
body_mat
0  -0.582462 4.585800 -0.699209  0.225410 -0.491043 -0.841426  -0.075289 0.595508 1 6 1.000000
0  -0.002262 6.407690 -1.441399  -0.064638 -0.188726 -0.979888  0.134037 0.643635 1 6 1.000000
0  -0.159642 4.762560 -0.722551  0.024354 -0.590777 -0.806452  -0.054933 0.628864 1 6 1.000000
body_mat
0  -0.159642 4.762560 -0.722551  0.024354 -0.590777 -0.806452  -0.054933 0.628864 1 6 1.000000
0  -0.002262 6.407690 -1.441399  -0.064638 -0.188726 -0.979888  0.134037 0.643635 1 6 1.000000
0  0.181710 4.801210 -0.809028  -0.422559 -0.367260 -0.828578  -0.050416 0.659536 1 6 1.000000
body_mat
0  -0.159642 4.762560 -0.722551  0.024354 -0.590777 -0.806452  -0.054933 0.628864 1 6 1.000000
0  0.181710 4.801210 -0.809028  -0.422559 -0.367260 -0.828578  -0.050416 0.659536 1 6 1.000000
0  -0.186603 4.479180 -0.398925  0.028993 -0.846187 -0.532060  -0.087496 0.613514 1 6 1.000000
body_mat
0  -0.186603 4.479180 -0.398925  0.028993 -0.846187 -0.532060  -0.087496 0.613514 1 6 1.000000
0  0.049864 4.470750 -0.479743  -0.630390 -0.546190 -0.551592  -0.088412 0.651387 1 6 1.000000
0  -0.194474 4.357190 -0.073143  0.169988 -0.984680 -0.038575  -0.101596 0.559404 1 6 1.000000
body_mat
0  -0.186603 4.479180 -0.398925  0.028993 -0.846187 -0.532060  -0.087496 0.613514 1 6 1.000000
0  0.181710 4.801210 -0.809028  -0.422559 -0.367260 -0.828578  -0.050416 0.659536 1 6 1.000000
0  0.049864 4.470750 -0.479743  -0.630390 -0.546190 -0.551592  -0.088412 0.651387 1 6 1.000000
body_mat
0  -0.903999 4.740970 -0.765891  -0.273019 -0.220801 -0.936308  -0.057466 0.583331 1 6 1.000000
0  -1.269620 4.838340 -0.561521  -0.775170 -0.032441 -0.630879  -0.046327 0.563250 1 6 1.000000
0  -0.002262 6.407690 -1.441399  -0.064638 -0.188726 -0.979888  0.134037 0.643635 1 6 1.000000
body_mat
0  0.181710 4.801210 -0.809028  -0.422559 -0.367260 -0.828578  -0.050416 0.659536 1 6 1.000000
0  -0.002262 6.407690 -1.441399  -0.064638 -0.188726 -0.979888  0.134037 0.643635 1 6 1.000000
0  0.556903 5.133250 -1.130859  -0.074679 -0.226997 -0.971007  -0.012237 0.676046 1 6 1.000000
body_mat
0  0.049864 4.470750 -0.479743  -0.630390 -0.546190 -0.551592  -0.088412 0.651387 1 6 1.000000
0  0.038995 4.334110 -0.077834  -0.708243 -0.705435 0.026887  -0.104068 0.676687 1 6 1.000000
0  -0.194474 4.357190 -0.073143  0.169988 -0.984680 -0.038575  -0.101596 0.559404 1 6 1.000000
body_mat
0  -0.194474 4.357190 -0.073143  0.169988 -0.984680 -0.038575  -0.101596 0.559404 1 6 1.000000
0  0.038995 4.334110 -0.077834  -0.708243 -0.705435 0.026887  -0.104068 0.676687 1 6 1.000000
0  0.078502 4.458590 0.284956  -0.565783 -0.688528 0.453597  -0.089449 0.845210 1 6 1.000000
body_mat
0  -0.194474 4.357190 -0.073143  0.169988 -0.984680 -0.038575  -0.101596 0.559404 1 6 1.000000
0  0.078502 4.458590 0.284956  -0.565783 -0.688528 0.453597  -0.089449 0.845210 1 6 1.000000
0  -0.223030 4.452400 0.278789  0.178899 -0.879604 0.440718  -0.090060 0.911283 1 6 1.000000
body_mat
0  -1.269620 4.838340 -0.561521  -0.775170 -0.032441 -0.630879  -0.046327 0.563250 1 6 1.000000
0  -0.967283 6.269830 -1.003819  -0.700919 -0.124790 -0.702200  0.118107 0.590106 1 6 1.000000
0  -0.002262 6.407690 -1.441399  -0.064638 -0.188726 -0.979888  0.134037 0.643635 1 6 1.000000
body_mat
0  -1.269620 4.838340 -0.561521  -0.775170 -0.032441 -0.630879  -0.046327 0.563250 1 6 1.000000
0  -1.454600 4.888830 -0.031336  -0.997436 0.070650 -0.010529  -0.040589 0.535600 1 6 1.000000
0  -0.967283 6.269830 -1.003819  -0.700919 -0.124790 -0.702200  0.118107 0.590106 1 6 1.000000
body_mat
0  0.556903 5.133250 -1.130859  -0.074679 -0.226997 -0.971007  -0.012237 0.676046 1 6 1.000000
0  -0.002262 6.407690 -1.441399  -0.064638 -0.188726 -0.979888  0.134037 0.643635 1 6 1.000000
0  1.069750 6.558350 -1.141629  0.545274 -0.124577 -0.828913  0.151433 0.696432 1 6 1.000000
body_mat
0  0.556903 5.133250 -1.130859  -0.074679 -0.226997 -0.971007  -0.012237 0.676046 1 6 1.000000
0  1.069750 6.558350 -1.141629  0.545274 -0.124577 -0.828913  0.151433 0.696432 1 6 1.000000
0  1.008750 5.211050 -1.039829  0.490219 -0.101047 -0.865688  -0.003265 0.697897 1 6 1.000000
body_mat
0  0.078502 4.458590 0.284956  -0.565783 -0.688528 0.453597  -0.089449 0.845210 1 6 1.000000
0  -0.235752 4.657500 0.577015  0.043580 -0.632679 0.773156  -0.066530 0.891140 1 6 1.000000
0  -0.223030 4.452400 0.278789  0.178899 -0.879604 0.440718  -0.090060 0.911283 1 6 1.000000
body_mat
0  0.078502 4.458590 0.284956  -0.565783 -0.688528 0.453597  -0.089449 0.845210 1 6 1.000000
0  0.221154 4.646320 0.667178  -0.427869 -0.410291 0.805322  -0.067903 0.841609 1 6 1.000000
0  -0.235752 4.657500 0.577015  0.043580 -0.632679 0.773156  -0.066530 0.891140 1 6 1.000000
body_mat
0  -0.223030 4.452400 0.278789  0.178899 -0.879604 0.440718  -0.090060 0.911283 1 6 1.000000
0  -0.235752 4.657500 0.577015  0.043580 -0.632679 0.773156  -0.066530 0.891140 1 6 1.000000
0  -0.614569 4.506350 0.559250  0.247902 -0.482742 0.839930  -0.083834 0.922300 1 6 1.000000
body_mat
0  -0.223030 4.452400 0.278789  0.178899 -0.879604 0.440718  -0.090060 0.911283 1 6 1.000000
0  -0.614569 4.506350 0.559250  0.247902 -0.482742 0.839930  -0.083834 0.922300 1 6 1.000000
0  -0.458963 4.370340 0.290906  0.531968 -0.682669 0.500900  -0.099429 0.934477 1 6 1.000000
body_mat
0  -0.223030 4.452400 0.278789  0.178899 -0.879604 0.440718  -0.090060 0.911283 1 6 1.000000
0  -0.458963 4.370340 0.290906  0.531968 -0.682669 0.500900  -0.099429 0.934477 1 6 1.000000
0  -0.398125 4.263700 -0.033102  0.662496 -0.748802 0.018067  -0.111606 0.979827 1 6 1.000000
body_mat
0  -0.223030 4.452400 0.278789  0.178899 -0.879604 0.440718  -0.090060 0.911283 1 6 1.000000
0  -0.398125 4.263700 -0.033102  0.662496 -0.748802 0.018067  -0.111606 0.979827 1 6 1.000000
0  -0.194474 4.357190 -0.073143  0.169988 -0.984680 -0.038575  -0.100833 0.999176 1 6 1.000000
body_mat
0  -1.454600 4.888830 -0.031336  -0.997436 0.070650 -0.010529  -0.040589 0.535600 1 6 1.000000
0  -1.297380 6.205750 0.000001  -0.999847 -0.016114 -0.000732  0.110660 0.533830 1 6 1.000000
0  -0.967283 6.269830 -1.003819  -0.700919 -0.124790 -0.702200  0.118107 0.590106 1 6 1.000000
body_mat
0  1.069750 6.558350 -1.141629  0.545274 -0.124577 -0.828913  0.151433 0.696432 1 6 1.000000
0  -0.002262 6.407690 -1.441399  -0.064638 -0.188726 -0.979888  0.134037 0.643635 1 6 1.000000
0  1.287310 8.242180 -1.306279  0.665578 -0.139897 -0.733055  0.344890 0.697836 1 6 1.000000
body_mat
0  1.069750 6.558350 -1.141629  0.545274 -0.124577 -0.828913  0.151433 0.696432 1 6 1.000000
0  1.287310 8.242180 -1.306279  0.665578 -0.139897 -0.733055  0.344890 0.697836 1 6 1.000000
0  1.513020 6.606140 -0.600312  0.904904 -0.099338 -0.413831  0.156987 0.727226 1 6 1.000000
body_mat
0  1.069750 6.558350 -1.141629  0.545274 -0.124577 -0.828913  0.151433 0.696432 1 6 1.000000
0  1.513020 6.606140 -0.600312  0.904904 -0.099338 -0.413831  0.156987 0.727226 1 6 1.000000
0  1.008750 5.211050 -1.039829  0.490219 -0.101047 -0.865688  -0.003265 0.697897 1 6 1.000000
body_mat
0  1.008750 5.211050 -1.039829  0.490219 -0.101047 -0.865688  -0.003265 0.697897 1 6 1.000000
0  1.513020 6.606140 -0.600312  0.904904 -0.099338 -0.413831  0.156987 0.727226 1 6 1.000000
0  1.396520 5.288390 -0.628757  0.858913 -0.062746 -0.508255  0.005584 0.724326 1 6 1.000000
body_mat
0  0.221154 4.646320 0.667178  -0.427869 -0.410291 0.805322  -0.067903 0.841609 1 6 1.000000
0  0.581537 4.884770 0.915165  -0.107456 -0.261299 0.959227  -0.040528 0.824335 1 6 1.000000
0  -0.002263 6.407690 1.345191  -0.063814 -0.224494 0.972350  0.134434 0.863765 1 6 1.000000
body_mat
0  0.221154 4.646320 0.667178  -0.427869 -0.410291 0.805322  -0.067903 0.841609 1 6 1.000000
0  -0.002263 6.407690 1.345191  -0.063814 -0.224494 0.972350  0.134434 0.863765 1 6 1.000000
0  -0.235752 4.657500 0.577015  0.043580 -0.632679 0.773156  -0.066530 0.891140 1 6 1.000000
body_mat
0  -0.235752 4.657500 0.577015  0.043580 -0.632679 0.773156  -0.066530 0.891140 1 6 1.000000
0  -0.002263 6.407690 1.345191  -0.063814 -0.224494 0.972350  0.134434 0.863765 1 6 1.000000
0  -0.614569 4.506350 0.559250  0.247902 -0.482742 0.839930  -0.083834 0.922300 1 6 1.000000
body_mat
0  -0.614569 4.506350 0.559250  0.247902 -0.482742 0.839930  -0.083834 0.922300 1 6 1.000000
0  -0.002263 6.407690 1.345191  -0.063814 -0.224494 0.972350  0.134434 0.863765 1 6 1.000000
0  -0.949223 4.690100 0.649431  -0.244514 -0.242134 0.938902  -0.062715 0.931944 1 6 1.000000
body_mat
0  -1.297380 6.205750 0.000001  -0.999847 -0.016114 -0.000732  0.110660 0.533830 1 6 1.000000
0  -1.196180 8.604020 -1.306279  -0.700949 -0.185217 -0.688681  0.386273 0.591418 1 6 1.000000
0  -0.967283 6.269830 -1.003819  -0.700919 -0.124790 -0.702200  0.118107 0.590106 1 6 1.000000
body_mat
0  -1.297380 6.205750 0.000001  -0.999847 -0.016114 -0.000732  0.110660 0.533830 1 6 1.000000
0  -1.729410 8.702990 0.000001  -0.980743 -0.195166 -0.004700  0.397534 0.533341 1 6 1.000000
0  -1.196180 8.604020 -1.306279  -0.700949 -0.185217 -0.688681  0.386273 0.591418 1 6 1.000000
body_mat
0  -0.002262 6.407690 -1.441399  -0.064638 -0.188726 -0.979888  0.134037 0.643635 1 6 1.000000
0  -0.000002 8.423100 -1.780789  -0.028169 -0.170446 -0.984954  0.365551 0.643330 1 6 1.000000
0  1.287310 8.242180 -1.306279  0.665578 -0.139897 -0.733055  0.344890 0.697836 1 6 1.000000
body_mat
0  -0.002262 6.407690 -1.441399  -0.064638 -0.188726 -0.979888  0.134037 0.643635 1 6 1.000000
0  -0.967283 6.269830 -1.003819  -0.700919 -0.124790 -0.702200  0.118107 0.590106 1 6 1.000000
0  -0.000002 8.423100 -1.780789  -0.028169 -0.170446 -0.984954  0.365551 0.643330 1 6 1.000000
body_mat
0  -0.967283 6.269830 -1.003819  -0.700919 -0.124790 -0.702200  0.118107 0.590106 1 6 1.000000
0  -1.196180 8.604020 -1.306279  -0.700949 -0.185217 -0.688681  0.386273 0.591418 1 6 1.000000
0  -0.000002 8.423100 -1.780789  -0.028169 -0.170446 -0.984954  0.365551 0.643330 1 6 1.000000
body_mat
0  1.513020 6.606140 -0.600312  0.904904 -0.099338 -0.413831  0.156987 0.727226 1 6 1.000000
0  1.287310 8.242180 -1.306279  0.665578 -0.139897 -0.733055  0.344890 0.697836 1 6 1.000000
0  1.820540 8.143800 0.000001  0.993927 -0.109836 0.000214  0.333659 0.753349 1 6 1.000000
body_mat
0  1.513020 6.606140 -0.600312  0.904904 -0.099338 -0.413831  0.156987 0.727226 1 6 1.000000
0  1.628940 6.622430 -0.016661  0.995727 -0.091800 -0.008057  0.158910 0.752953 1 6 1.000000
0  1.396520 5.288390 -0.628757  0.858913 -0.062746 -0.508255  0.005584 0.724326 1 6 1.000000
body_mat
0  1.513020 6.606140 -0.600312  0.904904 -0.099338 -0.413831  0.156987 0.727226 1 6 1.000000
0  1.820540 8.143800 0.000001  0.993927 -0.109836 0.000214  0.333659 0.753349 1 6 1.000000
0  1.628940 6.622430 -0.016661  0.995727 -0.091800 -0.008057  0.158910 0.752953 1 6 1.000000
body_mat
0  1.396520 5.288390 -0.628757  0.858913 -0.062746 -0.508255  0.005584 0.724326 1 6 1.000000
0  1.628940 6.622430 -0.016661  0.995727 -0.091800 -0.008057  0.158910 0.752953 1 6 1.000000
0  1.580490 5.300880 -0.088920  0.996033 -0.059999 -0.065645  0.007080 0.749992 1 6 1.000000
body_mat
0  0.581537 4.884770 0.915165  -0.107456 -0.261299 0.959227  -0.040528 0.824335 1 6 1.000000
0  1.099190 5.090890 0.883900  0.491958 -0.162328 0.855312  -0.016907 0.801355 1 6 1.000000
0  -0.002263 6.407690 1.345191  -0.063814 -0.224494 0.972350  0.134434 0.863765 1 6 1.000000
body_mat
0  -0.949223 4.690100 0.649431  -0.244514 -0.242134 0.938902  -0.062715 0.931944 1 6 1.000000
0  -0.002263 6.407690 1.345191  -0.063814 -0.224494 0.972350  0.134434 0.863765 1 6 1.000000
0  -0.979092 6.269830 0.964192  -0.680715 -0.135899 0.719810  0.118686 0.919187 1 6 1.000000
body_mat
0  -0.949223 4.690100 0.649431  -0.244514 -0.242134 0.938902  -0.062715 0.931944 1 6 1.000000
0  -0.979092 6.269830 0.964192  -0.680715 -0.135899 0.719810  0.118686 0.919187 1 6 1.000000
0  -1.285510 4.865820 0.468829  -0.796564 -0.027955 0.603870  -0.042481 0.949431 1 6 1.000000
body_mat
0  -1.196180 8.604020 -1.306279  -0.700949 -0.185217 -0.688681  0.386273 0.591418 1 6 1.000000
0  -0.000003 11.224600 -2.315418  -0.000610 -0.124241 -0.992248  0.741813 0.642781 1 6 1.000000
0  -0.000002 8.423100 -1.780789  -0.028169 -0.170446 -0.984954  0.365551 0.643330 1 6 1.000000
body_mat
0  -1.196180 8.604020 -1.306279  -0.700949 -0.185217 -0.688681  0.386273 0.591418 1 6 1.000000
0  -1.637250 11.224600 -1.637248  -0.703970 -0.133305 -0.697592  0.741752 0.587817 1 6 1.000000
0  -0.000003 11.224600 -2.315418  -0.000610 -0.124241 -0.992248  0.741813 0.642781 1 6 1.000000
body_mat
0  -1.196180 8.604020 -1.306279  -0.700949 -0.185217 -0.688681  0.386273 0.591418 1 6 1.000000
0  -1.729410 8.702990 0.000001  -0.980743 -0.195166 -0.004700  0.397534 0.533341 1 6 1.000000
0  -1.637250 11.224600 -1.637248  -0.703970 -0.133305 -0.697592  0.741752 0.587817 1 6 1.000000
body_mat
0  -1.729410 8.702990 0.000001  -0.980743 -0.195166 -0.004700  0.397534 0.533341 1 6 1.000000
0  -2.315420 11.224600 0.000002  -0.990081 -0.140355 -0.001343  0.741691 0.532823 1 6 1.000000
0  -1.637250 11.224600 -1.637248  -0.703970 -0.133305 -0.697592  0.741752 0.587817 1 6 1.000000
body_mat
0  -0.000002 8.423100 -1.780789  -0.028169 -0.170446 -0.984954  0.365551 0.643330 1 6 1.000000
0  -0.000003 11.224600 -2.315418  -0.000610 -0.124241 -0.992248  0.741813 0.642781 1 6 1.000000
0  1.637240 11.224600 -1.637248  0.700064 -0.114933 -0.704733  0.741844 0.697745 1 6 1.000000
body_mat
0  -0.000002 8.423100 -1.780789  -0.028169 -0.170446 -0.984954  0.365551 0.643330 1 6 1.000000
0  1.637240 11.224600 -1.637248  0.700064 -0.114933 -0.704733  0.741844 0.697745 1 6 1.000000
0  1.287310 8.242180 -1.306279  0.665578 -0.139897 -0.733055  0.344890 0.697836 1 6 1.000000
body_mat
0  1.628940 6.622430 -0.016661  0.995727 -0.091800 -0.008057  0.158910 0.752953 1 6 1.000000
0  1.513020 6.606140 0.583652  0.899533 -0.095981 0.426130  0.157079 0.779443 1 6 1.000000
0  1.580490 5.300880 -0.088920  0.996033 -0.059999 -0.065645  0.007080 0.749992 1 6 1.000000
body_mat
0  1.628940 6.622430 -0.016661  0.995727 -0.091800 -0.008057  0.158910 0.752953 1 6 1.000000
0  1.820540 8.143800 0.000001  0.993927 -0.109836 0.000214  0.333659 0.753349 1 6 1.000000
0  1.513020 6.606140 0.583652  0.899533 -0.095981 0.426130  0.157079 0.779443 1 6 1.000000
body_mat
0  1.580490 5.300880 -0.088920  0.996033 -0.059999 -0.065645  0.007080 0.749992 1 6 1.000000
0  1.513020 6.606140 0.583652  0.899533 -0.095981 0.426130  0.157079 0.779443 1 6 1.000000
0  1.454580 5.224930 0.492329  0.890835 -0.097018 0.443770  -0.001556 0.776788 1 6 1.000000
body_mat
0  1.099190 5.090890 0.883900  0.491958 -0.162328 0.855312  -0.016907 0.801355 1 6 1.000000
0  1.454580 5.224930 0.492329  0.890835 -0.097018 0.443770  -0.001556 0.776788 1 6 1.000000
0  1.069750 6.558350 1.096001  0.523392 -0.156224 0.837642  0.151646 0.809503 1 6 1.000000
body_mat
0  1.454580 5.224930 0.492329  0.890835 -0.097018 0.443770  -0.001556 0.776788 1 6 1.000000
0  1.513020 6.606140 0.583652  0.899533 -0.095981 0.426130  0.157079 0.779443 1 6 1.000000
0  1.069750 6.558350 1.096001  0.523392 -0.156224 0.837642  0.151646 0.809503 1 6 1.000000
body_mat
0  1.099190 5.090890 0.883900  0.491958 -0.162328 0.855312  -0.016907 0.801355 1 6 1.000000
0  1.069750 6.558350 1.096001  0.523392 -0.156224 0.837642  0.151646 0.809503 1 6 1.000000
0  -0.002263 6.407690 1.345191  -0.063814 -0.224494 0.972350  0.134434 0.863765 1 6 1.000000
body_mat
0  -1.285510 4.865820 0.468829  -0.796564 -0.027955 0.603870  -0.042481 0.949431 1 6 1.000000
0  -0.979092 6.269830 0.964192  -0.680715 -0.135899 0.719810  0.118686 0.919187 1 6 1.000000
0  -1.454600 4.888830 -0.031336  -0.997436 0.070650 -0.010529  -0.039796 0.975402 1 6 1.000000
body_mat
0  -0.000003 11.224600 -2.315418  -0.000610 -0.124241 -0.992248  0.741813 0.642781 1 6 1.000000
0  -1.637250 11.224600 -1.637248  -0.703970 -0.133305 -0.697592  0.741752 0.587817 1 6 1.000000
0  -0.000004 11.850500 -2.354678  0.000000 0.190100 -0.981750  0.782800 0.642659 1 6 1.000000
body_mat
0  -0.000003 11.224600 -2.315418  -0.000610 -0.124241 -0.992248  0.741813 0.642781 1 6 1.000000
0  -0.000004 11.850500 -2.354678  0.000000 0.190100 -0.981750  0.782800 0.642659 1 6 1.000000
0  1.665010 11.850500 -1.665008  0.694205 0.190100 -0.694205  0.782861 0.697623 1 6 1.000000
body_mat
0  -0.000003 11.224600 -2.315418  -0.000610 -0.124241 -0.992248  0.741813 0.642781 1 6 1.000000
0  1.665010 11.850500 -1.665008  0.694205 0.190100 -0.694205  0.782861 0.697623 1 6 1.000000
0  1.637240 11.224600 -1.637248  0.700064 -0.114933 -0.704733  0.741844 0.697745 1 6 1.000000
body_mat
0  -1.637250 11.224600 -1.637248  -0.703970 -0.133305 -0.697592  0.741752 0.587817 1 6 1.000000
0  -1.665020 11.850500 -1.665008  -0.694205 0.190100 -0.694205  0.782739 0.587695 1 6 1.000000
0  -0.000004 11.850500 -2.354678  0.000000 0.190100 -0.981750  0.782800 0.642659 1 6 1.000000
body_mat
0  -1.637250 11.224600 -1.637248  -0.703970 -0.133305 -0.697592  0.741752 0.587817 1 6 1.000000
0  -2.315420 11.224600 0.000002  -0.990081 -0.140355 -0.001343  0.741691 0.532823 1 6 1.000000
0  -1.665020 11.850500 -1.665008  -0.694205 0.190100 -0.694205  0.782739 0.587695 1 6 1.000000
body_mat
0  -2.315420 11.224600 0.000002  -0.990081 -0.140355 -0.001343  0.741691 0.532823 1 6 1.000000
0  -2.354690 11.850500 0.000001  -0.981750 0.190100 0.000000  0.782678 0.532701 1 6 1.000000
0  -1.665020 11.850500 -1.665008  -0.694205 0.190100 -0.694205  0.782739 0.587695 1 6 1.000000
body_mat
0  1.287310 8.242180 -1.306279  0.665578 -0.139897 -0.733055  0.344890 0.697836 1 6 1.000000
0  1.637240 11.224600 -1.637248  0.700064 -0.114933 -0.704733  0.741844 0.697745 1 6 1.000000
0  2.315410 11.224600 0.000002  0.993927 -0.109897 -0.000305  0.741905 0.752739 1 6 1.000000
body_mat
0  1.287310 8.242180 -1.306279  0.665578 -0.139897 -0.733055  0.344890 0.697836 1 6 1.000000
0  2.315410 11.224600 0.000002  0.993927 -0.109897 -0.000305  0.741905 0.752739 1 6 1.000000
0  1.820540 8.143800 0.000001  0.993927 -0.109836 0.000214  0.333659 0.753349 1 6 1.000000
body_mat
0  1.513020 6.606140 0.583652  0.899533 -0.095981 0.426130  0.157079 0.779443 1 6 1.000000
0  1.820540 8.143800 0.000001  0.993927 -0.109836 0.000214  0.333659 0.753349 1 6 1.000000
0  1.287310 8.242180 1.306281  0.677084 -0.148106 0.720817  0.345073 0.808802 1 6 1.000000
body_mat
0  1.513020 6.606140 0.583652  0.899533 -0.095981 0.426130  0.157079 0.779443 1 6 1.000000
0  1.287310 8.242180 1.306281  0.677084 -0.148106 0.720817  0.345073 0.808802 1 6 1.000000
0  1.069750 6.558350 1.096001  0.523392 -0.156224 0.837642  0.151646 0.809503 1 6 1.000000
body_mat
0  1.069750 6.558350 1.096001  0.523392 -0.156224 0.837642  0.151646 0.809503 1 6 1.000000
0  -0.000003 8.423100 1.825171  -0.039857 -0.196173 0.979736  0.365947 0.863247 1 6 1.000000
0  -0.002263 6.407690 1.345191  -0.063814 -0.224494 0.972350  0.134434 0.863765 1 6 1.000000
body_mat
0  1.069750 6.558350 1.096001  0.523392 -0.156224 0.837642  0.151646 0.809503 1 6 1.000000
0  1.287310 8.242180 1.306281  0.677084 -0.148106 0.720817  0.345073 0.808802 1 6 1.000000
0  -0.000003 8.423100 1.825171  -0.039857 -0.196173 0.979736  0.365947 0.863247 1 6 1.000000
body_mat
0  -0.002263 6.407690 1.345191  -0.063814 -0.224494 0.972350  0.134434 0.863765 1 6 1.000000
0  -0.000003 8.423100 1.825171  -0.039857 -0.196173 0.979736  0.365947 0.863247 1 6 1.000000
0  -1.196180 8.604020 1.306281  -0.704245 -0.194922 0.682638  0.386822 0.915097 1 6 1.000000
body_mat
0  -0.002263 6.407690 1.345191  -0.063814 -0.224494 0.972350  0.134434 0.863765 1 6 1.000000
0  -1.196180 8.604020 1.306281  -0.704245 -0.194922 0.682638  0.386822 0.915097 1 6 1.000000
0  -0.979092 6.269830 0.964192  -0.680715 -0.135899 0.719810  0.118686 0.919187 1 6 1.000000
body_mat
0  -1.454600 4.888830 -0.031336  -0.997436 0.070650 -0.010529  -0.039796 0.975402 1 6 1.000000
0  -0.979092 6.269830 0.964192  -0.680715 -0.135899 0.719810  0.118686 0.919187 1 6 1.000000
0  -1.297380 6.205750 0.000001  -0.999847 -0.016114 -0.000732  0.111423 0.973632 1 6 1.000000
body_mat
0  -1.665020 11.850500 -1.665008  -0.694205 0.190100 -0.694205  0.782739 0.587695 1 6 1.000000
0  -0.000004 12.346499 -2.103448  0.000000 0.645192 -0.764000  0.815302 0.642567 1 6 1.000000
0  -0.000004 11.850500 -2.354678  0.000000 0.190100 -0.981750  0.782800 0.642659 1 6 1.000000
body_mat
0  -1.665020 11.850500 -1.665008  -0.694205 0.190100 -0.694205  0.782739 0.587695 1 6 1.000000
0  -2.354690 11.850500 0.000001  -0.981750 0.190100 0.000000  0.782678 0.532701 1 6 1.000000
0  -1.487370 12.346499 -1.487358  -0.540208 0.645192 -0.540208  0.815241 0.587573 1 6 1.000000
body_mat
0  -1.665020 11.850500 -1.665008  -0.694205 0.190100 -0.694205  0.782739 0.587695 1 6 1.000000
0  -1.487370 12.346499 -1.487358  -0.540208 0.645192 -0.540208  0.815241 0.587573 1 6 1.000000
0  -0.000004 12.346499 -2.103448  0.000000 0.645192 -0.764000  0.815302 0.642567 1 6 1.000000
body_mat
0  -2.354690 11.850500 0.000001  -0.981750 0.190100 0.000000  0.782678 0.532701 1 6 1.000000
0  -2.103450 12.346499 0.000001  -0.764000 0.645192 0.000000  0.815180 0.532609 1 6 1.000000
0  -1.487370 12.346499 -1.487358  -0.540208 0.645192 -0.540208  0.815241 0.587573 1 6 1.000000
body_mat
0  1.820540 8.143800 0.000001  0.993927 -0.109836 0.000214  0.333659 0.753349 1 6 1.000000
0  1.637240 11.224600 1.637252  0.702963 -0.109378 0.702750  0.741966 0.807703 1 6 1.000000
0  1.287310 8.242180 1.306281  0.677084 -0.148106 0.720817  0.345073 0.808802 1 6 1.000000
body_mat
0  1.820540 8.143800 0.000001  0.993927 -0.109836 0.000214  0.333659 0.753349 1 6 1.000000
0  2.315410 11.224600 0.000002  0.993927 -0.109897 -0.000305  0.741905 0.752739 1 6 1.000000
0  1.637240 11.224600 1.637252  0.702963 -0.109378 0.702750  0.741966 0.807703 1 6 1.000000
body_mat
0  1.287310 8.242180 1.306281  0.677084 -0.148106 0.720817  0.345073 0.808802 1 6 1.000000
0  1.637240 11.224600 1.637252  0.702963 -0.109378 0.702750  0.741966 0.807703 1 6 1.000000
0  -0.000005 11.224600 2.315422  -0.001892 -0.113529 0.993530  0.742027 0.862667 1 6 1.000000
body_mat
0  1.287310 8.242180 1.306281  0.677084 -0.148106 0.720817  0.345073 0.808802 1 6 1.000000
0  -0.000005 11.224600 2.315422  -0.001892 -0.113529 0.993530  0.742027 0.862667 1 6 1.000000
0  -0.000003 8.423100 1.825171  -0.039857 -0.196173 0.979736  0.365947 0.863247 1 6 1.000000
body_mat
0  -0.000003 8.423100 1.825171  -0.039857 -0.196173 0.979736  0.365947 0.863247 1 6 1.000000
0  -0.000005 11.224600 2.315422  -0.001892 -0.113529 0.993530  0.742027 0.862667 1 6 1.000000
0  -1.637250 11.224600 1.637252  -0.705252 -0.128147 0.697256  0.742088 0.917661 1 6 1.000000
body_mat
0  -0.000003 8.423100 1.825171  -0.039857 -0.196173 0.979736  0.365947 0.863247 1 6 1.000000
0  -1.637250 11.224600 1.637252  -0.705252 -0.128147 0.697256  0.742088 0.917661 1 6 1.000000
0  -1.196180 8.604020 1.306281  -0.704245 -0.194922 0.682638  0.386822 0.915097 1 6 1.000000
body_mat
0  -1.196180 8.604020 1.306281  -0.704245 -0.194922 0.682638  0.386822 0.915097 1 6 1.000000
0  -1.637250 11.224600 1.637252  -0.705252 -0.128147 0.697256  0.742088 0.917661 1 6 1.000000
0  -2.315420 11.224600 0.000002  -0.990081 -0.140355 -0.001343  0.742119 0.972625 1 6 1.000000
body_mat
0  -1.196180 8.604020 1.306281  -0.704245 -0.194922 0.682638  0.386822 0.915097 1 6 1.000000
0  -1.729410 8.702990 0.000001  -0.980743 -0.195166 -0.004700  0.398297 0.973144 1 6 1.000000
0  -0.979092 6.269830 0.964192  -0.680715 -0.135899 0.719810  0.118686 0.919187 1 6 1.000000
body_mat
0  -0.979092 6.269830 0.964192  -0.680715 -0.135899 0.719810  0.118686 0.919187 1 6 1.000000
0  -1.729410 8.702990 0.000001  -0.980743 -0.195166 -0.004700  0.398297 0.973144 1 6 1.000000
0  -1.297380 6.205750 0.000001  -0.999847 -0.016114 -0.000732  0.111423 0.973632 1 6 1.000000
body_mat
0  -1.196180 8.604020 1.306281  -0.704245 -0.194922 0.682638  0.386822 0.915097 1 6 1.000000
0  -2.315420 11.224600 0.000002  -0.990081 -0.140355 -0.001343  0.742119 0.972625 1 6 1.000000
0  -1.729410 8.702990 0.000001  -0.980743 -0.195166 -0.004700  0.398297 0.973144 1 6 1.000000
body_mat
0  -0.000004 12.346499 -2.103448  0.000000 0.645192 -0.764000  0.815302 0.642567 1 6 1.000000
0  0.774632 12.968500 -0.774635  0.371319 0.850978 -0.371319  0.885739 0.697409 1 6 1.000000
0  1.487360 12.346499 -1.487358  0.540208 0.645192 -0.540208  0.815332 0.697531 1 6 1.000000
body_mat
0  1.487360 12.346499 -1.487358  0.540208 0.645192 -0.540208  0.815332 0.697531 1 6 1.000000
0  1.665010 11.850500 -1.665008  0.694205 0.190100 -0.694205  0.782861 0.697623 1 6 1.000000
0  -0.000004 11.850500 -2.354678  0.000000 0.190100 -0.981750  0.782800 0.642659 1 6 1.000000
body_mat
0  -0.000004 12.346499 -2.103448  0.000000 0.645192 -0.764000  0.815302 0.642567 1 6 1.000000
0  1.487360 12.346499 -1.487358  0.540208 0.645192 -0.540208  0.815332 0.697531 1 6 1.000000
0  -0.000004 11.850500 -2.354678  0.000000 0.190100 -0.981750  0.782800 0.642659 1 6 1.000000
body_mat
0  -0.000004 12.346499 -2.103448  0.000000 0.645192 -0.764000  0.815302 0.642567 1 6 1.000000
0  -1.487370 12.346499 -1.487358  -0.540208 0.645192 -0.540208  0.815241 0.587573 1 6 1.000000
0  -0.000005 12.968500 -1.095498  0.000000 0.850978 -0.525132  0.885708 0.642445 1 6 1.000000
body_mat
0  -0.000004 12.346499 -2.103448  0.000000 0.645192 -0.764000  0.815302 0.642567 1 6 1.000000
0  -0.000005 12.968500 -1.095498  0.000000 0.850978 -0.525132  0.885708 0.642445 1 6 1.000000
0  0.774632 12.968500 -0.774635  0.371319 0.850978 -0.371319  0.885739 0.697409 1 6 1.000000
body_mat
0  -1.487370 12.346499 -1.487358  -0.540208 0.645192 -0.540208  0.815241 0.587573 1 6 1.000000
0  -0.774643 12.968500 -0.774636  -0.371319 0.850978 -0.371319  0.885647 0.587451 1 6 1.000000
0  -0.000005 12.968500 -1.095498  0.000000 0.850978 -0.525132  0.885708 0.642445 1 6 1.000000
body_mat
0  -1.487370 12.346499 -1.487358  -0.540208 0.645192 -0.540208  0.815241 0.587573 1 6 1.000000
0  -2.103450 12.346499 0.000001  -0.764000 0.645192 0.000000  0.815180 0.532609 1 6 1.000000
0  -0.774643 12.968500 -0.774636  -0.371319 0.850978 -0.371319  0.885647 0.587451 1 6 1.000000
body_mat
0  -2.103450 12.346499 0.000001  -0.764000 0.645192 0.000000  0.815180 0.532609 1 6 1.000000
0  -1.095510 12.968500 0.000002  -0.525132 0.850978 0.000000  0.885586 0.532487 1 6 1.000000
0  -0.774643 12.968500 -0.774636  -0.371319 0.850978 -0.371319  0.885647 0.587451 1 6 1.000000
body_mat
0  -0.000005 11.224600 2.315422  -0.001892 -0.113529 0.993530  0.742027 0.862667 1 6 1.000000
0  -1.665020 11.850500 1.665012  -0.694205 0.190100 0.694205  0.783074 0.917539 1 6 1.000000
0  -1.637250 11.224600 1.637252  -0.705252 -0.128147 0.697256  0.742088 0.917661 1 6 1.000000
body_mat
0  -0.000005 11.224600 2.315422  -0.001892 -0.113529 0.993530  0.742027 0.862667 1 6 1.000000
0  -0.000005 11.850500 2.354682  0.000000 0.190100 0.981750  0.783013 0.862545 1 6 1.000000
0  -1.665020 11.850500 1.665012  -0.694205 0.190100 0.694205  0.783074 0.917539 1 6 1.000000
body_mat
0  -0.000005 11.224600 2.315422  -0.001892 -0.113529 0.993530  0.742027 0.862667 1 6 1.000000
0  1.637240 11.224600 1.637252  0.702963 -0.109378 0.702750  0.741966 0.807703 1 6 1.000000
0  -0.000005 11.850500 2.354682  0.000000 0.190100 0.981750  0.783013 0.862545 1 6 1.000000
body_mat
0  -1.637250 11.224600 1.637252  -0.705252 -0.128147 0.697256  0.742088 0.917661 1 6 1.000000
0  -1.665020 11.850500 1.665012  -0.694205 0.190100 0.694205  0.783074 0.917539 1 6 1.000000
0  -2.354690 11.850500 0.000001  -0.981750 0.190100 0.000000  0.783135 0.972503 1 6 1.000000
body_mat
0  -1.637250 11.224600 1.637252  -0.705252 -0.128147 0.697256  0.742088 0.917661 1 6 1.000000
0  -2.354690 11.850500 0.000001  -0.981750 0.190100 0.000000  0.783135 0.972503 1 6 1.000000
0  -2.315420 11.224600 0.000002  -0.990081 -0.140355 -0.001343  0.742119 0.972625 1 6 1.000000
body_mat
0  0.774632 12.968500 -0.774635  0.371319 0.850978 -0.371319  0.885739 0.697409 1 6 1.000000
0  1.095500 12.968500 0.000002  0.525132 0.850978 0.000000  0.885800 0.752373 1 6 1.000000
0  1.487360 12.346499 -1.487358  0.540208 0.645192 -0.540208  0.815332 0.697531 1 6 1.000000
body_mat
0  1.487360 12.346499 -1.487358  0.540208 0.645192 -0.540208  0.815332 0.697531 1 6 1.000000
0  2.103440 12.346499 0.000002  0.764000 0.645192 0.000000  0.815394 0.752495 1 6 1.000000
0  1.665010 11.850500 -1.665008  0.694205 0.190100 -0.694205  0.782861 0.697623 1 6 1.000000
body_mat
0  1.487360 12.346499 -1.487358  0.540208 0.645192 -0.540208  0.815332 0.697531 1 6 1.000000
0  1.095500 12.968500 0.000002  0.525132 0.850978 0.000000  0.885800 0.752373 1 6 1.000000
0  2.103440 12.346499 0.000002  0.764000 0.645192 0.000000  0.815394 0.752495 1 6 1.000000
body_mat
0  -1.665020 11.850500 1.665012  -0.694205 0.190100 0.694205  0.783074 0.917539 1 6 1.000000
0  -0.000005 11.850500 2.354682  0.000000 0.190100 0.981750  0.783013 0.862545 1 6 1.000000
0  -1.487370 12.346499 1.487362  -0.540208 0.645192 0.540208  0.815577 0.917417 1 6 1.000000
body_mat
0  -1.665020 11.850500 1.665012  -0.694205 0.190100 0.694205  0.783074 0.917539 1 6 1.000000
0  -1.487370 12.346499 1.487362  -0.540208 0.645192 0.540208  0.815577 0.917417 1 6 1.000000
0  -2.103450 12.346499 0.000001  -0.764000 0.645192 0.000000  0.815607 0.972411 1 6 1.000000
body_mat
0  -1.665020 11.850500 1.665012  -0.694205 0.190100 0.694205  0.783074 0.917539 1 6 1.000000
0  -2.103450 12.346499 0.000001  -0.764000 0.645192 0.000000  0.815607 0.972411 1 6 1.000000
0  -2.354690 11.850500 0.000001  -0.981750 0.190100 0.000000  0.783135 0.972503 1 6 1.000000
body_mat
0  -0.000005 11.850500 2.354682  0.000000 0.190100 0.981750  0.783013 0.862545 1 6 1.000000
0  -0.000005 12.346499 2.103452  0.000000 0.645192 0.764000  0.815516 0.862453 1 6 1.000000
0  -1.487370 12.346499 1.487362  -0.540208 0.645192 0.540208  0.815577 0.917417 1 6 1.000000
body_mat
0  -0.000005 11.850500 2.354682  0.000000 0.190100 0.981750  0.783013 0.862545 1 6 1.000000
0  1.665010 11.850500 1.665012  0.694205 0.190100 0.694205  0.782952 0.807581 1 6 1.000000
0  -0.000005 12.346499 2.103452  0.000000 0.645192 0.764000  0.815516 0.862453 1 6 1.000000
body_mat
0  -0.000005 11.850500 2.354682  0.000000 0.190100 0.981750  0.783013 0.862545 1 6 1.000000
0  1.637240 11.224600 1.637252  0.702963 -0.109378 0.702750  0.741966 0.807703 1 6 1.000000
0  1.665010 11.850500 1.665012  0.694205 0.190100 0.694205  0.782952 0.807581 1 6 1.000000
body_mat
0  1.665010 11.850500 1.665012  0.694205 0.190100 0.694205  0.782952 0.807581 1 6 1.000000
0  1.637240 11.224600 1.637252  0.702963 -0.109378 0.702750  0.741966 0.807703 1 6 1.000000
0  2.315410 11.224600 0.000002  0.993927 -0.109897 -0.000305  0.741905 0.752739 1 6 1.000000
body_mat
0  1.095500 12.968500 0.000002  0.525132 0.850978 0.000000  0.885800 0.752373 1 6 1.000000
0  0.774631 12.968500 0.774639  0.371319 0.850978 0.371319  0.885861 0.807367 1 6 1.000000
0  2.103440 12.346499 0.000002  0.764000 0.645192 0.000000  0.815394 0.752495 1 6 1.000000
body_mat
0  2.103440 12.346499 0.000002  0.764000 0.645192 0.000000  0.815394 0.752495 1 6 1.000000
0  0.774631 12.968500 0.774639  0.371319 0.850978 0.371319  0.885861 0.807367 1 6 1.000000
0  1.487360 12.346499 1.487362  0.540208 0.645192 0.540208  0.815455 0.807489 1 6 1.000000
body_mat
0  -0.000005 12.346499 2.103452  0.000000 0.645192 0.764000  0.815516 0.862453 1 6 1.000000
0  1.665010 11.850500 1.665012  0.694205 0.190100 0.694205  0.782952 0.807581 1 6 1.000000
0  1.487360 12.346499 1.487362  0.540208 0.645192 0.540208  0.815455 0.807489 1 6 1.000000
body_mat
0  2.103440 12.346499 0.000002  0.764000 0.645192 0.000000  0.815394 0.752495 1 6 1.000000
0  2.354680 11.850500 0.000002  0.981750 0.190100 0.000000  0.782922 0.752617 1 6 1.000000
0  1.665010 11.850500 -1.665008  0.694205 0.190100 -0.694205  0.782861 0.697623 1 6 1.000000
body_mat
0  2.103440 12.346499 0.000002  0.764000 0.645192 0.000000  0.815394 0.752495 1 6 1.000000
0  1.487360 12.346499 1.487362  0.540208 0.645192 0.540208  0.815455 0.807489 1 6 1.000000
0  2.354680 11.850500 0.000002  0.981750 0.190100 0.000000  0.782922 0.752617 1 6 1.000000
body_mat
0  1.665010 11.850500 1.665012  0.694205 0.190100 0.694205  0.782952 0.807581 1 6 1.000000
0  2.354680 11.850500 0.000002  0.981750 0.190100 0.000000  0.782922 0.752617 1 6 1.000000
0  1.487360 12.346499 1.487362  0.540208 0.645192 0.540208  0.815455 0.807489 1 6 1.000000
body_mat
0  2.354680 11.850500 0.000002  0.981750 0.190100 0.000000  0.782922 0.752617 1 6 1.000000
0  2.315410 11.224600 0.000002  0.993927 -0.109897 -0.000305  0.741905 0.752739 1 6 1.000000
0  1.637240 11.224600 -1.637248  0.700064 -0.114933 -0.704733  0.741844 0.697745 1 6 1.000000
body_mat
0  1.665010 11.850500 1.665012  0.694205 0.190100 0.694205  0.782952 0.807581 1 6 1.000000
0  2.315410 11.224600 0.000002  0.993927 -0.109897 -0.000305  0.741905 0.752739 1 6 1.000000
0  2.354680 11.850500 0.000002  0.981750 0.190100 0.000000  0.782922 0.752617 1 6 1.000000
body_mat
0  1.665010 11.850500 -1.665008  0.694205 0.190100 -0.694205  0.782861 0.697623 1 6 1.000000
0  2.354680 11.850500 0.000002  0.981750 0.190100 0.000000  0.782922 0.752617 1 6 1.000000
0  1.637240 11.224600 -1.637248  0.700064 -0.114933 -0.704733  0.741844 0.697745 1 6 1.000000
body_mat
0  -1.487370 12.346499 1.487362  -0.540208 0.645192 0.540208  0.815577 0.917417 1 6 1.000000
0  -1.095510 12.968500 0.000002  -0.525132 0.850978 0.000000  0.886013 0.972289 1 6 1.000000
0  -2.103450 12.346499 0.000001  -0.764000 0.645192 0.000000  0.815607 0.972411 1 6 1.000000
body_mat
0  -1.487370 12.346499 1.487362  -0.540208 0.645192 0.540208  0.815577 0.917417 1 6 1.000000
0  -0.774643 12.968500 0.774639  -0.371319 0.850978 0.371319  0.885983 0.917295 1 6 1.000000
0  -1.095510 12.968500 0.000002  -0.525132 0.850978 0.000000  0.886013 0.972289 1 6 1.000000
body_mat
0  -1.487370 12.346499 1.487362  -0.540208 0.645192 0.540208  0.815577 0.917417 1 6 1.000000
0  -0.000005 12.346499 2.103452  0.000000 0.645192 0.764000  0.815516 0.862453 1 6 1.000000
0  -0.774643 12.968500 0.774639  -0.371319 0.850978 0.371319  0.885983 0.917295 1 6 1.000000
body_mat
0  0.774631 12.968500 0.774639  0.371319 0.850978 0.371319  0.885861 0.807367 1 6 1.000000
0  -0.000005 12.968500 1.095502  0.000000 0.850978 0.525132  0.885922 0.862331 1 6 1.000000
0  1.487360 12.346499 1.487362  0.540208 0.645192 0.540208  0.815455 0.807489 1 6 1.000000
body_mat
0  -0.000005 12.346499 2.103452  0.000000 0.645192 0.764000  0.815516 0.862453 1 6 1.000000
0  1.487360 12.346499 1.487362  0.540208 0.645192 0.540208  0.815455 0.807489 1 6 1.000000
0  -0.000005 12.968500 1.095502  0.000000 0.850978 0.525132  0.885922 0.862331 1 6 1.000000
body_mat
0  -0.000005 12.346499 2.103452  0.000000 0.645192 0.764000  0.815516 0.862453 1 6 1.000000
0  -0.000005 12.968500 1.095502  0.000000 0.850978 0.525132  0.885922 0.862331 1 6 1.000000
0  -0.774643 12.968500 0.774639  -0.371319 0.850978 0.371319  0.885983 0.917295 1 6 1.000000
body_mat
0  -1.285510 4.865820 0.468829  -0.796564 -0.027955 0.603870  0.703391 0.850063 1 6 1.000000
0  -1.454600 4.888830 -0.031336  -0.997436 0.070650 -0.010529  0.704428 0.933653 1 6 1.000000
0  -1.392990 3.829660 0.292211  -0.802301 -0.072878 0.592425  0.441115 0.864589 1 6 1.000000
body_mat
0  -1.285510 4.865820 0.468829  -0.796564 -0.027955 0.603870  0.703391 0.850063 1 6 1.000000
0  -1.392990 3.829660 0.292211  -0.802301 -0.072878 0.592425  0.441115 0.864589 1 6 1.000000
0  -1.190350 3.819950 0.420838  -0.222205 -0.149907 0.963378  0.440870 0.826197 1 6 1.000000
body_mat
0  -1.285510 4.865820 0.468829  -0.796564 -0.027955 0.603870  0.703391 0.850063 1 6 1.000000
0  -1.190350 3.819950 0.420838  -0.222205 -0.149907 0.963378  0.440870 0.826197 1 6 1.000000
0  -0.949223 4.690100 0.649431  -0.244514 -0.242134 0.938902  0.662069 0.797418 1 6 1.000000
body_mat
0  -1.454600 4.888830 -0.031336  -0.997436 0.070650 -0.010529  0.704428 0.933653 1 6 1.000000
0  -1.490070 3.807050 0.007909  -0.996887 -0.078463 0.003784  0.432722 0.912137 1 6 1.000000
0  -1.392990 3.829660 0.292211  -0.802301 -0.072878 0.592425  0.441115 0.864589 1 6 1.000000
body_mat
0  -1.454600 4.888830 -0.031336  -0.997436 0.070650 -0.010529  0.704428 0.933653 1 6 1.000000
0  -1.269620 4.838340 -0.561521  -0.775170 -0.032441 -0.630879  0.686453 1.025510 1 6 1.000000
0  -1.490070 3.807050 0.007909  -0.996887 -0.078463 0.003784  0.432722 0.912137 1 6 1.000000
body_mat
0  -1.392990 3.829660 0.292211  -0.802301 -0.072878 0.592425  0.441115 0.864589 1 6 1.000000
0  -1.196510 2.694770 0.291252  -0.753655 -0.165258 0.636128  0.157140 0.823359 1 6 1.000000
0  -1.190350 3.819950 0.420838  -0.222205 -0.149907 0.963378  0.440870 0.826197 1 6 1.000000
body_mat
0  -1.392990 3.829660 0.292211  -0.802301 -0.072878 0.592425  0.441115 0.864589 1 6 1.000000
0  -1.490070 3.807050 0.007909  -0.996887 -0.078463 0.003784  0.432722 0.912137 1 6 1.000000
0  -1.196510 2.694770 0.291252  -0.753655 -0.165258 0.636128  0.157140 0.823359 1 6 1.000000
body_mat
0  -1.190350 3.819950 0.420838  -0.222205 -0.149907 0.963378  0.440870 0.826197 1 6 1.000000
0  -1.196510 2.694770 0.291252  -0.753655 -0.165258 0.636128  0.157140 0.823359 1 6 1.000000
0  -1.080830 2.755560 0.368140  -0.014008 -0.012299 0.999817  0.174017 0.796411 1 6 1.000000
body_mat
0  -1.190350 3.819950 0.420838  -0.222205 -0.149907 0.963378  0.440870 0.826197 1 6 1.000000
0  -1.080830 2.755560 0.368140  -0.014008 -0.012299 0.999817  0.174017 0.796411 1 6 1.000000
0  -0.991703 3.747100 0.359229  0.430525 -0.233314 0.871883  0.424360 0.793268 1 6 1.000000
body_mat
0  -1.190350 3.819950 0.420838  -0.222205 -0.149907 0.963378  0.440870 0.826197 1 6 1.000000
0  -0.991703 3.747100 0.359229  0.430525 -0.233314 0.871883  0.424360 0.793268 1 6 1.000000
0  -0.614569 4.506350 0.559250  0.247902 -0.482742 0.839930  0.618366 0.750877 1 6 1.000000
body_mat
0  -1.190350 3.819950 0.420838  -0.222205 -0.149907 0.963378  0.440870 0.826197 1 6 1.000000
0  -0.614569 4.506350 0.559250  0.247902 -0.482742 0.839930  0.618366 0.750877 1 6 1.000000
0  -0.949223 4.690100 0.649431  -0.244514 -0.242134 0.938902  0.662069 0.797418 1 6 1.000000
body_mat
0  -1.269620 4.838340 -0.561521  -0.775170 -0.032441 -0.630879  0.686453 1.025510 1 6 1.000000
0  -1.380290 3.740010 -0.310908  -0.827540 -0.141850 -0.543138  0.412580 0.968169 1 6 1.000000
0  -1.490070 3.807050 0.007909  -0.996887 -0.078463 0.003784  0.432722 0.912137 1 6 1.000000
body_mat
0  -1.269620 4.838340 -0.561521  -0.775170 -0.032441 -0.630879  0.686453 1.025510 1 6 1.000000
0  -0.903999 4.740970 -0.765891  -0.273019 -0.220801 -0.936308  0.658773 1.079810 1 6 1.000000
0  -1.380290 3.740010 -0.310908  -0.827540 -0.141850 -0.543138  0.412580 0.968169 1 6 1.000000
body_mat
0  -1.490070 3.807050 0.007909  -0.996887 -0.078463 0.003784  0.432722 0.912137 1 6 1.000000
0  -1.380290 3.740010 -0.310908  -0.827540 -0.141850 -0.543138  0.412580 0.968169 1 6 1.000000
0  -1.201670 2.629350 -0.016526  -0.744652 -0.413556 -0.523850  0.136723 0.891720 1 6 1.000000
body_mat
0  -1.490070 3.807050 0.007909  -0.996887 -0.078463 0.003784  0.432722 0.912137 1 6 1.000000
0  -1.253590 2.648150 0.140318  -0.949553 -0.307657 0.060671  0.143529 0.855800 1 6 1.000000
0  -1.196510 2.694770 0.291252  -0.753655 -0.165258 0.636128  0.157140 0.823359 1 6 1.000000
body_mat
0  -1.490070 3.807050 0.007909  -0.996887 -0.078463 0.003784  0.432722 0.912137 1 6 1.000000
0  -1.201670 2.629350 -0.016526  -0.744652 -0.413556 -0.523850  0.136723 0.891720 1 6 1.000000
0  -1.253590 2.648150 0.140318  -0.949553 -0.307657 0.060671  0.143529 0.855800 1 6 1.000000
body_mat
0  -1.196510 2.694770 0.291252  -0.753655 -0.165258 0.636128  0.157140 0.823359 1 6 1.000000
0  -0.763575 1.650190 0.447538  0.277444 -0.920072 0.276498  -0.100650 0.784753 1 6 1.000000
0  -1.080830 2.755560 0.368140  -0.014008 -0.012299 0.999817  0.174017 0.796411 1 6 1.000000
body_mat
0  -1.196510 2.694770 0.291252  -0.753655 -0.165258 0.636128  0.157140 0.823359 1 6 1.000000
0  -1.253590 2.648150 0.140318  -0.949553 -0.307657 0.060671  0.143529 0.855800 1 6 1.000000
0  -0.763575 1.650190 0.447538  0.277444 -0.920072 0.276498  -0.100650 0.784753 1 6 1.000000
body_mat
0  -1.201670 2.629350 -0.016526  -0.744652 -0.413556 -0.523850  0.136723 0.891720 1 6 1.000000
0  -0.763575 1.650190 0.447538  0.277444 -0.920072 0.276498  -0.100650 0.784753 1 6 1.000000
0  -1.253590 2.648150 0.140318  -0.949553 -0.307657 0.060671  0.143529 0.855800 1 6 1.000000
body_mat
0  -1.080830 2.755560 0.368140  -0.014008 -0.012299 0.999817  0.174017 0.796411 1 6 1.000000
0  -0.763575 1.650190 0.447538  0.277444 -0.920072 0.276498  -0.100650 0.784753 1 6 1.000000
0  -0.958063 2.764310 0.283359  0.810907 0.076449 0.580126  0.177557 0.772759 1 6 1.000000
body_mat
0  -1.080830 2.755560 0.368140  -0.014008 -0.012299 0.999817  0.174017 0.796411 1 6 1.000000
0  -0.958063 2.764310 0.283359  0.810907 0.076449 0.580126  0.177557 0.772759 1 6 1.000000
0  -0.991703 3.747100 0.359229  0.430525 -0.233314 0.871883  0.424360 0.793268 1 6 1.000000
body_mat
0  -0.991703 3.747100 0.359229  0.430525 -0.233314 0.871883  0.424360 0.793268 1 6 1.000000
0  -0.861535 3.643480 0.200108  0.831568 -0.270974 0.484787  0.400433 0.754448 1 6 1.000000
0  -0.614569 4.506350 0.559250  0.247902 -0.482742 0.839930  0.618366 0.750877 1 6 1.000000
body_mat
0  -0.991703 3.747100 0.359229  0.430525 -0.233314 0.871883  0.424360 0.793268 1 6 1.000000
0  -0.958063 2.764310 0.283359  0.810907 0.076449 0.580126  0.177557 0.772759 1 6 1.000000
0  -0.861535 3.643480 0.200108  0.831568 -0.270974 0.484787  0.400433 0.754448 1 6 1.000000
body_mat
0  -0.614569 4.506350 0.559250  0.247902 -0.482742 0.839930  0.618366 0.750877 1 6 1.000000
0  -0.861535 3.643480 0.200108  0.831568 -0.270974 0.484787  0.400433 0.754448 1 6 1.000000
0  -0.458963 4.370340 0.290906  0.531968 -0.682669 0.500900  0.586444 0.708579 1 6 1.000000
body_mat
0  -1.380290 3.740010 -0.310908  -0.827540 -0.141850 -0.543138  0.412580 0.968169 1 6 1.000000
0  -0.903999 4.740970 -0.765891  -0.273019 -0.220801 -0.936308  0.658773 1.079810 1 6 1.000000
0  -1.190350 3.682860 -0.463524  -0.293222 -0.270608 -0.916929  0.395703 1.011410 1 6 1.000000
body_mat
0  -1.380290 3.740010 -0.310908  -0.827540 -0.141850 -0.543138  0.412580 0.968169 1 6 1.000000
0  -1.190350 3.682860 -0.463524  -0.293222 -0.270608 -0.916929  0.395703 1.011410 1 6 1.000000
0  -1.201670 2.629350 -0.016526  -0.744652 -0.413556 -0.523850  0.136723 0.891720 1 6 1.000000
body_mat
0  -0.903999 4.740970 -0.765891  -0.273019 -0.220801 -0.936308  0.658773 1.079810 1 6 1.000000
0  -0.582462 4.585800 -0.699209  0.225410 -0.491043 -0.841426  0.617450 1.117920 1 6 1.000000
0  -1.190350 3.682860 -0.463524  -0.293222 -0.270608 -0.916929  0.395703 1.011410 1 6 1.000000
body_mat
0  -1.201670 2.629350 -0.016526  -0.744652 -0.413556 -0.523850  0.136723 0.891720 1 6 1.000000
0  -1.080830 2.646920 -0.108514  -0.011353 -0.413373 -0.910459  0.138554 0.937254 1 6 1.000000
0  -0.763575 1.650190 0.447538  0.277444 -0.920072 0.276498  -0.100650 0.784753 1 6 1.000000
body_mat
0  -1.201670 2.629350 -0.016526  -0.744652 -0.413556 -0.523850  0.136723 0.891720 1 6 1.000000
0  -1.190350 3.682860 -0.463524  -0.293222 -0.270608 -0.916929  0.395703 1.011410 1 6 1.000000
0  -1.080830 2.646920 -0.108514  -0.011353 -0.413373 -0.910459  0.138554 0.937254 1 6 1.000000
body_mat
0  -0.958063 2.764310 0.283359  0.810907 0.076449 0.580126  0.177557 0.772759 1 6 1.000000
0  -0.912743 2.750300 0.118608  0.999908 -0.004944 -0.010956  0.175115 0.753441 1 6 1.000000
0  -0.861535 3.643480 0.200108  0.831568 -0.270974 0.484787  0.400433 0.754448 1 6 1.000000
body_mat
0  -0.763575 1.650190 0.447538  0.277444 -0.920072 0.276498  -0.100650 0.784753 1 6 1.000000
0  -0.912743 2.750300 0.118608  0.999908 -0.004944 -0.010956  0.175115 0.753441 1 6 1.000000
0  -0.958063 2.764310 0.283359  0.810907 0.076449 0.580126  0.177557 0.772759 1 6 1.000000
body_mat
0  -0.763575 1.650190 0.447538  0.277444 -0.920072 0.276498  -0.100650 0.784753 1 6 1.000000
0  -0.958063 2.703160 -0.040747  0.794916 -0.184454 -0.577960  0.159001 0.827754 1 6 1.000000
0  -0.912743 2.750300 0.118608  0.999908 -0.004944 -0.010956  0.175115 0.753441 1 6 1.000000
body_mat
0  -0.763575 1.650190 0.447538  0.277444 -0.920072 0.276498  -0.100650 0.784753 1 6 1.000000
0  -1.080830 2.646920 -0.108514  -0.011353 -0.413373 -0.910459  0.138554 0.937254 1 6 1.000000
0  -0.958063 2.703160 -0.040747  0.794916 -0.184454 -0.577960  0.159001 0.827754 1 6 1.000000
body_mat
0  -0.861535 3.643480 0.200108  0.831568 -0.270974 0.484787  0.400433 0.754448 1 6 1.000000
0  -0.826386 3.588950 0.002562  0.951537 -0.304392 0.043275  0.390667 0.684378 1 6 1.000000
0  -0.458963 4.370340 0.290906  0.531968 -0.682669 0.500900  0.586444 0.708579 1 6 1.000000
body_mat
0  -0.861535 3.643480 0.200108  0.831568 -0.270974 0.484787  0.400433 0.754448 1 6 1.000000
0  -0.912743 2.750300 0.118608  0.999908 -0.004944 -0.010956  0.175115 0.753441 1 6 1.000000
0  -0.826386 3.588950 0.002562  0.951537 -0.304392 0.043275  0.390667 0.684378 1 6 1.000000
body_mat
0  -0.458963 4.370340 0.290906  0.531968 -0.682669 0.500900  0.586444 0.708579 1 6 1.000000
0  -0.826386 3.588950 0.002562  0.951537 -0.304392 0.043275  0.390667 0.684378 1 6 1.000000
0  -0.398125 4.263700 -0.033102  0.662496 -0.748802 0.018067  0.562548 0.656056 1 6 1.000000
body_mat
0  -1.190350 3.682860 -0.463524  -0.293222 -0.270608 -0.916929  0.395703 1.011410 1 6 1.000000
0  -0.582462 4.585800 -0.699209  0.225410 -0.491043 -0.841426  0.617450 1.117920 1 6 1.000000
0  -0.991702 3.607990 -0.390623  0.467605 -0.358806 -0.807825  0.374828 1.045990 1 6 1.000000
body_mat
0  -1.080830 2.646920 -0.108514  -0.011353 -0.413373 -0.910459  0.138554 0.937254 1 6 1.000000
0  -0.991702 3.607990 -0.390623  0.467605 -0.358806 -0.807825  0.374828 1.045990 1 6 1.000000
0  -0.958063 2.703160 -0.040747  0.794916 -0.184454 -0.577960  0.159001 0.827754 1 6 1.000000
body_mat
0  -1.190350 3.682860 -0.463524  -0.293222 -0.270608 -0.916929  0.395703 1.011410 1 6 1.000000
0  -0.991702 3.607990 -0.390623  0.467605 -0.358806 -0.807825  0.374828 1.045990 1 6 1.000000
0  -1.080830 2.646920 -0.108514  -0.011353 -0.413373 -0.910459  0.138554 0.937254 1 6 1.000000
body_mat
0  -0.582462 4.585800 -0.699209  0.225410 -0.491043 -0.841426  0.617450 1.117920 1 6 1.000000
0  -0.861535 3.574580 -0.209393  0.858272 -0.333934 -0.389660  0.363201 1.102210 1 6 1.000000
0  -0.991702 3.607990 -0.390623  0.467605 -0.358806 -0.807825  0.374828 1.045990 1 6 1.000000
body_mat
0  -0.958063 2.703160 -0.040747  0.794916 -0.184454 -0.577960  0.159001 0.827754 1 6 1.000000
0  -0.991702 3.607990 -0.390623  0.467605 -0.358806 -0.807825  0.374828 1.045990 1 6 1.000000
0  -0.861535 3.574580 -0.209393  0.858272 -0.333934 -0.389660  0.363201 1.102210 1 6 1.000000
body_mat
0  -0.582462 4.585800 -0.699209  0.225410 -0.491043 -0.841426  0.617450 1.117920 1 6 1.000000
0  -0.423071 4.389780 -0.357143  0.505936 -0.705954 -0.495560  0.565447 1.162450 1 6 1.000000
0  -0.861535 3.574580 -0.209393  0.858272 -0.333934 -0.389660  0.363201 1.102210 1 6 1.000000
body_mat
0  -0.912743 2.750300 0.118608  0.999908 -0.004944 -0.010956  0.175115 0.753441 1 6 1.000000
0  -0.861535 3.574580 -0.209393  0.858272 -0.333934 -0.389660  0.394848 0.547563 1 6 1.000000
0  -0.826386 3.588950 0.002562  0.951537 -0.304392 0.043275  0.390667 0.684378 1 6 1.000000
body_mat
0  -0.912743 2.750300 0.118608  0.999908 -0.004944 -0.010956  0.175115 0.753441 1 6 1.000000
0  -0.958063 2.703160 -0.040747  0.794916 -0.184454 -0.577960  0.159001 0.827754 1 6 1.000000
0  -0.861535 3.574580 -0.209393  0.858272 -0.333934 -0.389660  0.394848 0.547563 1 6 1.000000
body_mat
0  -0.826386 3.588950 0.002562  0.951537 -0.304392 0.043275  0.390667 0.684378 1 6 1.000000
0  -0.423071 4.389780 -0.357143  0.505936 -0.705954 -0.495560  0.597125 0.607807 1 6 1.000000
0  -0.398125 4.263700 -0.033102  0.662496 -0.748802 0.018067  0.562548 0.656056 1 6 1.000000
body_mat
0  -0.826386 3.588950 0.002562  0.951537 -0.304392 0.043275  0.390667 0.684378 1 6 1.000000
0  -0.861535 3.574580 -0.209393  0.858272 -0.333934 -0.389660  0.394848 0.547563 1 6 1.000000
0  -0.423071 4.389780 -0.357143  0.505936 -0.705954 -0.495560  0.597125 0.607807 1 6 1.000000
body_mat
0  1.010420 1.902240 -0.568766  0.767479 -0.241096 -0.593951  0.348766 1.002410 1 6 1.000000
0  0.397374 1.060160 -0.682153  -0.073397 -0.122440 -0.989746  0.202399 0.935545 1 6 1.000000
0  0.764093 1.973010 -0.783523  0.253639 -0.142277 -0.956755  0.359172 0.967803 1 6 1.000000
body_mat
0  1.010420 1.902240 -0.568766  0.767479 -0.241096 -0.593951  0.348766 1.002410 1 6 1.000000
0  0.584718 0.961128 -0.547928  0.622974 -0.383404 -0.681814  0.186285 0.950804 1 6 1.000000
0  0.397374 1.060160 -0.682153  -0.073397 -0.122440 -0.989746  0.202399 0.935545 1 6 1.000000
body_mat
0  0.397374 1.060160 -0.682153  -0.073397 -0.122440 -0.989746  0.202399 0.935545 1 6 1.000000
0  0.584718 0.961128 -0.547928  0.622974 -0.383404 -0.681814  0.186285 0.950804 1 6 1.000000
0  -0.132996 0.015161 -0.497020  -0.459670 -0.877773 -0.134861  0.023041 0.900815 1 6 1.000000
body_mat
0  0.397374 1.060160 -0.682153  -0.073397 -0.122440 -0.989746  0.202399 0.935545 1 6 1.000000
0  -0.132996 0.015161 -0.497020  -0.459670 -0.877773 -0.134861  0.023041 0.900815 1 6 1.000000
0  0.210293 1.112700 -0.521670  -0.754784 0.169408 -0.633686  0.210120 0.909330 1 6 1.000000
body_mat
0  0.397374 1.060160 -0.682153  -0.073397 -0.122440 -0.989746  0.202399 0.935545 1 6 1.000000
0  0.577740 1.993390 -0.747752  -0.479934 0.024476 -0.876919  0.361705 0.948149 1 6 1.000000
0  0.764093 1.973010 -0.783523  0.253639 -0.142277 -0.956755  0.359172 0.967803 1 6 1.000000
body_mat
0  0.397374 1.060160 -0.682153  -0.073397 -0.122440 -0.989746  0.202399 0.935545 1 6 1.000000
0  0.210293 1.112700 -0.521670  -0.754784 0.169408 -0.633686  0.210120 0.909330 1 6 1.000000
0  0.577740 1.993390 -0.747752  -0.479934 0.024476 -0.876919  0.361705 0.948149 1 6 1.000000
body_mat
0  0.764093 1.973010 -0.783523  0.253639 -0.142277 -0.956755  0.359172 0.967803 1 6 1.000000
0  0.577740 1.993390 -0.747752  -0.479934 0.024476 -0.876919  0.361705 0.948149 1 6 1.000000
0  0.661247 3.269990 -0.785195  -0.529221 -0.084201 -0.844264  0.578784 0.947050 1 6 1.000000
body_mat
0  0.764093 1.973010 -0.783523  0.253639 -0.142277 -0.956755  0.359172 0.967803 1 6 1.000000
0  0.661247 3.269990 -0.785195  -0.529221 -0.084201 -0.844264  0.578784 0.947050 1 6 1.000000
0  0.915822 3.311060 -0.888023  0.179052 -0.084719 -0.980163  0.586810 0.969604 1 6 1.000000
body_mat
0  0.584718 0.961128 -0.547928  0.622974 -0.383404 -0.681814  0.186285 0.950804 1 6 1.000000
0  0.675042 0.889477 -0.351108  0.823969 -0.563372 -0.060335  0.174474 0.958800 1 6 1.000000
0  -0.132996 0.015161 -0.497020  -0.459670 -0.877773 -0.134861  0.023041 0.900815 1 6 1.000000
body_mat
0  -0.132996 0.015161 -0.497020  -0.459670 -0.877773 -0.134861  0.023041 0.900815 1 6 1.000000
0  0.099566 1.112270 -0.324756  -0.984497 0.172704 0.030457  0.208930 0.885739 1 6 1.000000
0  0.210293 1.112700 -0.521670  -0.754784 0.169408 -0.633686  0.210120 0.909330 1 6 1.000000
body_mat
0  -0.132996 0.015161 -0.497020  -0.459670 -0.877773 -0.134861  0.023041 0.900815 1 6 1.000000
0  0.675042 0.889477 -0.351108  0.823969 -0.563372 -0.060335  0.174474 0.958800 1 6 1.000000
0  0.585336 0.918585 -0.143416  0.594317 -0.550218 0.586505  0.175787 0.881588 1 6 1.000000
body_mat
0  -0.132996 0.015161 -0.497020  -0.459670 -0.877773 -0.134861  0.023041 0.900815 1 6 1.000000
0  0.585336 0.918585 -0.143416  0.594317 -0.550218 0.586505  0.175787 0.881588 1 6 1.000000
0  0.398431 0.969287 -0.009135  -0.079440 -0.375469 0.923399  0.182623 0.843715 1 6 1.000000
body_mat
0  -0.132996 0.015161 -0.497020  -0.459670 -0.877773 -0.134861  0.023041 0.900815 1 6 1.000000
0  0.210881 1.072190 -0.136433  -0.741905 -0.017945 0.670217  0.201209 0.866939 1 6 1.000000
0  0.099566 1.112270 -0.324756  -0.984497 0.172704 0.030457  0.208930 0.885739 1 6 1.000000
body_mat
0  -0.132996 0.015161 -0.497020  -0.459670 -0.877773 -0.134861  0.023041 0.900815 1 6 1.000000
0  0.398431 0.969287 -0.009135  -0.079440 -0.375469 0.923399  0.182623 0.843715 1 6 1.000000
0  0.210881 1.072190 -0.136433  -0.741905 -0.017945 0.670217  0.201209 0.866939 1 6 1.000000
body_mat
0  0.210293 1.112700 -0.521670  -0.754784 0.169408 -0.633686  0.210120 0.909330 1 6 1.000000
0  0.381816 1.982550 -0.526151  -0.854976 0.100620 -0.508774  0.358379 0.916623 1 6 1.000000
0  0.577740 1.993390 -0.747752  -0.479934 0.024476 -0.876919  0.361705 0.948149 1 6 1.000000
body_mat
0  0.210293 1.112700 -0.521670  -0.754784 0.169408 -0.633686  0.210120 0.909330 1 6 1.000000
0  0.099566 1.112270 -0.324756  -0.984497 0.172704 0.030457  0.208930 0.885739 1 6 1.000000
0  0.381816 1.982550 -0.526151  -0.854976 0.100620 -0.508774  0.358379 0.916623 1 6 1.000000
body_mat
0  0.577740 1.993390 -0.747752  -0.479934 0.024476 -0.876919  0.361705 0.948149 1 6 1.000000
0  0.381816 1.982550 -0.526151  -0.854976 0.100620 -0.508774  0.358379 0.916623 1 6 1.000000
0  0.661247 3.269990 -0.785195  -0.529221 -0.084201 -0.844264  0.578784 0.947050 1 6 1.000000
body_mat
0  0.915822 3.311060 -0.888023  0.179052 -0.084719 -0.980163  0.586810 0.969604 1 6 1.000000
0  0.661247 3.269990 -0.785195  -0.529221 -0.084201 -0.844264  0.578784 0.947050 1 6 1.000000
0  1.008750 5.211050 -1.039829  0.490219 -0.101047 -0.865688  0.866634 0.958251 1 6 1.000000
body_mat
0  0.099566 1.112270 -0.324756  -0.984497 0.172704 0.030457  0.208930 0.885739 1 6 1.000000
0  0.281706 1.952820 -0.231947  -0.995697 0.092410 0.004273  0.351360 0.874874 1 6 1.000000
0  0.381816 1.982550 -0.526151  -0.854976 0.100620 -0.508774  0.358379 0.916623 1 6 1.000000
body_mat
0  0.099566 1.112270 -0.324756  -0.984497 0.172704 0.030457  0.208930 0.885739 1 6 1.000000
0  0.379297 1.920800 0.062862  -0.861080 -0.020447 0.508011  0.343577 0.824763 1 6 1.000000
0  0.281706 1.952820 -0.231947  -0.995697 0.092410 0.004273  0.351360 0.874874 1 6 1.000000
body_mat
0  0.099566 1.112270 -0.324756  -0.984497 0.172704 0.030457  0.208930 0.885739 1 6 1.000000
0  0.210881 1.072190 -0.136433  -0.741905 -0.017945 0.670217  0.201209 0.866939 1 6 1.000000
0  0.379297 1.920800 0.062862  -0.861080 -0.020447 0.508011  0.343577 0.824763 1 6 1.000000
body_mat
0  0.585336 0.918585 -0.143416  0.594317 -0.550218 0.586505  0.175787 0.881588 1 6 1.000000
0  0.812286 1.860830 0.257119  0.357463 -0.309000 0.881314  0.329051 0.732688 1 6 1.000000
0  0.398431 0.969287 -0.009135  -0.079440 -0.375469 0.923399  0.182623 0.843715 1 6 1.000000
body_mat
0  0.585336 0.918585 -0.143416  0.594317 -0.550218 0.586505  0.175787 0.881588 1 6 1.000000
0  1.007590 1.832830 0.093208  0.754357 -0.332896 0.565752  0.321970 0.683737 1 6 1.000000
0  0.812286 1.860830 0.257119  0.357463 -0.309000 0.881314  0.329051 0.732688 1 6 1.000000
body_mat
0  0.585336 0.918585 -0.143416  0.594317 -0.550218 0.586505  0.175787 0.881588 1 6 1.000000
0  0.675042 0.889477 -0.351108  0.823969 -0.563372 -0.060335  0.154180 0.527635 1 6 1.000000
0  1.007590 1.832830 0.093208  0.754357 -0.332896 0.565752  0.321970 0.683737 1 6 1.000000
body_mat
0  0.398431 0.969287 -0.009135  -0.079440 -0.375469 0.923399  0.182623 0.843715 1 6 1.000000
0  0.573329 1.885270 0.283542  -0.343852 -0.199744 0.917508  0.335124 0.774010 1 6 1.000000
0  0.210881 1.072190 -0.136433  -0.741905 -0.017945 0.670217  0.201209 0.866939 1 6 1.000000
body_mat
0  0.398431 0.969287 -0.009135  -0.079440 -0.375469 0.923399  0.182623 0.843715 1 6 1.000000
0  0.812286 1.860830 0.257119  0.357463 -0.309000 0.881314  0.329051 0.732688 1 6 1.000000
0  0.573329 1.885270 0.283542  -0.343852 -0.199744 0.917508  0.335124 0.774010 1 6 1.000000
body_mat
0  0.210881 1.072190 -0.136433  -0.741905 -0.017945 0.670217  0.201209 0.866939 1 6 1.000000
0  0.573329 1.885270 0.283542  -0.343852 -0.199744 0.917508  0.335124 0.774010 1 6 1.000000
0  0.379297 1.920800 0.062862  -0.861080 -0.020447 0.508011  0.343577 0.824763 1 6 1.000000
body_mat
0  0.381816 1.982550 -0.526151  -0.854976 0.100620 -0.508774  0.358379 0.916623 1 6 1.000000
0  0.281706 1.952820 -0.231947  -0.995697 0.092410 0.004273  0.351360 0.874874 1 6 1.000000
0  0.376778 3.224870 -0.474349  -0.858425 -0.097446 -0.503555  0.568957 0.901700 1 6 1.000000
body_mat
0  0.381816 1.982550 -0.526151  -0.854976 0.100620 -0.508774  0.358379 0.916623 1 6 1.000000
0  0.376778 3.224870 -0.474349  -0.858425 -0.097446 -0.503555  0.568957 0.901700 1 6 1.000000
0  0.661247 3.269990 -0.785195  -0.529221 -0.084201 -0.844264  0.578784 0.947050 1 6 1.000000
body_mat
0  1.008750 5.211050 -1.039829  0.490219 -0.101047 -0.865688  0.866634 0.958251 1 6 1.000000
0  0.661247 3.269990 -0.785195  -0.529221 -0.084201 -0.844264  0.578784 0.947050 1 6 1.000000
0  0.556903 5.133250 -1.130859  -0.074679 -0.226997 -0.971007  0.858455 0.927396 1 6 1.000000
body_mat
0  0.379297 1.920800 0.062862  -0.861080 -0.020447 0.508011  0.343577 0.824763 1 6 1.000000
0  0.573329 1.885270 0.283542  -0.343852 -0.199744 0.917508  0.335124 0.774010 1 6 1.000000
0  0.378252 3.311740 0.359843  -0.815363 -0.163366 0.555406  0.578082 0.781121 1 6 1.000000
body_mat
0  0.281706 1.952820 -0.231947  -0.995697 0.092410 0.004273  0.351360 0.874874 1 6 1.000000
0  0.379297 1.920800 0.062862  -0.861080 -0.020447 0.508011  0.343577 0.824763 1 6 1.000000
0  0.378252 3.311740 0.359843  -0.815363 -0.163366 0.555406  0.578082 0.781121 1 6 1.000000
body_mat
0  0.281706 1.952820 -0.231947  -0.995697 0.092410 0.004273  0.351360 0.874874 1 6 1.000000
0  0.238403 3.205730 -0.071605  -0.994537 -0.102817 0.016205  0.562853 0.840968 1 6 1.000000
0  0.376778 3.224870 -0.474349  -0.858425 -0.097446 -0.503555  0.568957 0.901700 1 6 1.000000
body_mat
0  0.281706 1.952820 -0.231947  -0.995697 0.092410 0.004273  0.351360 0.874874 1 6 1.000000
0  0.378252 3.311740 0.359843  -0.815363 -0.163366 0.555406  0.578082 0.781121 1 6 1.000000
0  0.238403 3.205730 -0.071605  -0.994537 -0.102817 0.016205  0.562853 0.840968 1 6 1.000000
body_mat
0  0.812286 1.860830 0.257119  0.357463 -0.309000 0.881314  0.329051 0.732688 1 6 1.000000
0  1.007590 1.832830 0.093208  0.754357 -0.332896 0.565752  0.321970 0.683737 1 6 1.000000
0  0.990783 3.476960 0.601609  0.424421 -0.207892 0.881252  0.602893 0.711417 1 6 1.000000
body_mat
0  0.812286 1.860830 0.257119  0.357463 -0.309000 0.881314  0.329051 0.732688 1 6 1.000000
0  0.634137 3.419820 0.604490  -0.297220 -0.218085 0.929533  0.594775 0.745170 1 6 1.000000
0  0.573329 1.885270 0.283542  -0.343852 -0.199744 0.917508  0.335124 0.774010 1 6 1.000000
body_mat
0  0.573329 1.885270 0.283542  -0.343852 -0.199744 0.917508  0.335124 0.774010 1 6 1.000000
0  0.634137 3.419820 0.604490  -0.297220 -0.218085 0.929533  0.594775 0.745170 1 6 1.000000
0  0.378252 3.311740 0.359843  -0.815363 -0.163366 0.555406  0.578082 0.781121 1 6 1.000000
body_mat
0  0.812286 1.860830 0.257119  0.357463 -0.309000 0.881314  0.329051 0.732688 1 6 1.000000
0  0.990783 3.476960 0.601609  0.424421 -0.207892 0.881252  0.602893 0.711417 1 6 1.000000
0  0.634137 3.419820 0.604490  -0.297220 -0.218085 0.929533  0.594775 0.745170 1 6 1.000000
body_mat
0  0.675042 0.889477 -0.351108  0.823969 -0.563372 -0.060335  0.154180 0.527635 1 6 1.000000
0  1.144640 1.826460 -0.237203  0.950011 -0.311441 -0.021424  0.317942 0.621052 1 6 1.000000
0  1.007590 1.832830 0.093208  0.754357 -0.332896 0.565752  0.321970 0.683737 1 6 1.000000
body_mat
0  0.675042 0.889477 -0.351108  0.823969 -0.563372 -0.060335  0.154180 0.527635 1 6 1.000000
0  0.584718 0.961128 -0.547928  0.622974 -0.383404 -0.681814  0.165990 0.519608 1 6 1.000000
0  1.144640 1.826460 -0.237203  0.950011 -0.311441 -0.021424  0.317942 0.621052 1 6 1.000000
body_mat
0  0.661247 3.269990 -0.785195  -0.529221 -0.084201 -0.844264  0.578784 0.947050 1 6 1.000000
0  0.181710 4.801210 -0.809028  -0.422559 -0.367260 -0.828578  0.836787 0.895993 1 6 1.000000
0  0.556903 5.133250 -1.130859  -0.074679 -0.226997 -0.971007  0.858455 0.927396 1 6 1.000000
body_mat
0  0.661247 3.269990 -0.785195  -0.529221 -0.084201 -0.844264  0.578784 0.947050 1 6 1.000000
0  0.376778 3.224870 -0.474349  -0.858425 -0.097446 -0.503555  0.568957 0.901700 1 6 1.000000
0  0.181710 4.801210 -0.809028  -0.422559 -0.367260 -0.828578  0.836787 0.895993 1 6 1.000000
body_mat
0  0.376778 3.224870 -0.474349  -0.858425 -0.097446 -0.503555  0.568957 0.901700 1 6 1.000000
0  0.049864 4.470750 -0.479743  -0.630390 -0.546190 -0.551592  0.779412 0.870602 1 6 1.000000
0  0.181710 4.801210 -0.809028  -0.422559 -0.367260 -0.828578  0.836787 0.895993 1 6 1.000000
body_mat
0  0.376778 3.224870 -0.474349  -0.858425 -0.097446 -0.503555  0.568957 0.901700 1 6 1.000000
0  0.038995 4.334110 -0.077834  -0.708243 -0.705435 0.026887  0.754448 0.834071 1 6 1.000000
0  0.049864 4.470750 -0.479743  -0.630390 -0.546190 -0.551592  0.779412 0.870602 1 6 1.000000
body_mat
0  0.376778 3.224870 -0.474349  -0.858425 -0.097446 -0.503555  0.568957 0.901700 1 6 1.000000
0  0.238403 3.205730 -0.071605  -0.994537 -0.102817 0.016205  0.562853 0.840968 1 6 1.000000
0  0.038995 4.334110 -0.077834  -0.708243 -0.705435 0.026887  0.754448 0.834071 1 6 1.000000
body_mat
0  0.238403 3.205730 -0.071605  -0.994537 -0.102817 0.016205  0.562853 0.840968 1 6 1.000000
0  0.378252 3.311740 0.359843  -0.815363 -0.163366 0.555406  0.578082 0.781121 1 6 1.000000
0  0.038995 4.334110 -0.077834  -0.708243 -0.705435 0.026887  0.754448 0.834071 1 6 1.000000
body_mat
0  0.378252 3.311740 0.359843  -0.815363 -0.163366 0.555406  0.578082 0.781121 1 6 1.000000
0  0.634137 3.419820 0.604490  -0.297220 -0.218085 0.929533  0.594775 0.745170 1 6 1.000000
0  0.221154 4.646320 0.667178  -0.427869 -0.410291 0.805322  0.804346 0.766289 1 6 1.000000
body_mat
0  0.378252 3.311740 0.359843  -0.815363 -0.163366 0.555406  0.578082 0.781121 1 6 1.000000
0  0.078502 4.458590 0.284956  -0.565783 -0.688528 0.453597  0.773949 0.798578 1 6 1.000000
0  0.038995 4.334110 -0.077834  -0.708243 -0.705435 0.026887  0.754448 0.834071 1 6 1.000000
body_mat
0  0.378252 3.311740 0.359843  -0.815363 -0.163366 0.555406  0.578082 0.781121 1 6 1.000000
0  0.221154 4.646320 0.667178  -0.427869 -0.410291 0.805322  0.804346 0.766289 1 6 1.000000
0  0.078502 4.458590 0.284956  -0.565783 -0.688528 0.453597  0.773949 0.798578 1 6 1.000000
body_mat
0  0.634137 3.419820 0.604490  -0.297220 -0.218085 0.929533  0.594775 0.745170 1 6 1.000000
0  0.990783 3.476960 0.601609  0.424421 -0.207892 0.881252  0.602893 0.711417 1 6 1.000000
0  0.581537 4.884770 0.915165  -0.107456 -0.261299 0.959227  0.843410 0.734367 1 6 1.000000
body_mat
0  0.634137 3.419820 0.604490  -0.297220 -0.218085 0.929533  0.594775 0.745170 1 6 1.000000
0  0.581537 4.884770 0.915165  -0.107456 -0.261299 0.959227  0.843410 0.734367 1 6 1.000000
0  0.221154 4.646320 0.667178  -0.427869 -0.410291 0.805322  0.804346 0.766289 1 6 1.000000
body_mat
0  0.990783 3.476960 0.601609  0.424421 -0.207892 0.881252  0.602893 0.711417 1 6 1.000000
0  1.099190 5.090890 0.883900  0.491958 -0.162328 0.855312  0.856288 0.698416 1 6 1.000000
0  0.581537 4.884770 0.915165  -0.107456 -0.261299 0.959227  0.843410 0.734367 1 6 1.000000
body_mat
0  0.990783 3.476960 0.601609  0.424421 -0.207892 0.881252  0.602893 0.711417 1 6 1.000000
0  1.007590 1.832830 0.093208  0.754357 -0.332896 0.565752  0.321970 0.683737 1 6 1.000000
0  1.256040 3.465410 0.299137  0.840358 -0.172765 0.513749  0.599139 0.673208 1 6 1.000000
body_mat
0  0.990783 3.476960 0.601609  0.424421 -0.207892 0.881252  0.602893 0.711417 1 6 1.000000
0  1.256040 3.465410 0.299137  0.840358 -0.172765 0.513749  0.599139 0.673208 1 6 1.000000
0  1.099190 5.090890 0.883900  0.491958 -0.162328 0.855312  0.856288 0.698416 1 6 1.000000
body_mat
0  0.584718 0.961128 -0.547928  0.622974 -0.383404 -0.681814  0.165990 0.519608 1 6 1.000000
0  1.010420 1.902240 -0.568766  0.767479 -0.241096 -0.593951  0.328501 0.571276 1 6 1.000000
0  1.144640 1.826460 -0.237203  0.950011 -0.311441 -0.021424  0.317942 0.621052 1 6 1.000000
body_mat
0  1.144640 1.826460 -0.237203  0.950011 -0.311441 -0.021424  0.317942 0.621052 1 6 1.000000
0  1.414380 3.424030 -0.120192  0.989227 -0.144017 0.026002  0.589953 0.627522 1 6 1.000000
0  1.007590 1.832830 0.093208  0.754357 -0.332896 0.565752  0.321970 0.683737 1 6 1.000000
body_mat
0  1.144640 1.826460 -0.237203  0.950011 -0.311441 -0.021424  0.317942 0.621052 1 6 1.000000
0  1.010420 1.902240 -0.568766  0.767479 -0.241096 -0.593951  0.328501 0.571276 1 6 1.000000
0  1.414380 3.424030 -0.120192  0.989227 -0.144017 0.026002  0.589953 0.627522 1 6 1.000000
body_mat
0  1.256040 3.465410 0.299137  0.840358 -0.172765 0.513749  0.599139 0.673208 1 6 1.000000
0  1.007590 1.832830 0.093208  0.754357 -0.332896 0.565752  0.321970 0.683737 1 6 1.000000
0  1.414380 3.424030 -0.120192  0.989227 -0.144017 0.026002  0.589953 0.627522 1 6 1.000000
body_mat
0  1.256040 3.465410 0.299137  0.840358 -0.172765 0.513749  0.599139 0.673208 1 6 1.000000
0  1.414380 3.424030 -0.120192  0.989227 -0.144017 0.026002  0.589953 0.627522 1 6 1.000000
0  1.454580 5.224930 0.492329  0.890835 -0.097018 0.443770  0.862148 0.661580 1 6 1.000000
body_mat
0  1.099190 5.090890 0.883900  0.491958 -0.162328 0.855312  0.856288 0.698416 1 6 1.000000
0  1.256040 3.465410 0.299137  0.840358 -0.172765 0.513749  0.599139 0.673208 1 6 1.000000
0  1.454580 5.224930 0.492329  0.890835 -0.097018 0.443770  0.862148 0.661580 1 6 1.000000
body_mat
0  1.010420 1.902240 -0.568766  0.767479 -0.241096 -0.593951  0.328501 0.571276 1 6 1.000000
0  1.254430 3.370110 -0.603672  0.831172 -0.109287 -0.545122  0.578448 0.577624 1 6 1.000000
0  1.414380 3.424030 -0.120192  0.989227 -0.144017 0.026002  0.589953 0.627522 1 6 1.000000
body_mat
0  1.010420 1.902240 -0.568766  0.767479 -0.241096 -0.593951  0.328501 0.571276 1 6 1.000000
0  0.915822 3.311060 -0.888023  0.179052 -0.084719 -0.980163  0.566546 0.538438 1 6 1.000000
0  1.254430 3.370110 -0.603672  0.831172 -0.109287 -0.545122  0.578448 0.577624 1 6 1.000000
body_mat
0  1.010420 1.902240 -0.568766  0.767479 -0.241096 -0.593951  0.328501 0.571276 1 6 1.000000
0  0.764093 1.973010 -0.783523  0.253639 -0.142277 -0.956755  0.338908 0.536637 1 6 1.000000
0  0.915822 3.311060 -0.888023  0.179052 -0.084719 -0.980163  0.566546 0.538438 1 6 1.000000
body_mat
0  1.414380 3.424030 -0.120192  0.989227 -0.144017 0.026002  0.589953 0.627522 1 6 1.000000
0  1.580490 5.300880 -0.088920  0.996033 -0.059999 -0.065645  0.866054 0.615284 1 6 1.000000
0  1.454580 5.224930 0.492329  0.890835 -0.097018 0.443770  0.862148 0.661580 1 6 1.000000
body_mat
0  1.414380 3.424030 -0.120192  0.989227 -0.144017 0.026002  0.589953 0.627522 1 6 1.000000
0  1.254430 3.370110 -0.603672  0.831172 -0.109287 -0.545122  0.578448 0.577624 1 6 1.000000
0  1.396520 5.288390 -0.628757  0.858913 -0.062746 -0.508255  0.865535 0.568651 1 6 1.000000
body_mat
0  1.414380 3.424030 -0.120192  0.989227 -0.144017 0.026002  0.589953 0.627522 1 6 1.000000
0  1.396520 5.288390 -0.628757  0.858913 -0.062746 -0.508255  0.865535 0.568651 1 6 1.000000
0  1.580490 5.300880 -0.088920  0.996033 -0.059999 -0.065645  0.866054 0.615284 1 6 1.000000
body_mat
0  0.915822 3.311060 -0.888023  0.179052 -0.084719 -0.980163  0.566546 0.538438 1 6 1.000000
0  1.396520 5.288390 -0.628757  0.858913 -0.062746 -0.508255  0.865535 0.568651 1 6 1.000000
0  1.254430 3.370110 -0.603672  0.831172 -0.109287 -0.545122  0.578448 0.577624 1 6 1.000000
body_mat
0  0.915822 3.311060 -0.888023  0.179052 -0.084719 -0.980163  0.566546 0.538438 1 6 1.000000
0  1.008750 5.211050 -1.039829  0.490219 -0.101047 -0.865688  0.865627 0.536180 1 6 1.000000
0  1.396520 5.288390 -0.628757  0.858913 -0.062746 -0.508255  0.865535 0.568651 1 6 1.000000
end
