<?xml version="1.0" encoding="utf-8"?>
<COLLADA xmlns="http://www.collada.org/2005/11/COLLADASchema" version="1.4.1">
  <asset>
    <created>2020-02-09T17:04:10Z</created>
    <modified>2020-02-09T17:04:10Z</modified>
  </asset>
  <library_images>
    <image id="Image">
      <init_from>./t_fg_banana.png</init_from>
    </image>
  </library_images>
  <library_materials>
    <material id="VisualMaterial" name="Mdl_26_Mtl_m_fg_banana">
      <instance_effect url="#Effect"/>
      <extra>
        <technique profile="FCOLLADA">
          <user_properties>Mdl_26_Mtl_m_fg_banana</user_properties>
        </technique>
      </extra>
    </material>
  </library_materials>
  <library_effects>
    <effect id="Effect" name="t_fg_banana_png">
      <profile_COMMON>
        <newparam sid="Image-surface">
          <surface type="2D">
            <init_from>Image</init_from>
            <format>A8R8G8B8</format>
          </surface>
        </newparam>
        <newparam sid="Image-sampler">
          <sampler2D>
            <source>Image-surface</source>
            <wrap_s>WRAP</wrap_s>
            <wrap_t>WRAP</wrap_t>
            <minfilter>NONE</minfilter>
            <magfilter>NONE</magfilter>
            <mipfilter>NONE</mipfilter>
          </sampler2D>
        </newparam>
        <technique sid="common">
          <phong>
            <emission>
              <color>0 0 0 1</color>
            </emission>
            <ambient>
              <color>0 0 0 1</color>
            </ambient>
            <diffuse>
              <texture texture="Image-sampler" texcoord=""/>
            </diffuse>
            <specular>
              <color>1 1 1 1</color>
            </specular>
            <shininess>
              <float>0</float>
            </shininess>
            <transparent opaque="A_ONE">
              <color>0 0 0 1</color>
            </transparent>
            <transparency>
              <float>1</float>
            </transparency>
            <index_of_refraction>
              <float>1.55</float>
            </index_of_refraction>
          </phong>
          <extra>
            <technique profile="FCOLLADA">
              <spec_level>
                <float>0</float>
              </spec_level>
            </technique>
          </extra>
        </technique>
      </profile_COMMON>
      <extra>
        <technique profile="FCOLLADA">
          <user_properties>t_fg_banana.png</user_properties>
        </technique>
      </extra>
    </effect>
  </library_effects>
  <library_geometries>
    <geometry id="Geometry" name="_0_0">
      <mesh>
        <source id="GeometrySource" name="_0_0Pos">
          <float_array id="GeometrySource-array" count="366">0.68737 0.029859 2.24803 3.69637 0.92377 1.60072 2.63979 0.237169 3.94191 -0.35068 -0.58936 -0.805665 -3.41127 1.24922 7.72138 -4.18147 -0.251491 -0.086759 -3.59847 1.6954 5.45986 -3.81017 0.60345 2.63331 -0.97825 1.79767 2.76363 5.70513 2.7574 2.97757 3.80672 1.10495 -1.09575 5.68062 6.12858 0.18423 4.98838 5.50603 -0.670454 -5.67067 3.84709 7.71244 -1.70606 1.20394 8.31095 -5.35817 3.82722 8.78354 -4.24657 3.82837 9.5972 -7.62497 1.98666 3.10365 -0.24747 0.991449 -3.5643 -7.90967 1.75302 1.13091 -5.01937 1.42421 -2.04711 -8.30387 2.62979 -0.504753 -6.07277 2.86714 3.72595 3.74643 2.14158 5.76823 1.99476 1.75719 -2.9959 1.65366 1.48526 7.46086 -10.4175 4.87681 2.15666 -2.30403 2.97003 -2.63066 -7.03747 4.10209 -1.73206 -9.64207 5.15925 3.34901 5.29997 6.39964 -1.52715 -4.89777 2.38378 -3.63162 -0.9428 0.74924 -6.02581 -6.79957 2.88385 -5.36118 -9.85607 5.53155 1.0649 3.86176 3.37298 -5.08497 -8.17367 6.13465 -3.82941 -0.20134 4.13062 -7.29827 -4.91917 3.06724 -7.21301 -8.26267 6.41715 -5.29753 -7.47727 6.73054 -6.50615 -3.34987 3.36139 3.49801 1.44681 4.76544 2.48081 1.49697 6.20973 2.18982 -0.97825 1.79767 2.76363 1.08405 7.22005 0.43567 -6.07277 2.86714 3.72595 -4.36727 4.8122 0.94523 -8.85247 5.9543 3.21603 5.47786 7.02889 -0.515879 4.84172 6.55996 1.53731 -9.64207 5.15925 3.34901 -4.34127 4.48656 -1.66196 -9.09487 6.1133 2.26395 -9.07827 6.3073 1.10218 0.84887 6.89287 -1.36976 0.91694 5.90269 -2.3946 4.34472 7.14632 -2.46127 -9.85607 5.53155 1.0649 -7.03747 4.10209 -1.73206 -10.4175 4.87681 2.15666 -2.30403 2.97003 -2.63066 4.90162 5.44606 4.60594 5.70513 2.7574 2.97757 5.68062 6.12858 0.18423 3.74643 2.14158 5.76823 4.84172 6.55996 1.53731 -0.23368 3.22558 8.59175 2.5895 5.82568 3.33731 -1.66941 4.58543 6.43717 1.65366 1.48526 7.46086 1.44681 4.76544 2.48081 -1.70606 1.20394 8.31095 -3.53387 4.86752 9.36828 -4.24657 3.82837 9.5972 -2.61882 4.50523 5.37414 -3.08127 3.70999 4.8845 -0.97825 1.79767 2.76363 -5.35817 3.82722 8.78354 -5.25957 4.94937 7.13602 -3.59847 1.6954 5.45986 -5.67067 3.84709 7.71244 -2.94627 6.08591 -7.30509 -7.47727 6.73054 -6.50615 -6.95687 7.564 -5.92824 -4.91917 3.06724 -7.21301 -3.48367 6.17637 -4.5738 -0.20134 4.13062 -7.29827 1.21352 6.61422 -3.41005 3.42682 6.69736 -5.2512 -8.26267 6.41715 -5.29753 -3.95057 4.35291 -2.67553 -7.35547 6.89544 -3.56671 3.86176 3.37298 -5.08497 0.91694 5.90269 -2.3946 4.34472 7.14632 -2.46127 -8.17367 6.13465 -3.82941 5.29997 6.39964 -1.52715 -2.30403 2.97003 -2.63066 -4.89777 2.38378 -3.63162 5.47786 7.02889 -0.515879 9.11022 9.68741 -0.882689 8.85136 9.27053 1.44024 7.79037 10.231 -3.00141 5.68062 6.12858 0.18423 5.29997 6.39964 -1.52715 4.98838 5.50603 -0.670454 5.86727 9.45024 3.9934 4.16964 11.4638 -3.79145 4.84172 6.55996 1.53731 4.34472 7.14632 -2.46127 9.11022 9.68741 -0.882689 5.86727 9.45024 3.9934 8.85136 9.27053 1.44024 6.14412 9.69909 -0.215244 4.16964 11.4638 -3.79145 7.79037 10.231 -3.00141 4.34472 7.14632 -2.46127 6.14412 9.69909 -0.215244 5.47786 7.02889 -0.515879 4.84172 6.55996 1.53731 5.86727 9.45024 3.9934</float_array>
          <technique_common>
            <accessor source="#GeometrySource-array" count="122" stride="3">
              <param name="X" type="float"/>
              <param name="Y" type="float"/>
              <param name="Z" type="float"/>
            </accessor>
          </technique_common>
        </source>
        <source id="GeometrySource1" name="_0_0Nrm">
          <float_array id="GeometrySource1-array" count="366">-0.101821 -0.986878 0.125318 0.650605 -0.744669 -0.148934 0.330709 -0.92126 0.204724 0.203373 -0.954291 -0.219018 -0.44665 -0.854121 0.266423 -0.314309 -0.942925 -0.110008 -0.742505 -0.445503 -0.500214 -0.062542 -0.648873 0.758322 -0.558415 -0.432575 0.70785 0.897638 -0.417323 0.141732 0.689502 -0.618985 -0.376092 0.942751 -0.322107 -0.086418 0.893547 -0.321364 -0.313525 -0.944531 -0.228262 -0.236133 0.06273 -0.705714 0.705714 -0.807899 0.101968 0.580432 -0.195516 -0.226798 0.954116 -0.454822 -0.682232 0.572448 -0.132833 -0.961084 -0.242224 -0.645409 -0.763472 -0.023612 -0.385528 -0.37766 -0.841868 -0.70044 -0.472207 -0.535168 -0.007828 -0.164394 0.986364 0.716336 -0.283386 0.637617 0.60337 -0.736581 -0.305603 0.454054 -0.524511 0.720224 -0.988699 -0.109856 0.102009 -0.777769 0.007856 -0.628501 -0.369233 0.274961 -0.88773 -0.502336 0.047094 0.863389 0.886336 -0.290216 -0.360809 -0.392148 -0.580379 0.713709 0.125848 -0.880934 -0.456198 -0.669271 -0.724387 -0.165349 -0.783693 0.30564 -0.540748 0.737601 -0.423728 -0.525737 -0.742505 -0.132869 0.656531 0.250843 -0.086227 -0.96418 -0.251075 -0.329536 -0.910147 -0.923964 0.352359 -0.148774 -0.565093 0.164819 -0.808397 0.055014 0.424395 0.903804 -0.315029 0.937211 0.149639 0.148824 0.571798 0.806783 -0.558415 -0.432575 0.70785 -0.235195 0.948619 0.211675 -0.007828 -0.164394 0.986364 0.102028 0.981034 0.164814 0.015613 0.733815 0.679169 -0.329333 0.92527 0.18819 -0.438559 0.884949 0.156628 -0.502336 0.047094 0.863389 -0.188411 0.808596 -0.557382 -0.220009 0.958611 0.180722 -0.156551 0.939308 -0.305275 -0.157169 0.880145 -0.447931 -0.297347 0.954641 -0.015649 -0.315029 0.937211 0.149639 -0.783693 0.30564 -0.540748 -0.369233 0.274961 -0.88773 -0.988699 -0.109856 0.102009 -0.777769 0.007856 -0.628501 0.549159 0.6433 0.533469 0.897638 -0.417323 0.141732 0.942751 -0.322107 -0.086418 0.716336 -0.283386 0.637617 -0.438559 0.884949 0.156628 0.409208 0.236081 0.881371 -0.290216 0.956929 0.007843 0.015687 0.996147 0.08628 0.454054 -0.524511 0.720224 -0.315029 0.937211 0.149639 0.06273 -0.705714 0.705714 -0.062768 0.800302 0.596303 -0.195516 -0.226798 0.954116 -0.226888 0.891905 -0.391187 -0.624848 0.26556 -0.734196 -0.558415 -0.432575 0.70785 -0.807899 0.101968 0.580432 -0.524768 0.830231 -0.187977 -0.742505 -0.445503 -0.500214 -0.944531 -0.228262 -0.236133 0.039243 0.722085 -0.69069 -0.565093 0.164819 -0.808397 -0.196698 0.967754 -0.157358 -0.251075 -0.329536 -0.910147 0.133036 0.923426 0.35998 0.250843 -0.086227 -0.96418 -0.195875 0.948036 0.25072 0.472661 0.653847 -0.590826 -0.923964 0.352359 -0.148774 -0.196534 0.267286 0.943362 -0.266833 0.769107 0.580754 0.737601 -0.423728 -0.525737 -0.297347 0.954641 -0.015649 -0.315029 0.937211 0.149639 -0.742505 -0.132869 0.656531 0.886336 -0.290216 -0.360809 -0.777769 0.007856 -0.628501 -0.392148 -0.580379 0.713709 0.793678 -0.534357 -0.290753 0.601838 0.79724 0.046896 0.902106 -0.431442 0.007844 0.783693 -0.30564 -0.540748 0.942751 -0.322107 -0.086418 0.886336 -0.290216 -0.360809 0.893547 -0.321364 -0.313525 0.179847 0.586457 0.789762 0.141282 0.879087 -0.455242 -0.438559 0.884949 0.156628 -0.315029 0.937211 0.149639 0.601838 0.79724 0.046896 0.179847 0.586457 0.789762 0.902106 -0.431442 0.007844 -0.744898 0.6116 0.266595 0.141282 0.879087 -0.455242 0.783693 -0.30564 -0.540748 -0.315029 0.937211 0.149639 -0.744898 0.6116 0.266595 -0.329333 0.92527 0.18819 -0.438559 0.884949 0.156628 0.179847 0.586457 0.789762</float_array>
          <technique_common>
            <accessor source="#GeometrySource1-array" count="122" stride="3">
              <param name="X" type="float"/>
              <param name="Y" type="float"/>
              <param name="Z" type="float"/>
            </accessor>
          </technique_common>
        </source>
        <source id="GeometrySource2" name="_0_0UV">
          <float_array id="GeometrySource2-array" count="244">0.511312 0.765671 0.477086 0.788832 0.394287 0.788833 0.646797 0.747671 0.381434 0.724085 0.646797 0.636208 0.461753 0.750347 0.561362 0.636208 0.510815 0.636208 0.415216 0.8669 0.646797 0.788832 0.508678 0.8669 0.646797 0.8669 0.400372 0.636208 0.315098 0.788832 0.357226 0.636208 0.315098 0.636208 0.601422 0.548092 0.773089 0.760781 0.646797 0.548092 0.717941 0.636208 0.68647 0.547034 0.556149 0.545744 0.315098 0.8669 0.807326 0.788832 0.315098 0.828376 0.633132 0.389699 0.765024 0.636208 0.726101 0.547034 0.608865 0.444596 0.804592 0.8669 0.816588 0.756433 0.926029 0.788832 0.903957 0.748477 0.67379 0.447379 0.967258 0.8669 0.858403 0.64927 0.995341 0.8669 0.995341 0.788832 0.929503 0.64927 0.995341 0.64927 0.244104 0.342616 0.269897 0.696457 0.212067 0.696457 0.269897 0.342616 0.147416 0.696457 0.269897 0.161873 0.147416 0.34273 0.218258 0.078611 0.147416 0.998546 0.269897 0.998546 0.218258 0.0006 0.050507 0.34273 0.154534 0.078611 0.076776 0.078611 0.070722 0.696457 0.009468 0.696457 0.009468 0.998546 0.076776 0.0006 0.009468 0.161873 0.147416 0.0006 0.009468 0.34273 0.881534 0.461007 0.945908 0.514972 0.83876 0.615956 0.997954 0.325408 0.799293 0.62179 0.881534 0.166935 0.810476 0.457681 0.810476 0.166935 0.997954 0.247207 0.694303 0.386195 0.997954 0.166935 0.859327 0.078611 0.88495 0.0006 0.752108 0.166935 0.71066 0.166935 0.647965 0.301493 0.810476 0.0006 0.762169 0.078611 0.647965 0.166935 0.73674 0.0006 0.386842 0.166935 0.40051 0.005825 0.442878 0.071484 0.296021 0.166935 0.488119 0.166935 0.296021 0.364341 0.488119 0.458891 0.398353 0.504806 0.499522 0.005825 0.613331 0.166935 0.561667 0.071484 0.352379 0.509437 0.547839 0.459124 0.46722 0.64675 0.589818 0.005825 0.457175 0.647131 0.647965 0.301493 0.647965 0.166935 0.77781 0.929825 0.77781 0.998546 0.672456 0.998546 0.882205 0.998546 0.672456 0.875538 0.882205 0.875538 0.77781 0.875538 0.564 0.998546 0.995341 0.998546 0.564 0.875538 0.995341 0.875538 0.359105 0.875538 0.315098 0.998546 0.315098 0.875538 0.359105 0.998546 0.406955 0.998546 0.406955 0.875538 0.406955 0.875538 0.488954 0.998546 0.488954 0.875538 0.563759 0.875538 0.563759 0.998546</float_array>
          <technique_common>
            <accessor source="#GeometrySource2-array" count="122" stride="2">
              <param name="S" type="float"/>
              <param name="T" type="float"/>
            </accessor>
          </technique_common>
        </source>
        <vertices id="Geometry-vertices">
          <input semantic="POSITION" source="#GeometrySource"/>
          <input semantic="NORMAL" source="#GeometrySource1"/>
          <input semantic="TEXCOORD" source="#GeometrySource2"/>
        </vertices>
        <triangles material="VisualMaterial0" count="150">
          <input semantic="VERTEX" source="#Geometry-vertices" offset="0"/>
          <p>0 1 2 0 3 1 0 2 4 0 5 3 0 4 6 0 7 5 0 8 7 0 6 8 1 9 2 1 3 10 1 11 9 1 12 11 1 10 12 4 13 6 4 2 14 4 15 13 4 14 16 4 16 15 5 7 17 5 18 3 5 17 19 5 20 18 5 21 20 5 19 21 7 22 17 8 22 7 9 23 2 10 3 24 3 18 24 10 24 12 25 2 23 14 2 25 19 17 26 19 26 21 20 27 18 20 21 28 20 28 27 17 29 26 22 29 17 12 24 30 18 27 31 18 32 24 18 33 32 18 31 33 21 34 28 21 26 34 24 32 35 30 24 35 31 36 33 32 37 35 32 38 37 32 33 38 36 39 33 38 33 40 40 33 39 41 42 43 41 44 42 41 43 45 41 46 44 41 45 47 41 48 46 41 47 48 43 49 45 42 49 43 42 50 49 46 48 51 47 45 52 48 53 51 47 53 48 47 54 53 47 52 54 49 55 45 55 52 45 55 56 52 49 56 55 49 57 56 54 58 53 54 59 58 54 52 59 60 53 58 51 53 60 56 61 52 52 61 59 62 63 64 62 65 63 62 64 66 62 67 65 62 66 68 62 68 69 62 69 67 65 67 70 66 71 68 68 71 69 67 72 70 67 69 73 67 73 74 67 74 72 71 75 69 71 76 75 71 77 76 73 78 74 73 69 79 73 79 78 75 76 79 75 79 69 77 80 76 81 76 80 81 79 76 78 79 81 82 83 84 82 85 83 82 84 86 82 87 85 82 86 88 82 88 89 82 89 87 83 90 84 86 91 88 86 92 91 84 90 92 86 84 92 87 89 93 88 91 94 88 94 95 88 95 89 92 96 91 90 96 92 97 89 95 93 89 97 94 91 98 96 99 91 91 99 98 100 101 102 100 103 101 100 102 104 100 105 103 100 104 106 100 106 105 102 107 104 103 105 108 107 109 104 105 110 108 111 112 113 111 114 112 111 115 114 111 116 115 115 117 118 117 119 118 119 120 118 120 121 118</p>
        </triangles>
      </mesh>
    </geometry>
  </library_geometries>
  <library_visual_scenes>
    <visual_scene id="VisualSceneNode" name="rdmscene">
      <node id="VisualSceneNode1" name="_0_0" type="NODE">
        <matrix>1 0 0 0 0 1 0 0 0 0 1 0 0 0 0 1</matrix>
        <instance_geometry url="#Geometry">
          <bind_material>
            <technique_common>
              <instance_material symbol="VisualMaterial0" target="#VisualMaterial"/>
            </technique_common>
          </bind_material>
        </instance_geometry>
      </node>
    </visual_scene>
  </library_visual_scenes>
  <scene>
    <instance_visual_scene url="#VisualSceneNode"/>
  </scene>
</COLLADA>
