<?xml version="1.0" encoding="utf-8"?>
<COLLADA xmlns="http://www.collada.org/2005/11/COLLADASchema" version="1.4.1">
  <asset>
    <created>2025-10-31T00:48:08Z</created>
    <modified>2025-10-31T00:48:08Z</modified>
  </asset>
  <library_images>
    <image id="Image">
      <init_from>./PDT_colorPalette.png</init_from>
    </image>
  </library_images>
  <library_materials>
    <material id="VisualMaterial" name="PDT_SATIN">
      <instance_effect url="#Effect"/>
      <extra>
        <technique profile="FCOLLADA">
          <user_properties>PDT_SATIN</user_properties>
        </technique>
      </extra>
    </material>
  </library_materials>
  <library_effects>
    <effect id="Effect" name="PDT_colorPalette_png">
      <profile_COMMON>
        <newparam sid="Image-surface">
          <surface type="2D">
            <init_from>Image</init_from>
            <format>A8R8G8B8</format>
          </surface>
        </newparam>
        <newparam sid="Image-sampler">
          <sampler2D>
            <source>Image-surface</source>
            <wrap_s>WRAP</wrap_s>
            <wrap_t>WRAP</wrap_t>
            <minfilter>NONE</minfilter>
            <magfilter>NONE</magfilter>
            <mipfilter>NONE</mipfilter>
          </sampler2D>
        </newparam>
        <technique sid="common">
          <phong>
            <emission>
              <color>0 0 0 1</color>
            </emission>
            <ambient>
              <color>0 0 0 1</color>
            </ambient>
            <diffuse>
              <texture texture="Image-sampler" texcoord=""/>
            </diffuse>
            <specular>
              <color>1 1 1 1</color>
            </specular>
            <shininess>
              <float>0</float>
            </shininess>
            <transparent opaque="A_ONE">
              <color>0 0 0 1</color>
            </transparent>
            <transparency>
              <float>1</float>
            </transparency>
            <index_of_refraction>
              <float>1.55</float>
            </index_of_refraction>
          </phong>
          <extra>
            <technique profile="FCOLLADA">
              <spec_level>
                <float>0</float>
              </spec_level>
            </technique>
          </extra>
        </technique>
      </profile_COMMON>
      <extra>
        <technique profile="FCOLLADA">
          <user_properties>PDT_colorPalette.png</user_properties>
        </technique>
      </extra>
    </effect>
  </library_effects>
  <library_geometries>
    <geometry id="Geometry" name="Mesh">
      <mesh>
        <source id="GeometrySource" name="MeshPos">
          <float_array id="GeometrySource-array" count="1260">0.176857 0.244317 -0.204495 0.090246 0.244317 -0.214738 0.071772 0.369899 -0.189161 0 0.244317 -0.217492 0.140654 0.369899 -0.180137 0.256196 0.244317 -0.184775 0.203752 0.369899 -0.162766 0.312973 0.244317 -0.146391 0 0.369899 -0.191586 0.054887 0.467063 -0.157326 0.107563 0.467063 -0.149821 -0.071772 0.369899 -0.189161 -0.090246 0.244317 -0.214738 -0.176857 0.244317 -0.204495 0.248907 0.369899 -0.128955 0.155815 0.467063 -0.135373 0.086294 0.511046 -0.122347 0.263959 0.369899 -0.07061 0.331899 0.244317 -0.080158 0.331899 0.244317 0 -0.054887 0.467063 -0.157326 -0.140654 0.369899 -0.180137 0 0.467063 -0.159343 0.044034 0.511046 -0.128476 0 0.511046 -0.130123 0.040453 0.558449 -0.078889 -0.203752 0.369899 -0.162766 -0.256196 0.244317 -0.184775 -0.312973 0.244317 -0.146391 -0.248907 0.369899 -0.128955 -0.331899 0.244317 -0.080158 -0.155815 0.467063 -0.135373 -0.107563 0.467063 -0.149821 -0.044034 0.511046 -0.128476 0.125006 0.511046 -0.110549 -0.086294 0.511046 -0.122347 0 0.558449 -0.081852 -0.040453 0.558449 -0.078889 -0.125006 0.511046 -0.110549 -0.190347 0.467063 -0.107252 0.190347 0.467063 -0.107252 -0.263959 0.369899 -0.07061 0.201857 0.467063 -0.058727 -0.263959 0.369899 0 -0.331899 0.244317 0 -0.331899 0.244317 0.080158 0.263959 0.369899 0 0.263959 0.369899 0.07061 0.331899 0.244317 0.080158 0.312973 0.244317 0.146391 0.248907 0.369899 0.128955 0.256196 0.244317 0.184775 0.201857 0.467063 0.058727 0.201857 0.467063 0 -0.201857 0.467063 0 -0.263959 0.369899 0.07061 -0.201857 0.467063 -0.058727 -0.152709 0.511046 -0.087584 -0.161944 0.511046 -0.047957 -0.086201 0.558449 -0.062316 -0.248907 0.369899 0.128955 -0.312973 0.244317 0.146391 -0.256196 0.244317 0.184775 -0.201857 0.467063 0.058727 -0.161944 0.511046 0 -0.190347 0.467063 0.107252 -0.203752 0.369899 0.162766 -0.100533 0.558449 -0.030167 -0.161944 0.511046 0.047957 -0.100533 0.558449 0 -0.045467 0.581369 -0.024864 -0.019692 0.583079 -0.028551 -0.042619 0.583079 0 -0.100533 0.558449 0.030167 -0.152709 0.511046 0.087584 0 0.583079 -0.029624 -0.017836 0.585001 0 -0.086201 0.558449 0.062316 -0.045468 0.581369 0.024864 -0.155815 0.467063 0.135373 -0.125006 0.511046 0.110549 -0.086201 0.558449 0.062316 -0.107563 0.467063 0.149821 -0.086294 0.511046 0.122347 -0.040453 0.558449 0.078889 -0.019692 0.583079 0.028551 0 0.585001 0 -0.140654 0.369899 0.180137 -0.176857 0.244317 0.204495 -0.090246 0.244317 0.214738 -0.071772 0.369899 0.189161 -0.054887 0.467063 0.157326 0 0.369899 0.191586 0 0.244317 0.217492 0.090246 0.244317 0.214738 -0.044034 0.511046 0.128476 0 0.467063 0.159343 0.071772 0.369899 0.189161 0 0.511046 0.130123 0.140654 0.369899 0.180137 0.176857 0.244317 0.204495 0.054887 0.467063 0.157326 0 0.558449 0.081852 0.203752 0.369899 0.162766 0.107563 0.467063 0.149821 0.044034 0.511046 0.128476 0 0.583079 0.029624 0.190347 0.467063 0.107252 0.155815 0.467063 0.135373 0.086294 0.511046 0.122347 0.040453 0.558449 0.078889 0.125006 0.511046 0.110549 0.019692 0.583079 0.028551 0.152709 0.511046 0.087584 0.086201 0.558449 0.062316 0.045467 0.581369 0.024864 0.161944 0.511046 0.047957 0.086201 0.558449 0.062316 0.017836 0.585001 0 0.100533 0.558449 0.030167 0.161944 0.511046 0 0.042619 0.583079 0 0.019692 0.583079 -0.028551 0.100533 0.558449 0 0.161944 0.511046 -0.047957 0.086201 0.558449 -0.062316 0.152709 0.511046 -0.087584 0.100533 0.558449 -0.030167 0.045468 0.581369 -0.024864 0.147281 -0.570156 0.073693 0.171768 -0.570156 0.035674 0.224749 -0.55173 0.108282 0.083931 -0.581496 0.035169 0.262115 -0.55173 0.052419 0.347879 -0.509872 0.141934 0.075939 -0.583144 0 0.171768 -0.570156 0 0.368914 -0.509872 0.077717 0.262115 -0.55173 0 0.083931 -0.581496 -0.035169 0.171768 -0.570156 -0.035674 0.262115 -0.55173 -0.052418 0.368914 -0.509872 0 0.147281 -0.570156 -0.073693 0.034822 -0.583144 -0.040166 0.029923 -0.585001 0 0.069117 -0.570156 -0.093291 0.224749 -0.55173 -0.108282 0.368914 -0.509872 -0.077717 0.105472 -0.55173 -0.137078 0.444493 -0.454374 0.095139 0.444493 -0.454374 0 0.419146 -0.454374 0.173752 0 -0.583144 -0.041675 0 -0.585001 0 0 -0.570156 -0.096795 0 -0.583144 0.041675 -0.029923 -0.585001 0 -0.034822 -0.583144 -0.040166 0.034822 -0.583144 0.040166 0.069117 -0.570156 0.093291 0.147281 -0.570156 0.073693 0 -0.570156 0.096795 0.105472 -0.55173 0.137078 0.224749 -0.55173 0.108282 0 -0.55173 0.142227 -0.034822 -0.583144 0.040166 -0.069117 -0.570156 0.093291 -0.075939 -0.583144 0 -0.105472 -0.55173 0.137078 -0.147281 -0.570156 0.073693 -0.083931 -0.581496 0.035169 -0.224749 -0.55173 0.108282 -0.284769 -0.509872 0.179147 -0.347879 -0.509872 0.141934 -0.100311 -0.509872 0.208199 0 -0.509872 0.210869 -0.196581 -0.509872 0.198267 -0.343108 -0.454374 0.219309 -0.236855 -0.454374 0.242715 -0.419146 -0.454374 0.173752 -0.120862 -0.454374 0.254874 0.100311 -0.509872 0.2082 0 -0.454374 0.258141 0.196581 -0.509872 0.198267 0.120862 -0.454374 0.254874 0.284769 -0.509872 0.179148 0.236855 -0.454374 0.242715 0.343108 -0.454374 0.219309 -0.366888 -0.407528 0.231806 -0.253271 -0.407528 0.256546 -0.129239 -0.407528 0.269397 0 -0.407528 0.272851 0.129239 -0.407528 0.269397 0.253271 -0.407528 0.256546 0.366888 -0.407528 0.231806 -0.448194 -0.407528 0.183653 0.448194 -0.407528 0.183653 0.475299 -0.407528 0.100561 0 -0.321527 0.279048 0.135387 -0.321527 0.275515 0.26532 -0.321527 0.262371 0.384343 -0.321527 0.23707 0.469518 -0.321527 0.187823 -0.135387 -0.321527 0.275515 -0.26532 -0.321527 0.262371 -0.384343 -0.321527 0.237069 -0.469518 -0.321527 0.187823 0.267486 -0.226475 0.258769 0.387481 -0.226475 0.233815 0.136493 -0.226475 0.271733 0 -0.226475 0.275216 -0.136493 -0.226475 0.271733 -0.267486 -0.226475 0.258769 -0.387481 -0.226475 0.233815 -0.473353 -0.226475 0.185245 0.133884 -0.156898 0.265905 0.262372 -0.156898 0.253221 0 -0.156898 0.269314 -0.133884 -0.156898 0.265905 -0.262372 -0.156898 0.253221 -0.380075 -0.156898 0.228802 -0.464306 -0.156898 0.181273 -0.492383 -0.156898 0.099258 0.380075 -0.156898 0.228802 -0.501979 -0.226475 0.101433 -0.492383 -0.156898 0 0.473353 -0.226475 0.185245 0.464306 -0.156898 0.181273 -0.497911 -0.321527 0.102845 -0.501979 -0.226475 0 -0.492383 -0.156898 -0.099258 0.497911 -0.321527 0.102845 0.501979 -0.226475 0.101433 0.492383 -0.156898 0.099258 -0.475299 -0.407528 0.100561 -0.497911 -0.321527 0 -0.501979 -0.226475 -0.101433 -0.464306 -0.156898 -0.181273 0.475299 -0.407528 0 0.501979 -0.226475 0 0.492383 -0.156898 0 0.497911 -0.321527 0 -0.473353 -0.226475 -0.185245 -0.380075 -0.156898 -0.228802 -0.497911 -0.321527 -0.102845 0.444493 -0.454374 -0.095139 0.501979 -0.226475 -0.101433 0.492383 -0.156898 -0.099258 0.497911 -0.321527 -0.102845 0.475299 -0.407528 -0.100561 0.347879 -0.509872 -0.141934 0.473353 -0.226475 -0.185245 0.464306 -0.156898 -0.181273 0.380075 -0.156898 -0.228802 0.469518 -0.321527 -0.187823 0.387481 -0.226475 -0.233815 0.262372 -0.156898 -0.253221 0.419146 -0.454374 -0.173752 0.448194 -0.407528 -0.183653 0.384343 -0.321527 -0.237069 0.267486 -0.226475 -0.258769 0.366888 -0.407528 -0.231806 0.343108 -0.454374 -0.219309 0.26532 -0.321527 -0.262371 0.136493 -0.226475 -0.271733 0.133884 -0.156898 -0.265905 0.284769 -0.509872 -0.179147 0.253271 -0.407528 -0.256546 0.135387 -0.321527 -0.275515 0 -0.226475 -0.275216 0 -0.156898 -0.269314 0.196581 -0.509872 -0.198267 0.236855 -0.454374 -0.242715 0.129239 -0.407528 -0.269397 0 -0.321527 -0.279048 -0.136493 -0.226475 -0.271733 -0.133884 -0.156898 -0.265905 0.100311 -0.509872 -0.208199 0.120862 -0.454374 -0.254874 0 -0.407528 -0.272851 -0.135387 -0.321527 -0.275515 -0.267486 -0.226475 -0.258769 -0.262372 -0.156898 -0.253221 0 -0.55173 -0.142227 0 -0.509872 -0.210869 0 -0.454374 -0.258141 -0.129239 -0.407528 -0.269397 -0.26532 -0.321527 -0.262371 -0.387481 -0.226475 -0.233815 -0.120862 -0.454374 -0.254874 -0.100311 -0.509872 -0.2082 -0.253271 -0.407528 -0.256546 -0.384343 -0.321527 -0.23707 -0.469518 -0.321527 -0.187823 -0.105472 -0.55173 -0.137078 -0.196581 -0.509872 -0.198267 -0.236855 -0.454374 -0.242715 -0.366888 -0.407528 -0.231806 -0.448198 -0.407528 -0.183653 -0.475299 -0.407528 -0.100561 -0.343108 -0.454374 -0.219309 -0.284769 -0.509872 -0.179148 -0.419146 -0.454374 -0.173752 -0.224749 -0.55173 -0.108282 -0.347879 -0.509872 -0.141934 -0.444493 -0.454374 -0.095139 -0.475299 -0.407528 0 -0.368914 -0.509872 -0.077717 -0.444493 -0.454374 0 -0.444493 -0.454374 0.095139 -0.368914 -0.509872 0.077717 -0.224749 -0.55173 0.108282 -0.368914 -0.509872 0 -0.262115 -0.55173 0.052418 -0.147281 -0.570156 0.073693 -0.262115 -0.55173 -0.052419 -0.262115 -0.55173 0 -0.171768 -0.570156 0.035674 -0.171768 -0.570156 0 -0.171768 -0.570156 -0.035674 -0.147281 -0.570156 -0.073693 -0.083931 -0.581496 -0.035169 -0.069117 -0.570156 -0.093291 0.262372 -0.156898 -0.253221 0.242558 -0.035095 -0.243071 0.380075 -0.156898 -0.228802 0.133884 -0.156898 -0.265905 0.351369 -0.035095 -0.21963 0.464306 -0.156898 -0.181273 0.123772 -0.035095 -0.255247 0 -0.156898 -0.269314 0.20765 0.120356 -0.224664 0 -0.035095 -0.258519 -0.133884 -0.156898 -0.265905 0.10596 0.120356 -0.235918 -0.123772 -0.035095 -0.255247 -0.262372 -0.156898 -0.253221 0 0.120356 -0.238942 -0.242558 -0.035095 -0.243071 -0.380075 -0.156898 -0.228802 -0.10596 0.120356 -0.235918 -0.351369 -0.035095 -0.21963 -0.464306 -0.156898 -0.181273 -0.20765 0.120356 -0.224664 -0.429236 -0.035095 -0.174006 -0.492383 -0.156898 -0.099258 -0.300804 0.120356 -0.202998 -0.455194 -0.035095 -0.095279 -0.492383 -0.156898 0 -0.367465 0.120356 -0.16083 -0.455194 -0.035095 0 -0.492383 -0.156898 0.099258 -0.389688 0.120356 -0.088064 -0.455194 -0.035095 0.095278 -0.464306 -0.156898 0.181273 -0.389688 0.120356 0 -0.429236 -0.035095 0.174006 -0.380075 -0.156898 0.228802 -0.389688 0.120356 0.088064 -0.351369 -0.035095 0.21963 -0.262372 -0.156898 0.253221 -0.367465 0.120356 0.16083 -0.242558 -0.035095 0.243071 -0.133884 -0.156898 0.265905 -0.300804 0.120356 0.202998 -0.123772 -0.035095 0.255247 0 -0.156898 0.269314 -0.20765 0.120356 0.224664 0 -0.035095 0.258519 0.133884 -0.156898 0.265905 -0.10596 0.120356 0.235918 0.123772 -0.035095 0.255247 0.262372 -0.156898 0.253221 0 0.120356 0.238942 0.242558 -0.035095 0.243071 0.380075 -0.156898 0.228802 0.10596 0.120356 0.235918 0.351369 -0.035095 0.21963 0.464306 -0.156898 0.181273 0.20765 0.120356 0.224664 0.429236 -0.035095 0.174006 0.492383 -0.156898 0.099258 0.300804 0.120356 0.202998 0.455194 -0.035095 0.095279 0.492383 -0.156898 0 0.367465 0.120356 0.16083 0.455194 -0.035095 0 0.492383 -0.156898 -0.099258 0.389688 0.120356 0.088064 0.455194 -0.035095 -0.095278 0.389688 0.120356 0 0.429236 -0.035095 -0.174006 0.389688 0.120356 -0.088064 0.300804 0.120356 -0.202998 0.367465 0.120356 -0.16083 0.176857 0.244317 -0.204495 0.256196 0.244317 -0.184775 0.090246 0.244317 -0.214738 0.312973 0.244317 -0.146391 0.331899 0.244317 -0.080158 0 0.244317 -0.217492 0.331899 0.244317 0 -0.090246 0.244317 -0.214738 0.331899 0.244317 0.080158 -0.176857 0.244317 -0.204495 0.312973 0.244317 0.146391 -0.256196 0.244317 -0.184775 0.256196 0.244317 0.184775 -0.312973 0.244317 -0.146391 0.176857 0.244317 0.204495 -0.331899 0.244317 -0.080158 0.090246 0.244317 0.214738 -0.331899 0.244317 0 0 0.244317 0.217492 -0.331899 0.244317 0.080158 -0.090246 0.244317 0.214738 -0.312973 0.244317 0.146391 -0.176857 0.244317 0.204495 -0.256196 0.244317 0.184775</float_array>
          <technique_common>
            <accessor source="#GeometrySource-array" count="420" stride="3">
              <param name="X" type="float"/>
              <param name="Y" type="float"/>
              <param name="Z" type="float"/>
            </accessor>
          </technique_common>
        </source>
        <source id="GeometrySource1" name="MeshNrm">
          <float_array id="GeometrySource1-array" count="1260">0.173951 0.217705 -0.960388 0.072165 0.192761 -0.978588 0.076309 0.254166 -0.964145 0 0.185735 -0.9826 0.182873 0.281492 -0.941977 0.376468 0.287567 -0.880669 0.387031 0.354763 -0.851087 0.737494 0.412196 -0.534974 0 0.246443 -0.969157 0.076852 0.392736 -0.916434 0.182918 0.417584 -0.890036 -0.076308 0.254166 -0.964145 -0.072165 0.192761 -0.978588 -0.173951 0.217705 -0.960388 0.726991 0.474584 -0.496241 0.378691 0.481336 -0.790511 0.175781 0.674772 -0.716787 0.858041 0.503157 -0.102951 0.886243 0.448846 -0.114506 0.893786 0.448493 0 -0.076852 0.392736 -0.916434 -0.182872 0.281492 -0.941977 0 0.385807 -0.92258 0.064876 0.634611 -0.770103 0 0.642758 -0.766069 0.107311 0.813165 -0.572055 -0.387031 0.354763 -0.851088 -0.376468 0.287567 -0.880669 -0.737494 0.412196 -0.534975 -0.72699 0.474584 -0.496241 -0.886243 0.448846 -0.114506 -0.378691 0.481336 -0.790512 -0.182918 0.417584 -0.890036 -0.064876 0.634611 -0.770103 0.308421 0.700717 -0.643329 -0.175781 0.674772 -0.716787 0 0.794675 -0.607035 -0.107311 0.813165 -0.572055 -0.308421 0.700718 -0.643328 -0.690033 0.573044 -0.442126 0.690033 0.573044 -0.442126 -0.858041 0.503157 -0.102951 0.807572 0.582952 -0.089412 -0.864973 0.501818 0 -0.893786 0.448493 0 -0.886243 0.448846 0.114506 0.864973 0.501818 0 0.858041 0.503157 0.102951 0.886242 0.448846 0.114506 0.737494 0.412196 0.534975 0.72699 0.474584 0.496241 0.376468 0.287566 0.880669 0.807572 0.582952 0.089412 0.814581 0.580049 0 -0.814581 0.580049 0 -0.858041 0.503157 0.102951 -0.807572 0.582952 -0.089412 -0.575436 0.748975 -0.328497 -0.660037 0.746301 -0.085943 -0.333929 0.848925 -0.409656 -0.726991 0.474584 0.496241 -0.737494 0.412196 0.534974 -0.376468 0.287566 0.880669 -0.807572 0.582952 0.089412 -0.679878 0.733325 0 -0.690033 0.573044 0.442126 -0.387031 0.354763 0.851088 -0.532186 0.84268 -0.081658 -0.660037 0.746301 0.085943 -0.535392 0.844604 0 -0.230193 0.947262 -0.222948 -0.069574 0.939747 -0.334715 -0.290431 0.956896 0.000000 -0.532186 0.84268 0.081659 -0.575436 0.748975 0.328497 0 0.936861 -0.349701 -0.041519 0.999138 0.000000 -0.33393 0.848924 0.409657 -0.230193 0.947262 0.222948 -0.378691 0.481336 0.790511 -0.308421 0.700717 0.643329 -0.33393 0.848924 0.409657 -0.182918 0.417584 0.890036 -0.175781 0.674772 0.716787 -0.107311 0.813165 0.572055 -0.069574 0.939748 0.334715 0 1 0 -0.182873 0.281492 0.941977 -0.173951 0.217705 0.960388 -0.072165 0.192761 0.978588 -0.076309 0.254166 0.964145 -0.076852 0.392736 0.916434 0 0.246443 0.969157 0 0.185735 0.9826 0.072165 0.192761 0.978588 -0.064876 0.634611 0.770103 0 0.385806 0.92258 0.076308 0.254166 0.964145 0 0.642758 0.766069 0.182872 0.281492 0.941977 0.173951 0.217705 0.960388 0.076852 0.392736 0.916434 0 0.794675 0.607036 0.387031 0.354763 0.851088 0.182918 0.417584 0.890036 0.064876 0.634611 0.770104 0 0.936861 0.349701 0.690033 0.573044 0.442126 0.378691 0.481336 0.790511 0.175781 0.674771 0.716788 0.107311 0.813165 0.572055 0.308421 0.700717 0.643329 0.069574 0.939747 0.334715 0.575436 0.748975 0.328497 0.333929 0.848924 0.409657 0.230193 0.947262 0.222948 0.660037 0.746301 0.085943 0.333929 0.848924 0.409657 0.041519 0.999138 0.000000 0.532186 0.84268 0.081658 0.679878 0.733325 0 0.290431 0.956896 0.000000 0.069574 0.939747 -0.334715 0.535392 0.844604 0 0.660037 0.746301 -0.085943 0.333929 0.848924 -0.409656 0.575436 0.748975 -0.328497 0.532186 0.84268 -0.081658 0.230193 0.947262 -0.222948 0.108521 -0.966143 0.234074 0.171213 -0.983674 0.055416 0.170699 -0.937559 0.303059 0.079788 -0.990484 0.112138 0.293638 -0.953006 0.074548 0.387846 -0.864655 0.319291 0.092172 -0.995743 0.000000 0.169306 -0.985564 0.000000 0.468368 -0.879673 0.082497 0.307789 -0.951455 0 0.079788 -0.990484 -0.112138 0.171213 -0.983674 -0.055416 0.293638 -0.953006 -0.074547 0.487155 -0.873316 0 0.108521 -0.966143 -0.234075 0.026079 -0.986351 -0.162579 0.021441 -0.99977 0 0.042023 -0.952695 -0.301008 0.170699 -0.937559 -0.30306 0.468368 -0.879673 -0.082497 0.057726 -0.898989 -0.434151 0.694741 -0.711736 0.10377 0.700877 -0.713282 0 0.56556 -0.683766 0.461092 0 -0.98453 -0.175217 0 -1 0 0 -0.947663 -0.319274 0 -0.98453 0.175217 -0.021441 -0.99977 0 -0.026079 -0.986351 -0.162579 0.026079 -0.986351 0.162579 0.042023 -0.952695 0.301008 0.108521 -0.966143 0.234074 0 -0.947663 0.319274 0.057725 -0.898989 0.434151 0.170699 -0.937559 0.303059 0 -0.882526 0.470263 -0.026079 -0.986351 0.162579 -0.042023 -0.952695 0.301008 -0.092172 -0.995743 0.000000 -0.057725 -0.898989 0.434151 -0.108521 -0.966143 0.234074 -0.079788 -0.990484 0.112138 -0.170699 -0.937559 0.303059 -0.189874 -0.799875 0.56934 -0.387846 -0.864655 0.31929 -0.03837 -0.751019 0.659165 0 -0.763638 0.645645 -0.103301 -0.790058 0.604266 -0.28994 -0.588868 0.754433 -0.135257 -0.531551 0.836158 -0.56556 -0.683766 0.461092 -0.056466 -0.51136 0.85751 0.03837 -0.751019 0.659165 0 -0.506194 0.86242 0.103301 -0.790058 0.604266 0.056466 -0.51136 0.85751 0.189873 -0.799875 0.56934 0.135256 -0.531551 0.836158 0.28994 -0.588868 0.754433 -0.3402 -0.221749 0.913833 -0.153339 -0.173533 0.972817 -0.063248 -0.157038 0.985565 0 -0.152581 0.988291 0.063248 -0.157038 0.985565 0.153338 -0.173533 0.972817 0.3402 -0.221749 0.913833 -0.726574 -0.321777 0.607082 0.726574 -0.321777 0.607083 0.920233 -0.366278 0.137885 0 -0.012735 0.999919 0.063277 -0.01523 0.99788 0.154074 -0.024207 0.987763 0.347553 -0.049838 0.936335 0.763208 -0.107695 0.637115 -0.063277 -0.01523 0.99788 -0.154075 -0.024207 0.987763 -0.347553 -0.049838 0.936335 -0.763208 -0.107695 0.637115 0.151395 0.05699 0.986829 0.342741 0.055053 0.937816 0.06213 0.058274 0.996365 0 0.058672 0.998277 -0.062131 0.058273 0.996365 -0.151395 0.05699 0.986829 -0.342741 0.055053 0.937816 -0.7638 0.048853 0.643602 0.062554 0.090165 0.99396 0.152338 0.101057 0.983148 0 0.087168 0.996194 -0.062554 0.090165 0.99396 -0.152338 0.101057 0.983148 -0.3445 0.134599 0.929087 -0.75293 0.20709 0.624668 -0.96085 0.23568 0.14568 0.3445 0.134599 0.929087 -0.987906 0.0361 0.150794 -0.971666 0.236359 0 0.7638 0.048852 0.643602 0.75293 0.20709 0.624668 -0.978747 -0.141489 0.148441 -0.999462 0.032789 0 -0.96085 0.23568 -0.145681 0.978747 -0.141489 0.148441 0.987906 0.0361 0.150794 0.96085 0.23568 0.145681 -0.920233 -0.366278 0.137885 -0.98935 -0.145556 0 -0.987906 0.0361 -0.150794 -0.75293 0.20709 -0.624668 0.928909 -0.370307 0 0.999462 0.032789 0 0.971666 0.236359 0 0.98935 -0.145556 0 -0.7638 0.048852 -0.643602 -0.3445 0.134599 -0.929087 -0.978747 -0.141489 -0.148441 0.694741 -0.711735 -0.10377 0.987906 0.0361 -0.150794 0.96085 0.23568 -0.14568 0.978747 -0.141489 -0.148441 0.920233 -0.366278 -0.137885 0.387846 -0.864655 -0.319291 0.7638 0.048852 -0.643602 0.75293 0.20709 -0.624668 0.3445 0.134599 -0.929087 0.763208 -0.107696 -0.637115 0.342741 0.055053 -0.937816 0.152338 0.101057 -0.983148 0.56556 -0.683766 -0.461092 0.726574 -0.321777 -0.607082 0.347553 -0.049838 -0.936335 0.151395 0.05699 -0.986829 0.3402 -0.221749 -0.913833 0.28994 -0.588868 -0.754433 0.154075 -0.024207 -0.987763 0.062131 0.058274 -0.996365 0.062554 0.090165 -0.99396 0.189873 -0.799875 -0.56934 0.153339 -0.173533 -0.972817 0.063277 -0.01523 -0.99788 0 0.058672 -0.998277 0 0.087168 -0.996194 0.103301 -0.790058 -0.604266 0.135256 -0.531551 -0.836157 0.063248 -0.157038 -0.985565 0 -0.012735 -0.999919 -0.062131 0.058274 -0.996365 -0.062554 0.090165 -0.99396 0.03837 -0.751019 -0.659165 0.056466 -0.51136 -0.85751 0 -0.152581 -0.988291 -0.063277 -0.01523 -0.99788 -0.151395 0.05699 -0.986829 -0.152338 0.101057 -0.983148 0 -0.882526 -0.470263 0 -0.763638 -0.645645 0 -0.506193 -0.86242 -0.063248 -0.157038 -0.985565 -0.154074 -0.024206 -0.987763 -0.342741 0.055053 -0.937816 -0.056466 -0.51136 -0.85751 -0.03837 -0.751019 -0.659165 -0.153338 -0.173533 -0.972817 -0.347553 -0.049838 -0.936335 -0.763208 -0.107695 -0.637115 -0.057725 -0.898989 -0.434151 -0.103301 -0.790058 -0.604266 -0.135256 -0.531551 -0.836157 -0.3402 -0.221749 -0.913833 -0.726574 -0.321777 -0.607083 -0.920233 -0.366278 -0.137885 -0.28994 -0.588868 -0.754433 -0.189873 -0.799875 -0.56934 -0.56556 -0.683766 -0.461092 -0.170699 -0.937559 -0.30306 -0.387846 -0.864655 -0.31929 -0.694741 -0.711735 -0.10377 -0.928909 -0.370307 0 -0.468368 -0.879673 -0.082497 -0.700877 -0.713282 0 -0.694741 -0.711735 0.10377 -0.468368 -0.879674 0.082497 -0.170699 -0.937559 0.303059 -0.487155 -0.873316 0 -0.293637 -0.953006 0.074548 -0.108521 -0.966143 0.234074 -0.293637 -0.953006 -0.074548 -0.307789 -0.951455 0 -0.171213 -0.983674 0.055416 -0.169306 -0.985564 0.000000 -0.171213 -0.983674 -0.055416 -0.108521 -0.966143 -0.234075 -0.079788 -0.990484 -0.112138 -0.042023 -0.952695 -0.301008 0.152338 0.101057 -0.983148 0.156265 0.131637 -0.978904 0.3445 0.134599 -0.929087 0.062554 0.090165 -0.99396 0.348712 0.185046 -0.918781 0.75293 0.20709 -0.624668 0.064355 0.113493 -0.991452 0 0.087168 -0.996194 0.161442 0.171243 -0.971912 0 0.10846 -0.994101 -0.062554 0.090165 -0.99396 0.066756 0.150107 -0.986413 -0.064355 0.113493 -0.991452 -0.152338 0.101057 -0.983148 0 0.144208 -0.989547 -0.156265 0.131637 -0.978904 -0.3445 0.134599 -0.929087 -0.066756 0.150107 -0.986413 -0.348711 0.185046 -0.918781 -0.75293 0.20709 -0.624668 -0.161441 0.171244 -0.971912 -0.739989 0.29723 -0.603383 -0.96085 0.23568 -0.145681 -0.35374 0.232074 -0.906096 -0.928931 0.343995 -0.136951 -0.971666 0.236359 0 -0.731508 0.356394 -0.581274 -0.938259 0.345935 0 -0.96085 0.23568 0.14568 -0.906404 0.402754 -0.127365 -0.928931 0.343995 0.136951 -0.75293 0.20709 0.624668 -0.915208 0.402982 0 -0.739989 0.29723 0.603383 -0.3445 0.134599 0.929087 -0.906404 0.402754 0.127365 -0.348712 0.185046 0.918781 -0.152338 0.101057 0.983148 -0.731508 0.356394 0.581274 -0.156265 0.131637 0.978904 -0.062554 0.090165 0.99396 -0.35374 0.232074 0.906096 -0.064355 0.113493 0.991452 0 0.087168 0.996194 -0.161442 0.171243 0.971912 0 0.10846 0.994101 0.062554 0.090165 0.99396 -0.066756 0.150107 0.986413 0.064355 0.113493 0.991452 0.152338 0.101057 0.983148 0 0.144208 0.989547 0.156264 0.131637 0.978904 0.3445 0.134599 0.929087 0.066756 0.150107 0.986413 0.348711 0.185046 0.918781 0.75293 0.20709 0.624668 0.161441 0.171243 0.971912 0.739989 0.29723 0.603383 0.96085 0.23568 0.145681 0.35374 0.232074 0.906096 0.928931 0.343995 0.136951 0.971666 0.236359 0 0.731508 0.356394 0.581274 0.938259 0.345935 0 0.96085 0.23568 -0.14568 0.906404 0.402754 0.127365 0.928931 0.343995 -0.136951 0.915208 0.402982 0 0.739989 0.29723 -0.603383 0.906404 0.402754 -0.127365 0.35374 0.232074 -0.906096 0.731508 0.356394 -0.581274 0.173951 0.217705 -0.960388 0.376468 0.287567 -0.880669 0.072165 0.192761 -0.978588 0.737494 0.412196 -0.534974 0.886243 0.448846 -0.114506 0 0.185735 -0.9826 0.893786 0.448493 0 -0.072165 0.192761 -0.978588 0.886242 0.448846 0.114506 -0.173951 0.217705 -0.960388 0.737494 0.412196 0.534975 -0.376468 0.287567 -0.880669 0.376468 0.287566 0.880669 -0.737494 0.412196 -0.534975 0.173951 0.217705 0.960388 -0.886243 0.448846 -0.114506 0.072165 0.192761 0.978588 -0.893786 0.448493 0 0 0.185735 0.9826 -0.886243 0.448846 0.114506 -0.072165 0.192761 0.978588 -0.737494 0.412196 0.534974 -0.173951 0.217705 0.960388 -0.376468 0.287566 0.880669</float_array>
          <technique_common>
            <accessor source="#GeometrySource1-array" count="420" stride="3">
              <param name="X" type="float"/>
              <param name="Y" type="float"/>
              <param name="Z" type="float"/>
            </accessor>
          </technique_common>
        </source>
        <source id="GeometrySource2" name="MeshUV">
          <float_array id="GeometrySource2-array" count="840">0.007012 -0.013923 0.009644 -0.013923 0.009658 -0.012913 0.012276 -0.013923 0.007127 -0.012913 0.004804 -0.013923 0.004809 -0.012913 0.002597 -0.013923 0.012284 -0.012913 0.009681 -0.01101 0.007142 -0.01101 0.014885 -0.012913 0.014871 -0.013923 0.017466 -0.013923 0.00315 -0.012913 0.004816 -0.01101 0.007157 -0.010131 0.002597 -0.012913 0.002597 -0.013923 0.002597 -0.013923 0.014908 -0.01101 0.017371 -0.012913 0.01231 -0.01101 0.009705 -0.010131 0.01234 -0.010131 0.008513 -0.009089 0.019647 -0.012913 0.019643 -0.013923 0.021819 -0.013923 0.021276 -0.012913 0.021819 -0.013923 0.019654 -0.01101 0.017385 -0.01101 0.014932 -0.010131 0.004824 -0.010131 0.017401 -0.010131 0.012458 -0.009089 0.016248 -0.009089 0.019662 -0.010131 0.021278 -0.01101 0.003151 -0.01101 0.021819 -0.012913 0.002597 -0.01101 0.021819 -0.012913 0.021819 -0.013923 0.021819 -0.013923 0.002597 -0.012913 0.002597 -0.012913 0.002597 -0.013923 0.002597 -0.013923 0.002597 -0.013072 0.004804 -0.013923 0.002597 -0.01101 0.002597 -0.01101 0.021819 -0.01101 0.021819 -0.012913 0.021819 -0.01101 0.02128 -0.010131 0.021819 -0.010131 0.02049 -0.009089 0.021819 -0.013072 0.021819 -0.013923 0.019643 -0.013923 0.021819 -0.01101 0.021819 -0.010131 0.021819 -0.010948 0.019647 -0.012913 0.021819 -0.009089 0.021819 -0.010131 0.021819 -0.009089 0.020418 -0.00839 0.016372 -0.008332 0.020523 -0.008332 0.021819 -0.009089 0.021819 -0.010131 0.012636 -0.008332 0.016384 -0.008266 0.021819 -0.009053 0.020652 -0.008299 0.019654 -0.01101 0.019662 -0.010131 0.020756 -0.009071 0.017385 -0.01101 0.017401 -0.010131 0.016248 -0.009089 0.016408 -0.008266 0.012653 -0.008266 0.017371 -0.012913 0.017466 -0.013923 0.014871 -0.013923 0.014885 -0.012913 0.014908 -0.01101 0.012284 -0.012913 0.012276 -0.013923 0.009644 -0.013923 0.014932 -0.010131 0.01231 -0.01101 0.009658 -0.012913 0.01234 -0.010131 0.007127 -0.012913 0.007012 -0.013923 0.009681 -0.01101 0.012458 -0.009089 0.004809 -0.012913 0.007142 -0.01101 0.009705 -0.010131 0.012689 -0.008266 0.002597 -0.010948 0.004816 -0.01101 0.007157 -0.010131 0.008513 -0.009089 0.004824 -0.010131 0.008593 -0.008266 0.002597 -0.010131 0.003726 -0.009071 0.003751 -0.008266 0.002597 -0.010131 0.002597 -0.009053 0.008649 -0.008266 0.002597 -0.009089 0.002597 -0.010131 0.00404 -0.008332 0.008637 -0.008332 0.002597 -0.009089 0.002597 -0.010131 0.004008 -0.009089 0.003153 -0.010131 0.002597 -0.009089 0.004149 -0.00839 0.102597 -0.22209 0.102597 -0.22209 0.102597 -0.221846 0.103728 -0.222334 0.102597 -0.221826 0.102597 -0.221358 0.104011 -0.222303 0.102597 -0.22209 0.102597 -0.221292 0.102597 -0.221826 0.104119 -0.222276 0.102597 -0.22209 0.102597 -0.221826 0.102597 -0.221292 0.103995 -0.22209 0.108516 -0.222303 0.108525 -0.222334 0.108458 -0.22209 0.103983 -0.221826 0.102597 -0.221292 0.108406 -0.221826 0.102597 -0.220342 0.102597 -0.220342 0.102597 -0.220342 0.112462 -0.222303 0.112474 -0.222334 0.112378 -0.22209 0.112516 -0.222334 0.11626 -0.222334 0.116251 -0.222303 0.10847 -0.222334 0.108458 -0.22209 0.103716 -0.22209 0.112378 -0.22209 0.108406 -0.221826 0.103706 -0.221836 0.112303 -0.221826 0.116311 -0.222334 0.116193 -0.22209 0.120493 -0.222303 0.116141 -0.221826 0.120746 -0.22209 0.120626 -0.222319 0.120736 -0.221836 0.119642 -0.221292 0.12182 -0.221358 0.114869 -0.221292 0.112264 -0.221292 0.11736 -0.221292 0.119639 -0.220342 0.117354 -0.220342 0.12182 -0.220342 0.114859 -0.220342 0.109642 -0.221292 0.112253 -0.220342 0.107117 -0.221292 0.109633 -0.220342 0.104804 -0.221292 0.107111 -0.220342 0.104801 -0.220342 0.119638 -0.219457 0.117352 -0.219457 0.114857 -0.219457 0.11225 -0.219457 0.10963 -0.219457 0.107109 -0.219457 0.1048 -0.219457 0.12182 -0.219488 0.102597 -0.219488 0.102597 -0.219457 0.112248 -0.218005 0.109628 -0.218005 0.107108 -0.218005 0.1048 -0.218005 0.102597 -0.218018 0.114855 -0.218005 0.117351 -0.218005 0.119638 -0.218005 0.12182 -0.218018 0.107108 -0.216443 0.1048 -0.216443 0.109628 -0.216443 0.112248 -0.216443 0.114855 -0.216443 0.117351 -0.216443 0.119638 -0.216443 0.12182 -0.216443 0.109746 -0.215359 0.10724 -0.215359 0.112252 -0.215359 0.114734 -0.215359 0.117217 -0.215359 0.119299 -0.215359 0.121381 -0.215359 0.121381 -0.215359 0.105138 -0.215359 0.12182 -0.216443 0.121381 -0.215359 0.102597 -0.216443 0.103036 -0.215359 0.12182 -0.218005 0.12182 -0.216443 0.121381 -0.215359 0.102597 -0.218005 0.102597 -0.216443 0.103036 -0.215359 0.12182 -0.219457 0.12182 -0.218005 0.12182 -0.216443 0.121381 -0.215359 0.102597 -0.219457 0.102597 -0.216443 0.103036 -0.215359 0.102597 -0.218005 0.121274 -0.216443 0.119299 -0.215359 0.12182 -0.218005 0.102597 -0.220342 0.102597 -0.216443 0.103036 -0.215359 0.102597 -0.218005 0.102597 -0.219457 0.103149 -0.221292 0.103148 -0.216443 0.103036 -0.215359 0.105138 -0.215359 0.103148 -0.218005 0.1048 -0.216443 0.10724 -0.215359 0.103148 -0.220342 0.103148 -0.219457 0.1048 -0.218005 0.107108 -0.216443 0.1048 -0.219457 0.104801 -0.220342 0.107108 -0.218005 0.109628 -0.216443 0.109746 -0.215359 0.104804 -0.221292 0.107109 -0.219457 0.109628 -0.218005 0.112248 -0.216443 0.112252 -0.215359 0.107117 -0.221292 0.107111 -0.220342 0.10963 -0.219457 0.112248 -0.218005 0.114855 -0.216443 0.114734 -0.215359 0.109642 -0.221292 0.109633 -0.220342 0.11225 -0.219457 0.114855 -0.218005 0.117351 -0.216443 0.117217 -0.215359 0.112303 -0.221826 0.112264 -0.221292 0.112253 -0.220342 0.114857 -0.219457 0.117351 -0.218005 0.119638 -0.216443 0.114859 -0.220342 0.114869 -0.221292 0.117352 -0.219457 0.119638 -0.218005 0.121274 -0.218005 0.116141 -0.221826 0.11736 -0.221292 0.117354 -0.220342 0.119638 -0.219457 0.121274 -0.219457 0.12182 -0.219457 0.119639 -0.220342 0.119642 -0.221292 0.121275 -0.220342 0.120465 -0.221826 0.121275 -0.221292 0.12182 -0.220342 0.12182 -0.219457 0.12182 -0.221292 0.12182 -0.220342 0.12182 -0.220342 0.12182 -0.221292 0.12182 -0.221846 0.12182 -0.221292 0.12182 -0.221826 0.12182 -0.22209 0.12182 -0.221826 0.12182 -0.221826 0.12182 -0.22209 0.12182 -0.22209 0.12182 -0.22209 0.120478 -0.22209 0.120388 -0.222276 0.116193 -0.22209 0.00724 -0.120514 0.00711 -0.118455 0.005137 -0.120514 0.009746 -0.120514 0.0048 -0.118455 0.003035 -0.120514 0.009631 -0.118455 0.012252 -0.120514 0.007114 -0.115901 0.012252 -0.118455 0.014734 -0.120514 0.009638 -0.115901 0.014858 -0.118455 0.017216 -0.120514 0.01226 -0.115901 0.017353 -0.118455 0.019298 -0.120514 0.014865 -0.115901 0.019639 -0.118455 0.02138 -0.120514 0.017357 -0.115901 0.021274 -0.118455 0.02138 -0.120514 0.019641 -0.115901 0.021819 -0.118455 0.02138 -0.120514 0.021275 -0.115901 0.021819 -0.118455 0.02138 -0.120514 0.021819 -0.115901 0.021819 -0.118455 0.02138 -0.120514 0.021819 -0.115901 0.021819 -0.118537 0.019298 -0.120514 0.021819 -0.115901 0.019639 -0.118455 0.017216 -0.120514 0.021819 -0.115901 0.017353 -0.118455 0.014734 -0.120514 0.019641 -0.115901 0.014858 -0.118455 0.012252 -0.120514 0.017357 -0.115901 0.012252 -0.118455 0.009746 -0.120514 0.014865 -0.115901 0.009631 -0.118455 0.00724 -0.120514 0.01226 -0.115901 0.00711 -0.118455 0.005137 -0.120514 0.009638 -0.115901 0.0048 -0.118455 0.003035 -0.120514 0.007114 -0.115901 0.002597 -0.118537 0.003035 -0.120514 0.004802 -0.115901 0.002597 -0.118455 0.003035 -0.120514 0.002597 -0.115901 0.002597 -0.118455 0.003035 -0.120514 0.002597 -0.115901 0.002597 -0.118455 0.002597 -0.115901 0.003147 -0.118455 0.002597 -0.115901 0.004802 -0.115901 0.003148 -0.115901 0.007012 -0.113923 0.004804 -0.113923 0.009644 -0.113923 0.002597 -0.113923 0.002597 -0.113923 0.012276 -0.113923 0.002597 -0.113923 0.014871 -0.113923 0.002597 -0.113923 0.017466 -0.113923 0.002597 -0.113923 0.019643 -0.113923 0.004804 -0.113923 0.021819 -0.113923 0.007012 -0.113923 0.021819 -0.113923 0.009644 -0.113923 0.021819 -0.113923 0.012276 -0.113923 0.021819 -0.113923 0.014871 -0.113923 0.021819 -0.113923 0.017466 -0.113923 0.019643 -0.113923</float_array>
          <technique_common>
            <accessor source="#GeometrySource2-array" count="420" stride="2">
              <param name="S" type="float"/>
              <param name="T" type="float"/>
            </accessor>
          </technique_common>
        </source>
        <vertices id="Geometry-vertices">
          <input semantic="POSITION" source="#GeometrySource"/>
          <input semantic="NORMAL" source="#GeometrySource1"/>
          <input semantic="TEXCOORD" source="#GeometrySource2"/>
        </vertices>
        <triangles material="VisualMaterial0" count="728">
          <input semantic="VERTEX" source="#Geometry-vertices" offset="0"/>
          <p>0 1 2 1 3 2 4 0 2 0 4 5 4 6 5 5 6 7 3 8 2 2 8 9 4 2 9 10 4 9 4 10 6 8 3 11 3 12 11 12 13 11 6 14 7 6 15 14 10 15 6 10 9 16 10 16 15 7 14 17 18 7 17 19 18 17 8 11 20 11 21 20 13 21 11 22 8 20 8 22 9 9 22 23 9 23 16 22 20 24 22 24 23 23 24 25 16 23 25 21 13 26 13 27 26 27 28 26 28 29 26 29 28 30 21 26 31 26 29 31 32 21 31 21 32 20 20 32 33 20 33 24 16 25 34 16 34 15 32 35 33 32 31 35 24 36 25 24 33 36 33 35 37 33 37 36 35 38 37 31 38 35 31 39 38 29 39 31 15 34 40 15 40 14 41 29 30 39 29 41 17 14 42 14 40 42 43 41 30 44 43 30 43 44 45 46 19 17 46 17 42 19 46 47 48 19 47 49 48 47 50 49 47 49 50 51 50 47 52 47 46 52 53 46 42 46 53 52 43 54 41 54 43 55 55 43 45 54 56 41 56 39 41 39 57 38 57 39 56 58 56 54 58 57 56 38 57 59 59 57 58 38 59 37 60 55 45 61 60 45 60 61 62 63 54 55 64 54 63 64 58 54 65 63 55 60 65 55 66 60 62 65 60 66 67 58 64 67 59 58 68 63 65 68 64 63 69 67 64 69 64 68 70 67 69 70 59 67 37 59 71 59 70 71 72 70 69 71 70 72 72 69 73 73 69 68 73 68 74 74 68 65 37 71 75 36 37 75 75 71 76 76 71 72 77 73 74 78 73 77 78 72 73 76 72 78 79 65 66 74 65 79 80 74 79 81 74 80 82 79 66 80 79 82 83 80 82 81 80 83 84 81 83 78 81 84 85 78 84 85 76 78 86 76 85 86 75 76 87 82 66 87 66 62 88 87 62 87 88 89 90 87 89 82 87 90 83 82 91 91 82 90 92 90 89 93 92 89 92 93 94 95 83 91 84 83 95 92 96 90 95 91 96 96 91 90 96 92 97 97 92 94 84 95 98 98 95 96 99 97 94 99 100 51 100 99 94 101 96 97 98 96 101 85 84 102 102 84 98 50 103 51 103 99 51 99 104 97 104 101 97 104 99 103 102 98 105 105 101 104 105 98 101 106 85 102 106 86 85 107 50 52 50 107 103 107 108 103 108 104 103 109 105 104 109 104 108 106 102 110 110 105 109 110 102 105 111 109 108 111 108 107 110 109 111 112 106 110 86 106 112 113 111 107 107 52 113 114 111 113 112 110 114 114 110 111 115 112 114 52 116 113 52 53 116 113 116 117 86 118 75 118 86 112 117 119 115 116 119 117 53 120 116 116 120 119 53 42 120 118 112 121 112 115 121 118 122 75 118 121 122 36 75 122 25 36 122 120 123 119 123 121 115 119 123 115 120 124 123 42 40 124 42 124 120 25 125 34 25 122 125 34 126 40 40 126 124 34 125 126 124 126 127 123 127 121 126 125 127 124 127 123 122 128 125 121 128 122 127 128 121 127 125 128 129 130 131 132 130 129 130 133 131 131 133 134 132 135 130 135 136 130 130 136 133 133 137 134 133 138 137 136 138 133 135 139 136 139 140 136 136 140 138 140 141 138 138 141 142 138 142 137 140 143 141 139 143 140 144 139 135 145 135 132 145 144 135 144 146 139 146 143 139 143 147 141 141 148 142 141 147 148 149 147 143 146 149 143 137 142 150 142 151 150 142 148 151 137 150 152 134 137 152 144 153 146 154 153 144 145 154 144 146 155 149 153 155 146 156 154 145 154 156 157 154 157 153 157 158 153 153 158 155 159 145 132 159 156 145 160 159 132 161 160 132 160 162 159 162 156 159 163 160 161 164 163 161 165 162 160 163 165 160 156 166 157 167 166 156 162 167 156 157 168 158 157 166 168 169 167 162 165 169 162 167 170 166 166 171 168 170 171 166 172 170 167 169 172 167 173 172 169 173 174 172 175 169 165 176 165 163 176 175 165 175 177 169 177 173 169 178 173 177 179 178 177 179 177 175 180 174 173 178 180 173 181 179 175 181 175 176 182 176 163 183 181 176 183 176 182 184 163 164 184 182 163 185 182 184 185 183 182 134 186 164 186 184 164 187 185 184 187 184 186 188 186 134 188 187 186 152 188 134 189 178 179 190 189 179 190 179 181 191 181 183 191 190 181 192 191 183 192 183 185 193 192 185 193 185 187 194 187 188 194 193 187 195 194 188 195 188 152 196 180 178 189 196 178 197 195 152 152 150 197 150 151 198 150 198 197 199 192 193 200 193 194 200 199 193 201 200 194 201 194 195 202 201 195 202 195 197 197 198 203 203 202 197 204 191 192 199 204 192 205 190 191 204 205 191 205 206 190 206 189 190 207 196 189 206 207 189 208 201 202 209 202 203 209 208 202 210 200 201 208 210 201 211 199 200 210 211 200 211 212 199 212 204 199 213 205 204 212 213 204 214 206 205 213 214 205 214 215 206 215 207 206 216 210 208 217 208 209 217 216 208 218 211 210 216 218 210 219 212 211 218 219 211 219 220 212 220 213 212 221 214 213 220 221 213 222 215 214 221 222 214 222 223 215 224 217 209 223 225 215 215 225 207 223 226 225 227 209 203 224 209 227 228 224 227 225 229 207 207 229 196 225 230 229 226 230 225 226 231 230 203 232 227 198 232 203 232 233 227 227 233 228 233 234 228 196 235 180 229 235 196 230 236 229 229 236 235 230 237 236 231 237 230 231 238 237 198 239 232 151 239 198 233 240 234 240 241 234 232 242 233 239 242 232 242 240 233 238 243 237 243 238 244 237 243 245 237 245 236 151 246 239 148 246 151 240 247 241 247 248 241 249 247 240 242 249 240 239 250 242 246 250 239 250 249 242 147 251 148 148 251 246 247 252 248 252 253 248 254 253 252 255 252 247 249 255 247 256 252 255 256 254 252 257 254 256 251 258 246 246 258 250 250 259 249 259 255 249 258 259 250 260 255 259 260 256 255 261 256 260 261 257 256 262 259 258 262 260 259 263 262 258 263 258 251 264 261 260 264 260 262 261 265 257 265 266 257 267 251 147 267 263 251 268 262 263 268 264 262 269 265 261 264 269 261 265 270 266 270 271 266 272 267 147 149 272 147 272 273 267 273 268 263 273 263 267 268 274 264 274 269 264 275 270 265 269 275 265 270 276 271 276 277 271 149 278 272 272 278 273 279 274 268 278 279 273 273 279 268 274 280 269 280 275 269 281 276 270 275 281 270 276 282 277 282 283 277 149 284 278 155 284 149 284 285 278 278 285 279 279 286 274 286 280 274 285 286 279 287 281 275 280 287 275 288 282 276 281 288 276 282 289 283 289 244 283 289 243 244 290 287 280 286 290 280 291 290 286 285 291 286 287 292 281 292 288 281 288 293 282 293 289 282 293 294 289 243 294 245 294 243 289 295 291 285 284 295 285 295 296 291 291 296 290 290 297 287 297 292 287 296 297 290 292 298 288 298 293 288 298 299 293 299 294 293 245 294 300 294 299 300 301 298 292 297 301 292 302 301 297 296 302 297 301 303 298 303 299 298 295 304 296 304 302 296 302 305 301 305 303 301 304 305 302 300 299 306 299 303 306 245 300 307 236 245 307 236 307 235 306 303 308 303 305 308 307 300 309 300 306 309 235 307 310 307 309 310 235 310 180 180 310 174 310 309 311 310 311 174 174 311 312 309 306 313 309 313 311 306 308 313 311 313 314 311 314 312 312 314 315 308 305 316 305 304 316 313 317 314 308 316 317 313 308 317 314 318 315 314 317 318 315 318 171 318 319 171 317 316 319 319 168 171 317 319 318 316 320 319 316 304 320 319 320 168 321 304 295 304 321 320 320 321 322 168 322 158 320 322 168 323 321 295 322 321 323 158 322 323 323 295 284 158 323 155 155 323 284 324 325 326 324 327 325 325 328 326 326 328 329 327 330 325 327 331 330 325 330 332 325 332 328 331 333 330 331 334 333 330 333 335 330 335 332 334 336 333 334 337 336 333 338 335 333 336 338 337 339 336 337 340 339 336 339 341 336 341 338 340 342 339 340 343 342 339 342 344 339 344 341 343 345 342 345 343 346 342 347 344 342 345 347 348 345 346 348 346 349 350 345 348 345 350 347 351 348 349 351 349 352 353 348 351 353 350 348 354 351 352 354 352 355 356 351 354 356 353 351 357 354 355 357 355 358 359 356 354 359 354 357 360 357 358 360 358 361 362 357 360 362 359 357 363 360 361 363 361 364 365 360 363 365 362 360 366 363 364 366 364 367 368 365 363 368 363 366 369 366 367 369 367 370 371 366 369 371 368 366 372 369 370 372 370 373 374 369 372 374 371 369 375 372 373 375 373 376 377 374 372 377 372 375 378 375 376 378 376 379 380 375 378 380 377 375 381 378 379 379 382 381 383 378 381 383 380 378 382 384 381 382 385 384 386 383 381 381 384 386 385 387 384 385 388 387 384 387 389 384 389 386 388 390 387 388 329 390 387 390 391 387 391 389 328 392 329 329 392 390 390 393 391 390 392 393 332 394 328 328 394 392 394 395 392 392 395 393 332 335 396 332 396 394 394 397 395 396 397 394 335 398 396 335 338 398 397 399 395 393 395 400 395 399 400 338 341 401 338 401 398 391 393 402 393 400 402 341 403 401 341 344 403 389 391 404 391 402 404 344 347 405 344 405 403 389 404 406 386 389 406 347 350 407 347 407 405 408 383 386 406 408 386 350 409 407 409 350 353 410 380 383 408 410 383 411 353 356 411 409 353 410 412 380 412 377 380 413 356 359 413 411 356 414 374 377 412 414 377 415 413 359 415 359 362 416 371 374 414 416 374 417 415 362 417 362 365 418 368 371 416 418 371 419 365 368 418 419 368 419 417 365</p>
        </triangles>
      </mesh>
    </geometry>
  </library_geometries>
  <library_controllers>
    <controller id="Controller">
      <skin source="#Geometry">
        <bind_shape_matrix>1 0 0 0 0 1 0 0 0 0 1 0 0 0 0 1</bind_shape_matrix>
        <source id="Controller-joints">
          <Name_array id="Controller-joints-array" count="3">Mesh MeshParent gen_candyCorn</Name_array>
          <technique_common>
            <accessor source="#Controller-joints-array" count="3" stride="1">
              <param name="JOINT" type="Name"/>
            </accessor>
          </technique_common>
        </source>
        <source id="Controller-bind_poses">
          <float_array id="Controller-bind_poses-array" count="48">-0.022222 0 0 0 0 0.022222 0 0 0 0 -0.022222 0 0 0 0 1 0.022222 0 0 0 0 0.022222 0 0 0 0 0.022222 0 0 0 0 1 1 0 0 0 0 1 0 0 0 0 1 0 0 0 0 1</float_array>
          <technique_common>
            <accessor source="#Controller-bind_poses-array" count="3" stride="16">
              <param name="TRANSFORM" type="float4x4"/>
            </accessor>
          </technique_common>
        </source>
        <source id="Controller-weights">
          <float_array id="Controller-weights-array" count="1">1</float_array>
          <technique_common>
            <accessor source="#Controller-weights-array" count="1" stride="1">
              <param name="WEIGHT" type="float"/>
            </accessor>
          </technique_common>
        </source>
        <joints>
          <input semantic="JOINT" source="#Controller-joints"/>
          <input semantic="INV_BIND_MATRIX" source="#Controller-bind_poses"/>
        </joints>
        <vertex_weights count="420">
          <input semantic="JOINT" source="#Controller-joints" offset="0"/>
          <input semantic="WEIGHT" source="#Controller-weights" offset="1"/>
          <vcount>1 1 1 1 1 1 1 1 1 1 1 1 1 1 1 1 1 1 1 1 1 1 1 1 1 1 1 1 1 1 1 1 1 1 1 1 1 1 1 1 1 1 1 1 1 1 1 1 1 1 1 1 1 1 1 1 1 1 1 1 1 1 1 1 1 1 1 1 1 1 1 1 1 1 1 1 1 1 1 1 1 1 1 1 1 1 1 1 1 1 1 1 1 1 1 1 1 1 1 1 1 1 1 1 1 1 1 1 1 1 1 1 1 1 1 1 1 1 1 1 1 1 1 1 1 1 1 1 1 1 1 1 1 1 1 1 1 1 1 1 1 1 1 1 1 1 1 1 1 1 1 1 1 1 1 1 1 1 1 1 1 1 1 1 1 1 1 1 1 1 1 1 1 1 1 1 1 1 1 1 1 1 1 1 1 1 1 1 1 1 1 1 1 1 1 1 1 1 1 1 1 1 1 1 1 1 1 1 1 1 1 1 1 1 1 1 1 1 1 1 1 1 1 1 1 1 1 1 1 1 1 1 1 1 1 1 1 1 1 1 1 1 1 1 1 1 1 1 1 1 1 1 1 1 1 1 1 1 1 1 1 1 1 1 1 1 1 1 1 1 1 1 1 1 1 1 1 1 1 1 1 1 1 1 1 1 1 1 1 1 1 1 1 1 1 1 1 1 1 1 1 1 1 1 1 1 1 1 1 1 1 1 1 1 1 1 1 1 1 1 1 1 1 1 1 1 1 1 1 1 1 1 1 1 1 1 1 1 1 1 1 1 1 1 1 1 1 1 1 1 1 1 1 1 1 1 1 1 1 1 1 1 1 1 1 1 1 1 1 1 1 1 1 1 1 1 1 1 1 1 1 1 1 1 1 1 1 1 1 1 1 1 1 1 1 1 1 1 1 1 1 1 1 1 1 1 1 1 1 1 1 1 1 1 1 1 1 1 1 1 </vcount>
          <v>0 0 0 0 0 0 0 0 0 0 0 0 0 0 0 0 0 0 0 0 0 0 0 0 0 0 0 0 0 0 0 0 0 0 0 0 0 0 0 0 0 0 0 0 0 0 0 0 0 0 0 0 0 0 0 0 0 0 0 0 0 0 0 0 0 0 0 0 0 0 0 0 0 0 0 0 0 0 0 0 0 0 0 0 0 0 0 0 0 0 0 0 0 0 0 0 0 0 0 0 0 0 0 0 0 0 0 0 0 0 0 0 0 0 0 0 0 0 0 0 0 0 0 0 0 0 0 0 0 0 0 0 0 0 0 0 0 0 0 0 0 0 0 0 0 0 0 0 0 0 0 0 0 0 0 0 0 0 0 0 0 0 0 0 0 0 0 0 0 0 0 0 0 0 0 0 0 0 0 0 0 0 0 0 0 0 0 0 0 0 0 0 0 0 0 0 0 0 0 0 0 0 0 0 0 0 0 0 0 0 0 0 0 0 0 0 0 0 0 0 0 0 0 0 0 0 0 0 0 0 0 0 0 0 0 0 0 0 0 0 0 0 0 0 0 0 0 0 0 0 0 0 0 0 0 0 0 0 0 0 0 0 0 0 0 0 0 0 0 0 0 0 0 0 0 0 0 0 0 0 0 0 0 0 0 0 0 0 0 0 0 0 0 0 0 0 0 0 0 0 0 0 0 0 0 0 0 0 0 0 0 0 0 0 0 0 0 0 0 0 0 0 0 0 0 0 0 0 0 0 0 0 0 0 0 0 0 0 0 0 0 0 0 0 0 0 0 0 0 0 0 0 0 0 0 0 0 0 0 0 0 0 0 0 0 0 0 0 0 0 0 0 0 0 0 0 0 0 0 0 0 0 0 0 0 0 0 0 0 0 0 0 0 0 0 0 0 0 0 0 0 0 0 0 0 0 0 0 0 0 0 0 0 0 0 0 0 0 0 0 0 0 0 0 0 0 0 0 0 0 0 0 0 0 0 0 0 0 0 0 0 0 0 0 0 0 0 0 0 0 0 0 0 0 0 0 0 0 0 0 0 0 0 0 0 0 0 0 0 0 0 0 0 0 0 0 0 0 0 0 0 0 0 0 0 0 0 0 0 0 0 0 0 0 0 0 0 0 0 0 0 0 0 0 0 0 0 0 0 0 0 0 0 0 0 0 0 0 0 0 0 0 0 0 0 0 0 0 0 0 0 0 0 0 0 0 0 0 0 0 0 0 0 0 0 0 0 0 0 0 0 0 0 0 0 0 0 0 0 0 0 0 0 0 0 0 0 0 0 0 0 0 0 0 0 0 0 0 0 0 0 0 0 0 0 0 0 0 0 0 0 0 0 0 0 0 0 0 0 0 0 0 0 0 0 0 0 0 0 0 0 0 0 0 0 0 0 0 0 0 0 0 0 0 0 0 0 0 0 0 0 0 0 0 0 0 0 0 0 0 0 0 0 0 0 0 0 0 0 0 0 0 0 0 0 0 0 0 0 0 0 0 0 0 0 0 0 0 0 0 0 0 0 0 0 0 0 0 0 0 0 0 0 0 0 0 0 0 0 0 0 0 0 0 0 0 0 0 0 0 0 0 0 0 0 0 0 0 0 0 0 0 0 0 0 0 0 0 0 0 0 0 0 0 0 0 0 0 0 0 0 0 0 0 0 0 0 0 0 0 0 0 0 0 0 0 0 0 0 0 0 0 0 0 0 0 0 0 0 0 0 0 0 0 0 0 0 0 0 0 0 0 0 0 0 0 0 0 0 0 0 0 0 0 0 0 0 0 0 0 0 0 0 0 0 0 0 0 0 0 0 0 0 0 0 0 0 0 0 0 0 0 0 0 0 0 0 0 0 0 0 0 0 0 0 0 0 0 0 0 0 0 0 0 0 0 0 0 0 0</v>
        </vertex_weights>
      </skin>
      <extra>
        <technique profile="FCOLLADA">
          <user_properties>SkinController</user_properties>
        </technique>
      </extra>
    </controller>
  </library_controllers>
  <library_visual_scenes>
    <visual_scene id="VisualSceneNode" name="rdmscene">
      <node id="VisualSceneNode1" name="gen_candyCorn" sid="gen_candyCorn" type="JOINT">
        <matrix>1 0 0 0 0 1 0 0 0 0 1 0 0 0 0 1</matrix>
        <node id="VisualSceneNode2" name="MeshParent" sid="MeshParent" type="JOINT">
          <matrix>45 0 0 0 0 45 0 0 0 0 45 0 0 0 0 1</matrix>
          <node id="VisualSceneNode3" name="Mesh" sid="Mesh" type="JOINT">
            <matrix>-1 0 0 0 0 1 0 0 0 0 -1 0 0 0 0 1</matrix>
          </node>
        </node>
      </node>
      <node id="VisualSceneNode4" name="Mesh" type="NODE">
        <matrix>1 0 0 0 0 1 0 0 0 0 1 0 0 0 0 1</matrix>
        <instance_controller url="#Controller">
          <skeleton>#VisualSceneNode1</skeleton>
          <bind_material>
            <technique_common>
              <instance_material symbol="VisualMaterial0" target="#VisualMaterial"/>
            </technique_common>
          </bind_material>
        </instance_controller>
      </node>
    </visual_scene>
  </library_visual_scenes>
  <scene>
    <instance_visual_scene url="#VisualSceneNode"/>
  </scene>
</COLLADA>
